<?xml version="1.0" encoding="UTF-8"?>
<svg width="112px" height="30px" viewBox="0 0 112 30" version="1.1" xmlns="http://www.w3.org/2000/svg" xmlns:xlink="http://www.w3.org/1999/xlink">
    <defs>
        <linearGradient x1="100%" y1="0%" x2="0%" y2="100%" id="linearGradient-1">
            <stop stop-color="#AF2F70" offset="0%"></stop>
            <stop stop-color="#800343" offset="48.6733886%"></stop>
            <stop stop-color="#3D001F" offset="100%"></stop>
        </linearGradient>
    </defs>
    <g id="App-|-Design" stroke="none" stroke-width="1" fill="none" fill-rule="evenodd">
        <g id="home_DX_Logo_Querformat_Full-Copy">
            <rect id="Rectangle" fill="url(#linearGradient-1)" x="0" y="0" width="30" height="30" rx="6"></rect>
            <path d="M9.60197828,9.00031727 C9.72296431,9.00116333 9.89979004,9.0037015 10.1324555,9.00793178 C10.4232873,9.01321963 10.7008995,9.03437103 10.965292,9.07138599 C11.8483631,9.18771871 12.5873403,9.50895565 13.1822235,10.0350968 C13.7771067,10.561238 14.2252521,11.2288292 14.5266596,12.0378703 C14.8280671,12.8469115 14.9787708,13.7379144 14.9787708,14.710879 C14.9787708,15.6838435 14.8280671,16.5748464 14.5266596,17.3838876 C14.2252521,18.1929288 13.7771067,18.86052 13.1822235,19.3866611 C12.5873403,19.9128023 11.8483631,20.2340392 10.965292,20.350372 C10.7008995,20.3820991 10.4219653,20.4019285 10.1284896,20.4098603 C9.87169833,20.4168006 9.68474389,20.4207045 9.56762625,20.4215721 L9.56762625,20.4215721 L6,20.421758 L6,9 Z M9.5217087,10.348402 L7.45151507,10.348402 L7.45151507,19.073356 L9.5217087,19.073356 C9.72264704,19.073356 9.9473807,19.0667462 10.1959097,19.0535265 C10.4444387,19.0403069 10.6612406,19.0178335 10.8463154,18.9861064 C11.4702818,18.8697737 11.9752715,18.6080251 12.3612846,18.2008606 C12.7472978,17.7936961 13.0301978,17.2860624 13.2099847,16.6779595 C13.3897716,16.0698567 13.4796651,15.4141631 13.4796651,14.710879 C13.4796651,13.9917313 13.3884497,13.328106 13.2060188,12.7200031 C13.023588,12.1119003 12.739366,11.6069105 12.3533529,11.2050338 C11.9673397,10.8031572 11.4649939,10.5466964 10.8463154,10.4356515 C10.6612406,10.3986366 10.4417948,10.3748412 10.1879779,10.3642655 C9.93416107,10.3536898 9.71207133,10.348402 9.5217087,10.348402 L9.5217087,10.348402 Z" id="Combined-Shape" fill="#FFFFFF"></path>
            <polygon id="Path" fill="#FFFFFF" points="16.1713367 20.421758 19.2250706 15.8371912 22.2788045 20.421758 24 20.421758 20.0817025 14.639493 23.9048187 9 22.1756914 9 19.2250706 13.4497265 16.2665181 9 14.5453226 9 18.3684388 14.639493 14.4422095 20.421758"></polygon>
            <path d="M41.8225888,22.3807103 L41.8225888,16.6193046 C41.8225888,15.9847737 41.8951548,15.4329343 42.0402869,14.9637865 C42.185419,14.4946386 42.3896164,14.1048071 42.6528792,13.794292 C42.9161421,13.4837769 43.2317199,13.2525781 43.5996128,13.1006957 C43.9675058,12.9488133 44.3775882,12.8728721 44.8298603,12.8728721 C45.4103886,12.8728721 45.8913495,12.9842525 46.2727431,13.2070134 C46.6541366,13.4297742 46.9579014,13.7318515 47.1840375,14.113245 C47.4101735,14.4946386 47.5688062,14.9249721 47.6599356,15.4042454 C47.7510651,15.8835188 47.7966298,16.3830431 47.7966298,16.9028184 L47.7966298,16.9028184 L47.7966298,22.3807103 L49.6192186,22.3807103 L49.6192186,16.3357908 C49.6192186,15.9172704 49.5804042,15.4734363 49.5027754,15.0042884 C49.4251466,14.5351406 49.2918276,14.0727431 49.1028184,13.6170959 C48.9138092,13.1614487 48.6539216,12.7496786 48.3231554,12.3817857 C47.9923893,12.0138928 47.5772441,11.7185659 47.0777198,11.495805 C46.5781954,11.2730442 45.974041,11.1616638 45.2652565,11.1616638 C44.3269608,11.1616638 43.5118586,11.3658612 42.8199499,11.7742561 C42.3941599,12.025576 42.0271657,12.3433607 41.7189672,12.7276102 L41.6200789,12.8567905 L41.6200789,7.8 L40,7.8 L40,22.3807103 L41.8225888,22.3807103 Z M55.7183392,22.6844751 C56.8051422,22.6844751 57.7434379,22.4397757 58.5332263,21.9503768 C59.3230148,21.460978 59.9305444,20.7825699 60.3558151,19.9151527 C60.7810858,19.0477354 60.9937212,18.043624 60.9937212,16.9028184 C60.9937212,15.7755135 60.7827734,14.7781524 60.3608779,13.9107352 C59.9389823,13.0433179 59.3331403,12.3649099 58.5433518,11.875511 C57.7535634,11.3861122 56.8118925,11.1414128 55.7183392,11.1414128 C54.6517873,11.1414128 53.7236171,11.382737 52.9338286,11.8653855 C52.1440401,12.348034 51.5331353,13.0213794 51.1011143,13.8854214 C50.6690933,14.7494635 50.4530827,15.7552625 50.4530827,16.9028184 C50.4530827,18.0301233 50.6657181,19.029172 51.0909888,19.8999644 C51.5162595,20.7707568 52.1221015,21.4525401 52.9085148,21.9453141 C53.6949282,22.4380881 54.6315363,22.6844751 55.7183392,22.6844751 Z M55.7183392,20.9732667 C54.6180356,20.9732667 53.78437,20.6019986 53.2173424,19.8594625 C52.6503148,19.1169263 52.366801,18.1313783 52.366801,16.9028184 C52.366801,16.1062796 52.4883069,15.4042454 52.7313187,14.7967158 C52.9743306,14.1891862 53.3422235,13.7132881 53.8349975,13.3690213 C54.3277715,13.0247545 54.9555521,12.8526211 55.7183392,12.8526211 C56.8388938,12.8526211 57.6793097,13.2188265 58.239587,13.9512371 C58.7998643,14.6836478 59.080003,15.6675083 59.080003,16.9028184 C59.080003,18.104377 58.8032395,19.0831746 58.2497125,19.8392115 C57.6961856,20.5952483 56.8523945,20.9732667 55.7183392,20.9732667 Z M63.832433,22.3807103 L63.832433,15.4346219 C63.832433,14.6313328 64.0518187,13.9866764 64.4905901,13.5006527 C64.9293614,13.014629 65.5031394,12.7716172 66.2119239,12.7716172 C66.9274588,12.7716172 67.5012367,13.0095663 67.9332578,13.4854645 C68.3652788,13.9613626 68.5812893,14.6178321 68.5812893,15.4548729 L68.5812893,15.4548729 L68.5711639,22.3807103 L70.3633762,22.3807103 L70.372906,15.4346219 C70.3733031,14.88177 70.4664537,14.4177692 70.6523577,14.0426197 L70.7177684,13.9208607 C70.9472796,13.5259664 71.2442941,13.2357023 71.6088118,13.0500682 C71.9733296,12.8644342 72.3580983,12.7716172 72.7631181,12.7716172 C73.4584019,12.7716172 74.023742,13.0028159 74.4591382,13.4652135 C74.8945344,13.927611 75.1122325,14.5672047 75.1122325,15.3839944 L75.1122325,15.3839944 L75.102107,22.3807103 L76.9044448,22.3807103 L76.9145703,14.9891002 C76.9145703,13.8212933 76.5871793,12.8914355 75.9323974,12.1995268 C75.2776155,11.5076181 74.3798218,11.1616638 73.2390162,11.1616638 C72.5099807,11.1616638 71.8551988,11.3236716 71.2746705,11.6476874 C70.6941423,11.9717032 70.2368075,12.4256628 69.9026662,13.0095663 L69.9303624,12.9640016 C69.658761,12.4359417 69.2847461,12.0197505 68.808318,11.7154278 L68.6622933,11.6274364 C68.1155167,11.3169213 67.4742354,11.1616638 66.7384496,11.1616638 C66.0026637,11.1616638 65.3445067,11.3219841 64.7639784,11.6426247 C64.3576086,11.8670731 64.0107767,12.1502325 63.7234827,12.4921029 L63.6299231,12.6096093 L63.6299231,11.4451776 L62.0199697,11.4451776 L62.0199697,22.3807103 L63.832433,22.3807103 Z M87.9650571,17.4192186 C88.0190598,16.1231554 87.8519891,15.005976 87.4638452,14.0676803 C87.0757013,13.1293846 86.495173,12.4070994 85.7222604,11.9008248 C84.9493477,11.3945501 84.0127396,11.1414128 82.912436,11.1414128 C81.8526344,11.1414128 80.9295269,11.3793619 80.1431136,11.85526 C79.3567003,12.3311582 78.7441079,13.0061911 78.3053366,13.8803587 C77.8665652,14.7545263 77.6471795,15.7890142 77.6471795,16.9838224 C77.6471795,18.1246279 77.8699404,19.121989 78.3154621,19.9759056 C78.7609838,20.8298222 79.3837016,21.4947296 80.1836156,21.9706278 C80.9835295,22.446526 81.9201377,22.6844751 82.9934399,22.6844751 C84.0532416,22.6844751 85.0101007,22.4195247 85.8640173,21.8896239 C86.7179339,21.359723 87.3575275,20.6121241 87.7827982,19.6468271 L87.7827982,19.6468271 L86.0513389,19.049423 C85.7475741,19.6704532 85.3290537,20.1463514 84.7957777,20.4771175 C84.2625018,20.8078837 83.6347212,20.9732667 82.912436,20.9732667 C81.8391337,20.9732667 81.0122184,20.6188744 80.4316901,19.9100899 C79.953608,19.326385 79.6723833,18.5458228 79.5880158,17.5684032 L79.5769794,17.4192186 L87.0335117,17.4192186 L87.9650571,17.4192186 Z M93.6009364,7.80028126 C93.7556315,7.80121881 93.987674,7.80450022 94.2970641,7.81012549 C94.6683322,7.81687582 95.0227245,7.84387714 95.3602409,7.89112944 C96.4875458,8.03963667 97.4309043,8.44971915 98.1903163,9.12137687 C98.9497282,9.79303459 99.5218186,10.6452636 99.9065874,11.6780639 C100.291356,12.7108642 100.48374,13.8482946 100.48374,15.0903551 C100.48374,16.3324156 100.291356,17.469846 99.9065874,18.5026464 C99.5218186,19.5354467 98.9497282,20.3876757 98.1903163,21.0593334 C97.4309043,21.7309911 96.4875458,22.1410736 95.3602409,22.2895808 C95.0227245,22.3300828 94.6666446,22.3553965 94.2920014,22.365522 C93.9641885,22.3743818 93.7255275,22.3793655 93.5760182,22.380473 L93.5760182,22.380473 L89.0216821,22.3807103 L89.0216821,7.8 Z M93.5174011,9.52133385 L90.8746474,9.52133385 L90.8746474,20.6593764 L93.5174011,20.6593764 C93.7739136,20.6593764 94.0608026,20.6509385 94.378068,20.6340627 C94.6953335,20.6171869 94.972097,20.588498 95.2083585,20.547996 C96.0048973,20.3994888 96.6495537,20.0653475 97.1423277,19.5455722 C97.6351017,19.0257968 97.9962443,18.3777653 98.2257555,17.6014775 C98.4552667,16.8251896 98.5700223,15.9881489 98.5700223,15.0903551 C98.5700223,14.1723104 98.4535791,13.3251441 98.2206927,12.5488563 C97.9878064,11.7725685 97.6249762,11.1279121 97.1322022,10.6148871 C96.6394282,10.1018621 95.998147,9.77447118 95.2083585,9.63271428 C94.972097,9.58546198 94.6919583,9.5550855 94.3679426,9.54158484 C94.0439268,9.52808418 93.760413,9.52133385 93.5174011,9.52133385 L93.5174011,9.52133385 Z M82.973189,12.7614917 C84.0127396,12.7614917 84.7957777,13.0939454 85.3223034,13.7588528 C85.7318233,14.276003 85.9882108,14.9983507 86.0914659,15.9258958 L86.0954146,15.971273 L79.6156945,15.971273 L79.6280885,15.8710182 C79.7355937,15.0949804 79.9721053,14.4569493 80.3376231,13.9569249 L80.4316901,13.834794 C81.0122184,13.1192591 81.8593847,12.7614917 82.973189,12.7614917 Z M102.006138,22.3807103 L105.904453,16.5281752 L109.802768,22.3807103 L112,22.3807103 L106.998006,14.9992257 L111.878494,7.8 L109.671137,7.8 L105.904453,13.4804017 L102.127644,7.8 L99.9304121,7.8 L104.8109,14.9992257 L99.7987806,22.3807103 L102.006138,22.3807103 Z" id="homeDX" fill="#1A1A1A" fill-rule="nonzero"></path>
        </g>
    </g>
</svg>