<svg width="451" height="812" xmlns="http://www.w3.org/2000/svg"><defs><linearGradient x1="65.356%" y1="0%" x2="34.644%" y2="100%" id="prefix__a"><stop stop-color="#AF2F70" offset="0%"/><stop stop-color="#800343" offset="51.023%"/><stop stop-color="#3D001F" offset="100%"/></linearGradient><linearGradient x1="87.927%" y1="0%" x2="12.073%" y2="100%" id="prefix__b"><stop stop-color="#FFF" stop-opacity=".2" offset="0%"/><stop stop-color="#FFF" stop-opacity=".6" offset="100%"/></linearGradient><linearGradient x1="87.927%" y1="0%" x2="12.073%" y2="100%" id="prefix__c"><stop stop-color="#FFF" stop-opacity=".6" offset="0%"/><stop stop-color="#FFF" stop-opacity=".2" offset="100%"/></linearGradient></defs><g fill="none" fill-rule="evenodd"><path d="M0 0h450v812H0z" fill="url(#prefix__a)" transform="translate(.5)"/><path d="M390.4 363.032c170.76 0 331.549-230.055 331.549-400.814 0-85.821-159.239 39.821-215.702-16.198-55.882-55.441-8.547-292.988-93.484-292.988-170.759 0-309.186 138.427-309.186 309.186S219.642 363.032 390.4 363.032z" fill-opacity=".3" fill="url(#prefix__b)" transform="rotate(-150 413.013 7.965)"/><path d="M326.022 263.42C444.211 263.42 555.5 104.188 555.5-14c0-59.4-110.216 27.562-149.296-11.211C367.526-63.584 400.288-228 341.5-228c-118.189 0-214 95.811-214 214s80.333 277.42 198.522 277.42z" fill-opacity=".3" fill="url(#prefix__c)" transform="translate(.5)"/></g></svg>