<svg width="211" height="221" viewBox="0 0 211 221" fill="none" xmlns="http://www.w3.org/2000/svg">
<rect opacity="0.2" x="30.967" width="180" height="180" rx="30" fill="url(#paint0_linear)"/>
<path fill-rule="evenodd" clip-rule="evenodd" d="M103.423 40.038C108.807 45.4224 108.807 54.152 103.423 59.5364L98.897 64.0616C93.5129 69.4459 84.7834 69.4459 79.3992 64.0616C74.0151 58.6772 74.0151 49.9476 79.3992 44.5641L83.9248 40.038C89.3089 34.6537 98.0384 34.6537 103.423 40.038ZM97.5014 53.6144C99.6154 51.5009 99.6154 48.0735 97.5014 45.9591C95.3874 43.8456 91.9599 43.8456 89.8459 45.9591L85.3204 50.4851C83.2064 52.5987 83.2064 56.0261 85.3204 58.1405C87.4344 60.254 90.8619 60.254 92.9759 58.1405L97.5014 53.6144Z" fill="white"/>
<path fill-rule="evenodd" clip-rule="evenodd" d="M83.5828 60.879C85.2182 62.5142 85.2182 65.1651 83.5828 66.8002L7.14748 142.465C5.51242 144.101 2.86136 144.101 1.2263 142.465C-0.408766 140.83 -0.408766 138.18 1.2263 136.544L77.6617 60.879C79.2971 59.2439 81.9482 59.2439 83.5828 60.879Z" fill="white"/>
<path fill-rule="evenodd" clip-rule="evenodd" d="M120.926 66.8397C129.102 58.6642 142.357 58.6643 150.532 66.8397L168.295 84.6032C176.471 92.7786 176.471 106.034 168.295 114.209L67.6358 214.869C59.4604 223.044 46.2054 223.044 38.03 214.869L20.2666 197.105C12.0912 188.93 12.0912 175.675 20.2666 167.5L120.926 66.8397ZM144.611 72.7608C139.705 67.8556 131.753 67.8556 126.847 72.7608L26.1877 173.421C21.2825 178.325 21.2825 186.279 26.1877 191.184L43.9512 208.947C48.8564 213.853 56.8094 213.853 61.7147 208.947L162.374 108.288C167.279 103.383 167.279 95.4296 162.374 90.5243L144.611 72.7608Z" fill="white"/>
<path fill-rule="evenodd" clip-rule="evenodd" d="M98.8523 115.297C104.647 109.502 114.042 109.502 119.838 115.297C125.632 121.092 125.632 130.488 119.838 136.282L89.709 166.411C83.9143 172.207 74.5181 172.206 68.7234 166.411C62.9285 160.616 62.9285 151.221 68.7234 145.426L98.8523 115.297ZM113.917 121.218C111.392 118.693 107.298 118.693 104.773 121.218L92.6691 133.322L101.812 142.465L113.917 130.361C116.441 127.836 116.441 123.743 113.917 121.218ZM95.8913 148.387L86.748 139.243L74.6445 151.347C72.1198 153.871 72.1198 157.965 74.6445 160.49C77.1692 163.015 81.2632 163.015 83.7879 160.49L95.8913 148.387Z" fill="white"/>
<path fill-rule="evenodd" clip-rule="evenodd" d="M138.69 96.4444C137.054 94.8092 134.404 94.8092 132.769 96.4444C131.133 98.0794 131.133 100.73 132.769 102.365C134.404 104.001 137.054 104.001 138.69 102.365C140.325 100.73 140.325 98.0794 138.69 96.4444ZM126.847 90.5232C131.753 85.6179 139.705 85.6179 144.611 90.5232C149.516 95.4285 149.516 103.381 144.611 108.287C139.705 113.192 131.753 113.192 126.847 108.287C121.942 103.381 121.942 95.4285 126.847 90.5232Z" fill="white"/>
<path fill-rule="evenodd" clip-rule="evenodd" d="M55.7932 179.342C54.1581 177.707 51.5072 177.707 49.872 179.342C48.237 180.977 48.237 183.628 49.872 185.263C51.5072 186.898 54.1581 186.898 55.7932 185.263C57.4283 183.628 57.4283 180.977 55.7932 179.342ZM43.9509 173.421C48.8561 168.515 56.8091 168.515 61.7144 173.421C66.6196 178.326 66.6196 186.279 61.7144 191.184C56.8091 196.089 48.8561 196.089 43.9509 191.184C39.0457 186.279 39.0457 178.326 43.9509 173.421Z" fill="white"/>
<defs>
<linearGradient id="paint0_linear" x1="120.967" y1="-90" x2="-59.033" y2="90" gradientUnits="userSpaceOnUse">
<stop stop-color="white" stop-opacity="0.2"/>
<stop offset="1" stop-color="white" stop-opacity="0.6"/>
</linearGradient>
</defs>
</svg>
