<?xml version="1.0" encoding="UTF-8"?>
<svg  viewBox="0 0 18 18" version="1.1" xmlns="http://www.w3.org/2000/svg" xmlns:xlink="http://www.w3.org/1999/xlink">
    <g id="App-|-NEU" stroke="none" stroke-width="1" fill="none" fill-rule="evenodd">
        <path d="M12.7398236,17.9977442 L5.25945327,17.9977442 C3.49884257,18.0631428 2.01391334,16.6986132 1.93055995,14.9387611 L1.93055995,10.9286657 C1.93055995,10.5737435 2.21828125,10.2860222 2.57320345,10.2860222 C2.92812565,10.2860222 3.21584695,10.5737435 3.21584695,10.9286657 L3.21584695,14.9387611 C3.29803027,15.9890408 4.20805906,16.7788771 5.25945327,16.7124572 L12.7398236,16.7124572 C13.7912178,16.7788771 14.7012466,15.9890408 14.7834299,14.9387611 L14.7834299,10.9286657 C14.7834299,10.5737435 15.0711512,10.2860222 15.4260734,10.2860222 C15.7809956,10.2860222 16.0687169,10.5737435 16.0687169,10.9286657 L16.0687169,14.9387611 C15.9853635,16.6986132 14.5004343,18.0631428 12.7398236,17.9977442 L12.7398236,17.9977442 Z M17.8102808,9.45701211 C17.9319413,9.33634512 18.0003737,9.1720881 18.0003737,9.00073522 C18.0003737,8.82938234 17.9319413,8.66512532 17.8102808,8.54445834 L9.45591531,0.19009287 C9.33524833,0.0684323257 9.17099131,0 8.99963843,0 C8.82828555,0 8.66402853,0.0684323257 8.54336154,0.19009287 L0.188996073,8.54445834 C-0.0629986911,8.7964531 -0.0629986911,9.20501734 0.188996073,9.45701211 C0.440990838,9.70900687 0.849555076,9.70900687 1.10154984,9.45701211 L8.99963843,1.55249708 L16.897727,9.45701211 C17.018394,9.57867265 17.182651,9.64710498 17.3540039,9.64710498 C17.5253568,9.64710498 17.6896138,9.57867265 17.8102808,9.45701211 Z" id="icon-home" fill="#000" fill-rule="nonzero"></path>
    </g>
</svg>