<svg width="40" height="40" viewBox="0 0 40 40" fill="none" xmlns="http://www.w3.org/2000/svg">
<g >
<circle cx="20" cy="20" r="20" fill="black" fill-opacity="0.6"/>
</g>
<path d="M11.0164 22.4C10.8332 22.4 10.6684 22.2736 10.6268 22.088C10.4764 21.4224 10.4004 20.72 10.4004 20C10.4004 14.7064 14.7068 10.4 20.0004 10.4C23.0404 10.4 25.9276 11.864 27.7228 14.316C27.8532 14.4944 27.8148 14.7448 27.6364 14.8752C27.458 15.0064 27.2076 14.9664 27.0772 14.7888C25.4324 12.5416 22.786 11.2 20.0004 11.2C15.1484 11.2 11.2004 15.148 11.2004 20C11.2004 20.6616 11.27 21.3048 11.4068 21.912C11.4556 22.128 11.3204 22.3416 11.1044 22.3904C11.0748 22.3968 11.0452 22.4 11.0164 22.4Z" fill="white"/>
<path d="M20.0008 29.6C16.9376 29.6 14.0376 28.1176 12.2448 25.6344C12.1152 25.4552 12.156 25.2048 12.3344 25.076C12.5144 24.9456 12.7632 24.9864 12.8928 25.1656C14.5368 27.4416 17.1936 28.8 20.0008 28.8C24.8528 28.8 28.8008 24.852 28.8008 20C28.8008 19.3296 28.7296 18.6872 28.588 18.0928C28.5368 17.8776 28.6696 17.6616 28.8848 17.6112C29.1016 17.5592 29.316 17.6928 29.3664 17.908C29.5216 18.5632 29.6008 19.2672 29.6008 20C29.6008 25.2936 25.2944 29.6 20.0008 29.6V29.6Z" fill="white"/>
<path d="M12.44 29.6C12.2208 29.6 12.0424 29.4232 12.04 29.204L12 25.204C11.9992 25.0976 12.0408 24.9944 12.116 24.9192C12.1912 24.8424 12.2936 24.8 12.4 24.8H16.4C16.6208 24.8 16.8 24.9792 16.8 25.2C16.8 25.4208 16.6208 25.6 16.4 25.6H12.804L12.84 29.196C12.8424 29.4168 12.6656 29.5976 12.444 29.6C12.4432 29.6 12.4416 29.6 12.44 29.6V29.6Z" fill="white"/>
<path d="M27.6002 15.2H23.6002C23.3794 15.2 23.2002 15.0208 23.2002 14.8C23.2002 14.5792 23.3794 14.4 23.6002 14.4H27.2002V10.8C27.2002 10.5792 27.3794 10.4 27.6002 10.4C27.821 10.4 28.0002 10.5792 28.0002 10.8V14.8C28.0002 15.0208 27.821 15.2 27.6002 15.2Z" fill="white"/>

</svg>
