<svg width="22" height="12" viewBox="0 0 22 12" fill="none" xmlns="http://www.w3.org/2000/svg">
<path fill-rule="evenodd" clip-rule="evenodd" d="M1 0C0.447715 0 0 0.447715 0 1C0 1.55228 0.447715 2 1 2H21C21.5523 2 22 1.55228 22 1C22 0.447715 21.5523 0 21 0H1Z" fill="url(#paint0_linear)"/>
<path fill-rule="evenodd" clip-rule="evenodd" d="M1 5C0.447715 5 0 5.44772 0 6C0 6.55228 0.447715 7 1 7H17C17.5523 7 18 6.55228 18 6C18 5.44772 17.5523 5 17 5H1Z" fill="url(#paint1_linear)"/>
<path fill-rule="evenodd" clip-rule="evenodd" d="M1 10C0.447715 10 0 10.4477 0 11C0 11.5523 0.447715 12 1 12H10C10.5523 12 11 11.5523 11 11C11 10.4477 10.5523 10 10 10H1Z" fill="url(#paint2_linear)"/>
<defs>
<linearGradient id="paint0_linear" x1="11" y1="-1" x2="10.6393" y2="2.96721" gradientUnits="userSpaceOnUse">
<stop stop-color="#AF2F70"/>
<stop offset="0.510232" stop-color="#800343"/>
<stop offset="1" stop-color="#3D001F"/>
</linearGradient>
<linearGradient id="paint1_linear" x1="9" y1="4" x2="8.56098" y2="7.95122" gradientUnits="userSpaceOnUse">
<stop stop-color="#AF2F70"/>
<stop offset="0.510232" stop-color="#800343"/>
<stop offset="1" stop-color="#3D001F"/>
</linearGradient>
<linearGradient id="paint2_linear" x1="5.5" y1="9" x2="4.796" y2="12.872" gradientUnits="userSpaceOnUse">
<stop stop-color="#AF2F70"/>
<stop offset="0.510232" stop-color="#800343"/>
<stop offset="1" stop-color="#3D001F"/>
</linearGradient>
</defs>
</svg>
