<?xml version="1.0" encoding="UTF-8"?>
<svg  viewBox="0 0 102 122" version="1.1" xmlns="http://www.w3.org/2000/svg" xmlns:xlink="http://www.w3.org/1999/xlink">
    <title>04_icon_kassette</title>
    <defs>
        <linearGradient x1="100%" y1="0%" x2="0%" y2="100%" id="linearGradient-1">
            <stop stop-color="#FFFFFF" stop-opacity="0.2" offset="0%"></stop>
            <stop stop-color="#FFFFFF" stop-opacity="0.6" offset="100%"></stop>
        </linearGradient>
        <path d="M44.7616246,45.7319956 C45.688931,45.7319956 46.4432685,44.9776581 46.4432685,44.0503517 L46.4432685,44.0503517 L46.4432685,41.3912722 L78.5179834,41.3912722 C82.0832286,41.3912722 85,44.3082037 85,47.8734489 L85,47.8734489 L85,64.0917034 C85,67.6569486 82.0829085,70.5738801 78.5178233,70.5738801 L78.5178233,70.5738801 L14.0927638,70.5737198 C7.40062187,63.6855462 3.21525042,54.3500202 3.00944924,44.0365783 C4.19268592,42.4350125 6.09230292,41.3911121 8.22462739,41.3911121 L8.22462739,41.3911121 L18.806652,41.3911121 L18.806652,44.0501914 C18.806652,44.9774981 19.5609894,45.7318355 20.4882959,45.7318355 L20.4882959,45.7318355 Z" id="path-2"></path>
        <filter x="-19.5%" y="-48.0%" width="139.0%" height="209.7%" filterUnits="objectBoundingBox" id="filter-3">
            <feOffset dx="0" dy="2" in="SourceAlpha" result="shadowOffsetOuter1"></feOffset>
            <feGaussianBlur stdDeviation="5" in="shadowOffsetOuter1" result="shadowBlurOuter1"></feGaussianBlur>
            <feColorMatrix values="0 0 0 0 0   0 0 0 0 0   0 0 0 0 0  0 0 0 0.2 0" type="matrix" in="shadowBlurOuter1"></feColorMatrix>
        </filter>
    </defs>
    <g id="App-|-Design" stroke="none" stroke-width="1" fill="none" fill-rule="evenodd">
        <g id="Schnelltest_Onboarding" transform="translate(-212.000000, -458.000000)">
            <g id="04_icon_kassette" transform="translate(216.000000, 458.000000)">
                <rect id="Rectangle-Copy" fill="url(#linearGradient-1)" opacity="0.4" x="0" y="19" width="94" height="94" rx="8"></rect>
                <g id="icon_kassette" transform="translate(3.000000, 0.000000)" fill-rule="nonzero">
                    <path d="M42.2386783,4 C39.7682633,4 37.3521413,4.23078561 35.0084103,4.6673724 L21.6033059,9.86092942 C10.4383114,16.7782515 3,29.1389748 3,43.2386783 C3,43.5061397 3.0048047,43.7723199 3.01008986,44.0385002 L14.0927638,70.5738801 L14.0918029,70.5740401 C21.2221332,77.914656 31.1968441,82.4775166 42.2386783,82.4775166 C63.909623,82.4775166 81.4773563,64.909783 81.4773563,43.2388383 C81.4773563,21.5678937 63.909623,4 42.2386783,4 Z" id="Path" fill="#E8E8E8"></path>
                    <g id="Combined-Shape">
                        <use fill="black" fill-opacity="1" filter="url(#filter-3)" xlink:href="#path-2"></use>
                        <use fill="#FFFFFF" xlink:href="#path-2"></use>
                    </g>
                    <path d="M28.2960884,41.3912722 C27.9829824,41.7404135 27.3518054,42.5764308 27.3284225,43.6619721 C27.3109655,44.474126 27.6375246,45.2504049 28.2980103,45.9722304 L44.7616246,45.9722304 C45.8186578,45.9722304 46.6835034,45.1073849 46.6835034,44.0503517 L46.6835034,41.3912722 L28.2960884,41.3912722 Z" id="Path" fill="#AF2F70"></path>
                    <path d="M28.6296946,41.3912722 L18.5665773,41.3912722 L18.5665773,44.0503517 C18.5665773,45.1073849 19.4314227,45.9722304 20.488456,45.9722304 L28.6296946,45.9722304 C26.2409595,43.5834953 28.6296946,41.3912722 28.6296946,41.3912722 L28.6296946,41.3912722 Z" id="Path" fill="#800343"></path>
                    <path d="M31.396079,11.4227762 C32.4531121,12.4799697 34.8134996,15.0195723 37.4030712,17.8386481 L44.5417297,17.8386481 C45.9141111,17.8386481 47.1607698,17.2740962 48.0618108,16.3663288 L35.0085703,4.66753255 C33.2015238,5.00418165 31.43804,5.46495208 29.7274076,6.04007429 C29.4922979,7.43295591 29.5509152,9.57761246 31.396079,11.4227762 L31.396079,11.4227762 Z" id="Path" fill="#9BD8F9"></path>
                    <path d="M31.5658449,11.2528501 C29.7275679,9.41457307 29.7254857,7.28673298 29.9775721,5.95871476 C27.0149961,6.93246666 24.2072914,8.24751219 21.6031457,9.86092942 L28.3670378,17.4079871 C28.9833202,17.684097 29.6646262,17.838488 30.3806863,17.838488 L37.7289898,17.838488 C35.0857659,14.9595136 32.6473821,12.3343874 31.5658449,11.2528501 Z" id="Path" fill="#73C3F9"></path>
                    <path d="M44.5044132,25.6216164 C45.2464184,26.4392156 46.262772,26.8990252 47.3664109,26.9163221 C48.4711708,26.9329784 49.5014581,26.5060009 50.2690883,25.7119447 L54.0856192,21.7648863 L47.889322,16.2116176 C47.0047774,17.0218496 45.8284274,17.5181748 44.5417297,17.5181748 L37.1087033,17.5181748 C39.656634,20.289524 42.4697841,23.3803855 44.5044132,25.6216164 Z" id="Path" fill="#73C3F9"></path>
                    <path d="M57.5478838,24.8679197 L53.9065642,21.6045695 L50.0965998,25.5450616 C48.6060226,27.0865686 46.123596,27.048131 44.6823471,25.460499 C42.7199486,23.2987057 39.962533,20.2687036 37.4351024,17.5184951 L30.3808464,17.5184951 C29.4490555,17.5184951 28.5752413,17.2580806 27.8279508,16.8067594 L45.6849272,36.7308764 L57.5478838,24.8679197 Z" id="Path" fill="#49B1F7"></path>
                    <g id="Group-15-Copy" transform="translate(0.000000, 0.000000)">
                        <path d="M20.0055555,2.72063964 C16.6416627,2.72063964 13.5029727,3.68294204 10.8478802,5.34597831 L10.8535664,5.34716847 C10.7984229,5.63597819 10.7561064,6.1596442 11.0363206,6.59431342 C11.246316,6.92028228 11.5905337,7.12961644 12.061701,7.21834874 C12.0242774,7.4746277 12.0144917,7.90215603 12.2654811,8.24187774 C12.4831464,8.53663822 12.8404557,8.69664728 13.3286817,8.71886341 L14.0853527,10.1359353 C13.9786359,10.6154336 13.5000634,13.1557426 14.810154,15.1263665 C15.5858673,16.2932426 16.8380374,17.0243914 18.5324142,17.3002416 L21.7577208,22.5096604 C21.5556597,23.0222184 20.7278443,25.3873108 21.7585142,27.423922 C22.4201054,28.7312356 23.7089056,29.6188231 25.5900038,30.0627491 L26.4445314,31.4513897 C26.3958676,31.6746088 26.3091188,32.2649233 26.6284757,32.6920549 C26.8118911,32.9372257 27.0898573,33.0833497 27.4572168,33.1280466 C27.3963869,33.4206912 27.3539383,33.9151324 27.6144489,34.332346 C27.819287,34.6604307 28.1665462,34.8710872 28.6453832,34.9632579 C33.8090475,31.9757169 37.2833598,26.3928553 37.2833598,19.9981794 C37.2833598,10.4560857 29.5476492,2.72063964 20.0055555,2.72063964 Z" id="Path" fill="#FFC839"></path>
                        <path d="M28.9151506,34.8036454 C27.0881381,34.6224782 27.7123057,32.9442345 27.7123057,32.9442345 C26.2068982,32.9442345 26.6569072,31.4180654 26.6569072,31.4180654 L25.7154986,29.8880615 C19.3866775,28.4503602 21.9796177,22.4912791 21.9796177,22.4912791 L18.6534128,17.1184132 C12.7558228,16.2230237 14.2956126,10.1082974 14.2956126,10.1082974 L13.4492837,8.52314986 C11.8466805,8.52314986 12.2988052,7.05225669 12.2988052,7.05225669 C10.5404247,6.86844465 11.0939768,5.19839971 11.0956958,5.19297792 C6.08159386,8.21701683 2.72814793,13.7157743 2.72814793,19.9981794 C2.72814793,29.5402733 10.4635939,37.2757193 20.0056877,37.2757193 C23.2651119,37.2757193 26.313615,36.3726598 28.9151506,34.8036454 L28.9151506,34.8036454 Z" id="Path" fill="#FFB332"></path>
                        <circle id="Oval" fill="#FFFFFF" transform="translate(20.000000, 20.000000) rotate(-45.000000) translate(-20.000000, -20.000000) " cx="20" cy="20" r="14.1421356"></circle>
                        <path d="M20.0055555,5.85390788 L20.0055555,19.9983117 L34.1498271,19.9983117 C34.1498271,12.198862 27.8047407,5.85390788 20.0055555,5.85390788 Z" id="Path" fill="#800343"></path>
                        <path d="M21.4582805,16.6827658 L18.714588,16.6827658 C18.2033525,16.6827658 17.7889157,16.268329 17.7889157,15.7570935 C17.7889157,15.245858 18.2033525,14.8314213 18.714588,14.8314213 L21.4584126,14.8314213 C21.9696483,14.8314213 22.3840849,15.245858 22.3840849,15.7570935 C22.3839527,16.268329 21.9695161,16.6827658 21.4582805,16.6827658 Z" id="Path" fill="#AAAAAA" transform="translate(20.086500, 15.757094) rotate(90.000000) translate(-20.086500, -15.757094) "></path>
                        <path d="M29.2215481,20.9238516 L22.433197,20.9238516 C21.9219614,20.9238516 21.5075248,20.509415 21.5075248,19.9981794 C21.5075248,19.4869439 21.9219614,19.0725073 22.433197,19.0725073 L29.2215481,19.0725073 C29.7327837,19.0725073 30.1472203,19.4869439 30.1472203,19.9981794 C30.1472203,20.509415 29.7327837,20.9238516 29.2215481,20.9238516 Z" id="Path" fill="#AAAAAA"></path>
                        <path d="M20.0054233,8.57829353 C19.4941877,8.57829353 19.079751,8.16385685 19.079751,7.65262131 L19.079751,6.11838572 C19.079751,5.60715017 19.4941877,5.19271349 20.0054233,5.19271349 C20.5166588,5.19271349 20.9310955,5.60715017 20.9310955,6.11838572 L20.9310955,7.65262131 C20.9310955,8.16385685 20.5166588,8.57829353 20.0054233,8.57829353 L20.0054233,8.57829353 Z" id="Path" fill="#AF2F70"></path>
                        <path d="M20.0054233,34.8037778 C19.4941877,34.8037778 19.079751,34.3893411 19.079751,33.8781055 L19.079751,32.3437376 C19.079751,31.8325022 19.4941877,31.4180655 20.0054233,31.4180655 C20.5166588,31.4180655 20.9310955,31.8325022 20.9310955,32.3437376 L20.9310955,33.8781055 C20.9310955,34.3893411 20.5166588,34.8037778 20.0054233,34.8037778 L20.0054233,34.8037778 Z" id="Path" fill="#AAAAAA"></path>
                        <path d="M13.8334376,10.2323376 C13.5135517,10.2323376 13.2023936,10.0663777 13.0308798,9.7693692 L12.263762,8.44063284 C12.0081442,7.99776481 12.1598222,7.43178236 12.602558,7.17616458 C13.0454261,6.92107577 13.6114085,7.07222482 13.8670263,7.51496063 L14.6341441,8.84369699 C14.8897619,9.28656502 14.7380838,9.85254746 14.295348,10.1081652 C14.149753,10.1922692 13.9905374,10.2323376 13.8334376,10.2323376 L13.8334376,10.2323376 Z" id="Path" fill="#AAAAAA"></path>
                        <path d="M26.9462459,32.9442345 C26.62636,32.9442345 26.3152019,32.7782746 26.143688,32.4812662 L25.3765702,31.1525298 C25.1209524,30.7096617 25.2726304,30.1436794 25.7153662,29.8880615 C26.1583665,29.6328404 26.724349,29.7841218 26.9798345,30.2268575 L27.7469522,31.5555939 C28.0025701,31.998462 27.8508921,32.5644443 27.4081563,32.8200622 C27.262429,32.9042984 27.1032134,32.9442345 26.9462459,32.9442345 Z" id="Path" fill="#AAAAAA"></path>
                        <path d="M9.31298342,14.7510726 C9.15588363,14.7510726 8.99680023,14.7111365 8.85094075,14.6270326 L7.5222044,13.8599147 C7.07946858,13.6041647 6.92779059,13.0381823 7.18340835,12.5954465 C7.43915836,12.1527107 8.00540529,12.0010327 8.44787661,12.2566505 L9.77661297,13.0237683 C10.2193488,13.2795183 10.3710268,13.8455007 10.115409,14.2882365 C9.9440274,14.5849806 9.63286929,14.7510726 9.31298342,14.7510726 Z" id="Path" fill="#AAAAAA"></path>
                        <path d="M32.0248804,27.8638809 C31.8677806,27.8638809 31.7086971,27.8238125 31.5628377,27.7397085 L30.2342336,26.9725908 C29.7914977,26.7168407 29.6398198,26.1507261 29.8954376,25.7081225 C30.1511875,25.2652545 30.71717,25.1139732 31.1599057,25.3693264 L32.4885099,26.1364442 C32.9312457,26.3921943 33.0829237,26.958309 32.827306,27.4009126 C32.6559243,27.697921 32.3447662,27.8638809 32.0248804,27.8638809 Z" id="Path" fill="#AAAAAA"></path>
                        <path d="M7.65986508,20.9238517 L6.12562948,20.9238517 C5.61439394,20.9238517 5.19995726,20.509415 5.19995726,19.9981795 C5.19995726,19.486944 5.61439394,19.0725073 6.12562948,19.0725073 L7.65986508,19.0725073 C8.17110061,19.0725073 8.58553729,19.486944 8.58553729,19.9981795 C8.58553729,20.509415 8.17110061,20.9238517 7.65986508,20.9238517 Z" id="Path" fill="#AAAAAA"></path>
                        <path d="M33.8853493,20.9238517 L32.3511137,20.9238517 C31.8398781,20.9238517 31.4254415,20.509415 31.4254415,19.9981795 C31.4254415,19.486944 31.8398781,19.0725073 32.3511137,19.0725073 L33.8853493,19.0725073 C34.3965849,19.0725073 34.8110215,19.486944 34.8110215,19.9981795 C34.8110215,20.509415 34.3965849,20.9238517 33.8853493,20.9238517 Z" id="Path" fill="#AF2F70"></path>
                        <path d="M7.98596618,27.8638809 C7.66608031,27.8638809 7.35492219,27.697921 7.18340835,27.4009126 C6.92779059,26.9580445 7.07946858,26.392062 7.5222044,26.1364442 L8.85094075,25.3693264 C9.29394102,25.1142377 9.85979122,25.2655188 10.115409,25.7081225 C10.3710268,26.1509906 10.2193488,26.7169729 9.77661297,26.9725908 L8.44787661,27.7397085 C8.30214935,27.8239447 8.14306597,27.8638809 7.98596618,27.8638809 L7.98596618,27.8638809 Z" id="Path" fill="#AAAAAA"></path>
                        <path d="M30.6979953,14.7510726 C30.3781095,14.7510726 30.0669514,14.5851128 29.8955697,14.2881043 C29.639952,13.8453685 29.79163,13.2792538 30.2343658,13.023636 L31.56297,12.2565182 C32.0058379,12.0011649 32.5718204,12.1525785 32.8274382,12.5953143 C33.0830559,13.0380501 32.9313779,13.6041648 32.4886421,13.8597825 L31.1600381,14.6269003 C31.0141786,14.7110042 30.854963,14.7510726 30.6979953,14.7510726 L30.6979953,14.7510726 Z" id="Path" fill="#AF2F70"></path>
                        <path d="M13.0647329,32.9442345 C12.9076331,32.9442345 12.7485498,32.9042984 12.6026903,32.8201944 C12.1599545,32.5644443 12.0082765,31.998462 12.2638942,31.5557262 L13.031012,30.2269899 C13.286762,29.7841218 13.8528767,29.6324437 14.2954803,29.8881938 C14.7382161,30.1439437 14.8898941,30.7099262 14.6342763,31.152662 L13.8671585,32.4813983 C13.6957769,32.7781425 13.3846188,32.9442345 13.0647329,32.9442345 Z" id="Path" fill="#AAAAAA"></path>
                        <path d="M26.1775412,10.2323376 C26.0204413,10.2323376 25.861358,10.1924014 25.7154986,10.1082975 C25.2727626,9.85254746 25.1210848,9.28656502 25.3767025,8.84382922 L26.1438202,7.51509287 C26.3995702,7.07235706 26.9658172,6.92067906 27.4082885,7.17629684 C27.8510243,7.43204683 28.0027023,7.99802929 27.7470846,8.44076508 L26.9799667,9.76950144 C26.8084529,10.0662455 26.4972947,10.2323376 26.1775412,10.2323376 Z" id="Path" fill="#AF2F70"></path>
                        <path d="M20.0054233,4.92823567 C17.0818858,4.92823567 14.3506239,5.76596903 12.0375012,7.21266246 C12.0457001,7.21424933 12.0533699,7.21662963 12.061701,7.2182165 C12.0242774,7.47449547 12.0144917,7.90202379 12.2654811,8.24174551 C12.4548472,8.49815671 12.7501366,8.65247949 13.1452665,8.70286251 C15.1464375,7.48295876 17.4952646,6.77958011 20.0055555,6.77958011 C27.2942986,6.77958011 33.2241549,12.7094364 33.2241549,19.9981794 C33.2241549,24.9584602 30.4774209,29.2884903 26.4256213,31.5493787 C26.3806601,31.8172947 26.3482615,32.3174221 26.6283435,32.6919227 C26.8034279,32.9259855 27.0657898,33.0686712 27.4086852,33.1201121 C31.982035,30.5296845 35.0753671,25.6185967 35.0753671,19.9980472 C35.0753671,11.6885521 28.3150506,4.92823567 20.0054233,4.92823567 L20.0054233,4.92823567 Z" id="Path" fill="#FEE77F"></path>
                        <path d="M26.6569072,31.4180654 L26.6566427,31.4176687 C24.7016229,32.5607417 22.4289654,33.2169111 20.0055555,33.2169111 C12.7168123,33.2169111 6.7869561,27.2870548 6.7869561,19.9981794 C6.7869561,15.0935713 9.47206676,10.8045352 13.4492837,8.52314986 L13.4492837,8.52301762 C11.8562016,8.52301762 12.2933836,7.07010895 12.2985407,7.05291789 C7.89260551,9.6859264 4.93561174,14.5028602 4.93561174,19.9980472 C4.93561174,28.3076745 11.6960605,35.0681233 20.0055555,35.0681233 C22.8193345,35.0681233 25.4549878,34.2921455 27.7111155,32.9441021 C26.2071627,32.9433088 26.6569072,31.4180654 26.6569072,31.4180654 Z" id="Path" fill="#FFC839"></path>
                        <path d="M20.5084509,23.1436118 C22.2430822,22.8624152 23.421324,21.2282638 23.1401275,19.4936323 C22.8589309,17.7590008 21.2247793,16.580759 19.490148,16.8619557 C17.7555165,17.1431523 16.5772748,18.7773037 16.8584714,20.5119352 C17.1396678,22.2465667 18.7738194,23.4248084 20.5084509,23.1436118 Z" id="Oval" fill="#DADADA"></path>
                        <circle id="Oval" fill="#AAAAAA" transform="translate(20.001383, 19.985690) rotate(-13.299584) translate(-20.001383, -19.985690) " cx="20.0013833" cy="19.9856897" r="1.59080314"></circle>
                        <path d="M24.3158821,6.57156833 C24.1733286,7.03427221 24.4122842,7.52633312 24.8622931,7.70472338 C28.4094692,9.11108397 31.2083052,12.0098926 32.4792531,15.6226591 C32.6235259,16.0328641 33.037169,16.2842503 33.4684,16.2285777 C34.0481353,16.1537305 34.4209167,15.5647385 34.2270546,15.01317 C32.7782453,10.8918128 29.5858663,7.5847827 25.539224,5.9815184 C25.0385676,5.78329232 24.4745687,6.05689458 24.3158821,6.57156833 L24.3158821,6.57156833 Z" id="Path" fill="#FCF2C8"></path>
                    </g>
                    <path d="M43.9246463,52.0794806 L28.2957682,52.0794806 C28.0974944,52.3096256 27.801525,52.742849 27.7808647,53.2984322 C27.7621266,53.7986012 27.9668066,54.2795514 28.38962,54.729271 L28.38962,56.7703063 C28.2081626,56.9524042 27.8028062,57.4287098 27.7746186,58.0770236 C27.7542789,58.5450011 27.9317324,58.9977637 28.3020144,59.4263426 L43.9246463,59.4263426 C45.9533495,59.4263426 47.5979972,57.7816949 47.5979972,55.7529917 C47.5979972,53.7241283 45.9533495,52.0794806 43.9246463,52.0794806 L43.9246463,52.0794806 Z" id="Path" fill="#E8E8E8"></path>
                    <path d="M28.6296946,52.0794806 L22.2399282,52.0794806 C20.211225,52.0794806 18.5665773,53.7241283 18.5665773,55.7528315 C18.5665773,57.7815348 20.211225,59.4261825 22.2399282,59.4261825 L28.6296946,59.4261825 C27.2424184,58.0389063 28.6296946,56.8739274 28.6296946,56.8739274 L28.6296946,54.6317357 C27.2574732,53.2596744 28.6296946,52.0794806 28.6296946,52.0794806 Z" id="Path" fill="#E8E8E8"></path>
                    <path d="M41.0900354,56.8740877 L35.7515366,56.8740877 C35.1323713,56.8740877 34.6304407,56.3721571 34.6304407,55.7529917 C34.6304407,55.1338264 35.1323713,54.6318958 35.7515366,54.6318958 L41.0900354,54.6318958 C41.7092005,54.6318958 42.2111314,55.1338264 42.2111314,55.7529917 C42.2111314,56.3721571 41.7093608,56.8740877 41.0900354,56.8740877 Z" id="Path" fill="#AF2F70"></path>
                    <path d="M35.7515366,56.8740877 L30.4128778,56.8740877 C29.7937125,56.8740877 29.2917818,56.3721571 29.2917818,55.7529917 C29.2917818,55.1338264 29.7937125,54.6318958 30.4128778,54.6318958 L35.7515366,54.6318958 C36.370702,54.6318958 36.8726326,55.1338264 36.8726326,55.7529917 C36.8726326,56.3721571 36.370702,56.8740877 35.7515366,56.8740877 Z" id="Path" fill="#AF2F70"></path>
                    <path d="M30.4128778,56.8740877 L25.074379,56.8740877 C24.4552137,56.8740877 23.9532831,56.3721571 23.9532831,55.7529917 C23.9532831,55.1338264 24.4552137,54.6318958 25.074379,54.6318958 L30.4128778,54.6318958 C31.0320431,54.6318958 31.5339737,55.1338264 31.5339737,55.7529917 C31.5339737,56.3721571 31.0320431,56.8740877 30.4128778,56.8740877 Z" id="Path" fill="#AF2F70"></path>
                    <path d="M62.3799675,29.9650624 L56.619296,35.725894 L56.9734022,35.6932221 C56.9734022,35.6932221 56.4245458,37.9459843 58.923949,38.2635746 C59.8733572,38.3841727 60.1935101,39.4018074 60.2263422,40.6167551 C60.4446357,40.4377001 60.6570033,40.2477543 60.8608826,40.0438751 C63.5894698,37.3151275 64.0954045,33.2061509 62.3799675,29.9650624 L62.3799675,29.9650624 Z" id="Path" fill="#9BD8F9"></path>
                    <path d="M60.2295453,40.6138724 C60.2277837,39.3628894 59.9383808,38.2818326 58.9766407,38.1596332 C56.578136,37.8548553 57.1048908,35.6932221 57.1048908,35.6932221 L56.6058429,35.739187 L50.7820699,41.56296 C53.7822828,43.1509124 57.5253019,42.8338025 60.2295453,40.6138724 Z" id="Path" fill="#49B1F7"></path>
                    <path d="M63.0787307,27.4251395 L60.0820413,24.4282898 C59.4484618,23.7948706 58.4213779,23.7948706 57.7879587,24.4282898 L51.6746225,30.541626 C51.4214149,31.3015689 51.5964661,32.1726606 52.2013773,32.7775718 L54.7296088,35.3058033 C55.3345202,35.9107147 56.2056117,36.0857659 56.9655546,35.8325583 L63.0788908,29.7192221 C63.7121499,29.0858029 63.7121499,28.0585587 63.0787307,27.4251395 Z" id="Path" fill="#FFFFFF"></path>
                    <path d="M54.7683667,35.2255649 L52.2814556,32.7386538 C51.649798,32.1069962 51.494126,31.1798499 51.8139587,30.4021297 L45.2454576,36.9706308 C44.6118781,37.6042101 44.6118781,38.6312942 45.2454576,39.2648735 L48.242147,42.2615629 C48.8757263,42.8951424 49.9028104,42.8951424 50.5363897,42.2615629 L57.1048908,35.693062 C56.3271706,36.0128946 55.4000243,35.8573825 54.7683667,35.2255649 L54.7683667,35.2255649 Z" id="Path" fill="#FFFFFF"></path>
                    <path d="M68.6100578,48.7056226 L60.7511752,48.7056226 C56.7386127,48.7056226 53.4743018,51.9699335 53.4743018,55.9823359 C53.4743018,59.9947383 56.738773,63.2592095 60.7511752,63.2592095 L68.6100578,63.2592095 C72.6226204,63.2592095 75.8870916,59.9947383 75.8870916,55.9823359 C75.8870916,51.9699335 72.6226204,48.7056226 68.6100578,48.7056226 Z" id="Path" fill="#E8E8E8"></path>
                    <path d="M68.6100578,63.2593696 C72.6226204,63.2593696 75.8869314,59.9948984 75.8869314,55.982496 C75.8869314,51.9699335 72.6224602,48.7057826 68.6100578,48.7057826 L65.0385664,48.7057826 L65.0385664,52.3935477 L70.1635766,55.7529917 L68.6100578,59.6560071 C68.6100578,59.6558471 66.3939715,61.0432833 68.6100578,63.2593696 L68.6100578,63.2593696 Z" id="Path" fill="#E8E8E8"></path>
                    <path d="M68.6100578,52.3091451 L60.7510151,52.3091451 C58.7306401,52.3091451 57.0776643,53.9621209 57.0776643,55.982496 C57.0776643,58.002871 58.7306401,59.6558471 60.7510151,59.6558471 L68.6100578,59.6558471 C70.6304328,59.6558471 72.2834088,58.002871 72.2834088,55.982496 C72.2835689,53.9621209 70.6304328,52.3091451 68.6100578,52.3091451 L68.6100578,52.3091451 Z" id="Path" fill="#AF2F70"></path>
                    <path d="M68.6100578,52.3091451 L63.9696817,52.3091451 C65.9900565,52.3091451 67.6430325,53.9621209 67.6430325,55.982496 C67.6430325,58.002871 65.9900565,59.6558471 63.9696817,59.6558471 L68.6100578,59.6558471 C70.6304328,59.6558471 72.2834088,58.002871 72.2834088,55.982496 C72.2835689,53.9621209 70.6304328,52.3091451 68.6100578,52.3091451 Z" id="Path" fill="#800343"></path>
                    <path d="M67.6265364,50.1396643 C66.4695655,48.4814034 65.4375164,47.3191471 64.9443945,45.626933 C64.867359,45.3625143 64.4940342,45.3625143 64.4168387,45.626933 C63.9237166,47.3193072 62.8916677,48.4815635 61.7346967,50.1396643 C60.0834826,52.5062979 61.7824235,55.7529917 64.6682846,55.7529917 L64.6806166,55.7529917 L64.6929486,55.7529917 C67.5788097,55.7528315 69.2777506,52.5062979 67.6265364,50.1396643 Z" id="Path" fill="#73C3F9"></path>
                    <path d="M66.0805451,42.1473714 L62.0928068,38.1596332 C61.2322857,37.2991118 59.8370017,37.2991118 58.9764804,38.1596332 C58.1159592,39.0201543 58.1159592,40.4154383 58.9764804,41.2759596 L62.9642187,45.2636979 C63.8247398,46.124219 65.220024,46.124219 66.0805451,45.2636979 C66.9410662,44.4030165 66.9410662,43.0078926 66.0805451,42.1473714 L66.0805451,42.1473714 Z" id="Path" fill="#73C3F9"></path>
                    <circle id="Oval" fill="#9BD8F9" transform="translate(65.843400, 52.421570) rotate(-76.700416) translate(-65.843400, -52.421570) " cx="65.8434001" cy="52.4215697" r="1.80238783"></circle>
                </g>
                <g id="Group-Copy-8" transform="translate(32.000000, 92.000000)">
                    <rect id="Rectangle-Copy-2" fill="#FFFFFF" x="0" y="0" width="30" height="30" rx="6"></rect>
                    <polygon id="4" fill="#800343" fill-rule="nonzero" points="18.7377778 23 18.7377778 20.35 20.2377778 20.35 20.2377778 18.66 18.7377778 18.66 18.7377778 14.61 16.9377778 14.61 16.9377778 18.66 12.3377778 18.66 17.0877778 8.6 15.0677778 8.6 10.3177778 18.66 10.3177778 20.35 16.9377778 20.35 16.9377778 23"></polygon>
                </g>
            </g>
        </g>
    </g>
</svg>