<?xml version="1.0" encoding="UTF-8"?>
<svg width="92px" height="92px" viewBox="0 0 92 92" version="1.1" xmlns="http://www.w3.org/2000/svg" xmlns:xlink="http://www.w3.org/1999/xlink">
    <title>icon_tropfkappe</title>
    <defs>
        <linearGradient x1="100%" y1="0%" x2="0%" y2="100%" id="linearGradient-1">
            <stop stop-color="#FFFFFF" stop-opacity="0.6" offset="0%"></stop>
            <stop stop-color="#FFFFFF" stop-opacity="0.2" offset="100%"></stop>
        </linearGradient>
    </defs>
    <g id="App-|-Design" stroke="none" stroke-width="1" fill="none" fill-rule="evenodd">
        <g id="Schnelltestest_Vollständigkeit" transform="translate(-228.000000, -485.000000)">
            <g id="Group-4" transform="translate(20.000000, 314.000000)">
                <g id="icon_tropfkappe" transform="translate(209.000000, 172.000000)">
                    <rect id="Rectangle-Copy" stroke="url(#linearGradient-1)" opacity="0.4" x="0" y="0" width="90" height="90" rx="8"></rect>
                    <g id="04_icon_kassette_big" transform="translate(15.000000, 10.000000)" fill-rule="nonzero">
                        <g id="Kassette-befuellen-01">
                            <path d="M20.2471928,21.6154788 L29.3572166,21.6154788 C31.1085859,21.6154788 32.6995138,20.895024 33.8493812,19.7365735 L14.1141794,1.77635684e-15 L0,11.2966789 C6.81775777,11.147646 11.0115407,11.8580335 12.5813488,13.4278416 C13.9302854,14.7769827 16.942502,18.0179054 20.2471928,21.6154788 Z" id="Path" fill="#9BD8F9"></path>
                            <path d="M12.7979962,13.2109898 C10.4520726,10.8650662 8.34766656,6.05565527 8.66936754,4.36090021 L0,11.2966789 L8.71582746,21.0658893 C9.50229835,21.4182479 10.3717494,21.6152744 11.285552,21.6152744 L20.663115,21.6152744 C17.2899556,17.9412613 14.1782037,14.5911974 12.7979962,13.2109898 Z" id="Path" fill="#73C3F9"></path>
                            <path d="M29.3095951,31.5477408 C30.2565076,32.5911229 31.5535307,33.1779104 32.9619434,33.1999839 C34.3717866,33.22124 35.6865912,32.6763512 36.6662052,31.6630136 L41.5366844,26.6259612 L33.6292582,19.5391382 C32.5004435,20.5731186 30.9992403,21.2065057 29.3572166,21.2065057 L19.8715342,21.2065057 C23.1230848,24.7431726 26.713096,28.6875862 29.3095951,31.5477408 Z" id="Path" fill="#73C3F9"></path>
                            <path d="M45.9550654,30.5859081 L41.3081827,26.4213725 L36.4460834,31.4500451 C34.5438781,33.4172446 31.3759208,33.3681923 29.536666,31.3421302 C27.0323444,28.5833502 23.5134589,24.7166026 20.2880695,21.2069145 L11.2857563,21.2069145 C10.096648,21.2069145 8.98152707,20.8745855 8.02786967,20.2986304 L30.8161121,45.7248614 L45.9550654,30.5859081 Z" id="Path" fill="#49B1F7"></path>
                            <path d="M52.1215457,37.0906445 L44.7700448,44.4423497 L45.2219387,44.4006553 C45.2219387,44.4006553 44.5215137,47.2755257 47.7111357,47.6808197 C48.9227262,47.8347213 49.3312905,49.1333794 49.3731894,50.6838391 C49.6517653,50.4553374 49.922779,50.2129375 50.1829602,49.9527563 C53.6650563,46.4704556 54.3107067,41.2267708 52.1215457,37.0906445 L52.1215457,37.0906445 Z" id="Path" fill="#9BD8F9"></path>
                            <path d="M49.377277,50.6801603 C49.3750289,49.083714 49.0057064,47.7041196 47.7783784,47.5481744 C44.7175183,47.159231 45.3897383,44.4006553 45.3897383,44.4006553 L44.7528766,44.4593136 L37.3208485,51.8913418 C41.1495805,53.9178127 45.9262473,53.5131318 49.377277,50.6801603 Z" id="Path" fill="#49B1F7"></path>
                            <path d="M53.0132748,33.8493131 L49.1890392,30.0248729 C48.3804946,29.2165328 47.0697778,29.2165328 46.2614377,30.0248729 L38.4598825,37.8264281 C38.1367508,38.7962318 38.360143,39.9078785 39.1321026,40.6798381 L42.3585139,43.9062495 C43.1304737,44.6782093 44.2421202,44.9016015 45.2119239,44.5784698 L53.0134791,36.7769146 C53.8216149,35.9685744 53.8216149,34.6576532 53.0132748,33.8493131 Z" id="Path" fill="#FFFFFF"></path>
                            <path d="M42.407975,43.803853 L39.2342947,40.6301728 C38.4282027,39.8240807 38.2295413,38.6408997 38.6376969,37.6484094 L30.2552814,46.0308249 C29.4467368,46.8393693 29.4467368,48.1500863 30.2552814,48.9586307 L34.079517,52.7828663 C34.8880614,53.5914109 36.1987784,53.5914109 37.0073228,52.7828663 L45.3897383,44.400451 C44.397248,44.8086065 43.214067,44.6101493 42.407975,43.803853 L42.407975,43.803853 Z" id="Path" fill="#FFFFFF"></path>
                            <path d="M58.8169729,62.8365327 C57.3405004,60.7203373 56.0234474,59.23712 55.3941481,57.077595 C55.2958391,56.7401562 54.8194193,56.7401562 54.7209059,57.077595 C54.0916064,59.2373243 52.7745537,60.7205416 51.2980812,62.8365327 C49.1908785,65.8567203 51.3589879,70 55.0417895,70 L55.057527,70 L55.0732645,70 C58.7560662,69.9997955 60.9241756,65.8567203 58.8169729,62.8365327 Z" id="Path" fill="#73C3F9"></path>
                            <path d="M56.8440507,52.6371405 L51.7550846,47.5481744 C50.6569276,46.4500171 48.8763311,46.4500171 47.7781738,47.5481744 C46.6800168,48.6463315 46.6800168,50.4269279 47.7781738,51.5250852 L52.8671399,56.6140512 C53.9652969,57.7122083 55.7458936,57.7122083 56.8440507,56.6140512 C57.9422077,55.5156897 57.9422077,53.7352975 56.8440507,52.6371405 L56.8440507,52.6371405 Z" id="Path" fill="#73C3F9"></path>
                            <circle id="Oval" fill="#9BD8F9" transform="translate(56.541417, 65.748594) rotate(-76.700416) translate(-56.541417, -65.748594) " cx="56.5414173" cy="65.7485942" r="2.30012349"></circle>
                        </g>
                    </g>
                </g>
            </g>
        </g>
    </g>
</svg>