<?xml version="1.0" encoding="UTF-8"?>
<svg width="20px" height="20px" viewBox="0 0 20 20" version="1.1" xmlns="http://www.w3.org/2000/svg" xmlns:xlink="http://www.w3.org/1999/xlink">
    <title>Shape 2</title>
    <g id="App-|-NEU" stroke="none" stroke-width="1" fill="none" fill-rule="evenodd">
        <g id="Registrieren_2_NEU" transform="translate(-285.000000, -598.000000)" fill="#FFFFFF" fill-rule="nonzero">
            <g id="Group-2" transform="translate(20.000000, 419.000000)">
                <g id="Button-/-Primary-Copy-13" transform="translate(0.000000, 164.000000)">
                    <g id="Shape-2" transform="translate(265.000000, 15.000000)">
                        <path d="M17.9846154,0 L6.63076923,0 C5.5194547,0.00421755795 4.61960217,0.904070085 4.61538462,2.01538462 L4.61538462,4.61538462 L2.01538462,4.61538462 C0.904070085,4.61960217 0.00421755795,5.5194547 0,6.63076923 L0,17.9846154 C0.00421755795,19.0959299 0.904070085,19.9957824 2.01538462,20 L13.3692308,20 C14.4805453,19.9957824 15.3803978,19.0959299 15.3846154,17.9846154 L15.3846154,15.3846154 L17.9846154,15.3846154 C19.0959299,15.3803978 19.9957824,14.4805453 20,13.3692308 L20,2.01538462 C19.9957824,0.904070085 19.0959299,0.00421755795 17.9846154,0 Z M13.8461538,17.9846154 C13.8461538,18.2480127 13.6326281,18.4615385 13.3692308,18.4615385 L2.01538462,18.4615385 C1.75198727,18.4615385 1.53846154,18.2480127 1.53846154,17.9846154 L1.53846154,6.63076923 C1.53846154,6.36737189 1.75198727,6.15384615 2.01538462,6.15384615 L13.3692308,6.15384615 C13.6326281,6.15384615 13.8461538,6.36737189 13.8461538,6.63076923 L13.8461538,17.9846154 Z M18.4615385,13.3692308 C18.4615385,13.6326281 18.2480127,13.8461538 17.9846154,13.8461538 L15.3846154,13.8461538 L15.3846154,6.63076923 C15.3803978,5.5194547 14.4805453,4.61960217 13.3692308,4.61538462 L6.15384615,4.61538462 L6.15384615,2.01538462 C6.15384615,1.75198727 6.36737189,1.53846154 6.63076923,1.53846154 L17.9846154,1.53846154 C18.2480127,1.53846154 18.4615385,1.75198727 18.4615385,2.01538462 L18.4615385,13.3692308 Z" id="Shape"></path>
                    </g>
                </g>
            </g>
        </g>
    </g>
</svg>