<?xml version="1.0" encoding="UTF-8"?>
<svg width="130px" height="120px" viewBox="0 0 130 120" version="1.1" xmlns="http://www.w3.org/2000/svg" xmlns:xlink="http://www.w3.org/1999/xlink">
    <title>icon_fehlgeschlagen</title>
    <defs>
        <linearGradient x1="100%" y1="0%" x2="0%" y2="100%" id="linearGradient-1">
            <stop stop-color="#AF2F70" stop-opacity="0.1" offset="0%"></stop>
            <stop stop-color="#800343" offset="51.0231712%"></stop>
            <stop stop-color="#800343" offset="100%"></stop>
        </linearGradient>
    </defs>
    <g id="App-|-Design" stroke="none" stroke-width="1" fill="none" fill-rule="evenodd">
        <g id="icon_fehlgeschlagen">
            <rect id="Rectangle-Copy-3" fill="url(#linearGradient-1)" opacity="0.2" x="30" y="0" width="100" height="100" rx="15"></rect>
            <g id="Check" transform="translate(0.000000, 20.000000)" fill-rule="nonzero">
                <g id="Group-10-Copy-2">
                    <path d="M50,0 C22.3857356,0 0,22.3857356 0,50 C0,77.6142643 22.3857356,100 50,100 C56.6001503,100 62.9000987,98.7183778 68.668419,96.3951315 L73.5489915,94.11515 C89.2896793,85.6950147 100,69.0992318 100,50 C100,22.3857356 77.6142643,0 50,0 Z" id="Path" fill="#800343"></path>
                    <path d="M78.6583375,9.02645693 C75.2114267,12.9219353 72.8543032,18.823928 77.6579375,26.6654965 C87.045616,41.9902695 92.1533292,54.8301648 84.1884965,62.7949975 C78.1089542,68.8745398 78.69548,80.5056693 85.0311425,85.6717495 C94.2690265,76.600191 100,63.97009 100,49.999796 C100,33.0478935 91.5617015,18.0684239 78.6583375,9.02645693 L78.6583375,9.02645693 Z" id="Path" fill="#93044D"></path>
                    <path d="M47.743692,99.9469393 C60.856442,83.4187068 35.6629742,75.3944865 20.6655456,65.840483 C4.28486297,55.405262 15.6178317,38.11275 22.8604256,24.7075534 C26.4108047,18.1361785 24.6902066,12.5496935 22.0139019,8.56054238 C8.73115322,17.5484282 0,32.7544265 0,50 C0,76.85774 21.17697,98.7667448 47.743692,99.9469393 Z" id="Path" fill="#93044D"></path>
                </g>
            </g>
            <path d="M32.7458561,50.7004585 C33.5269046,49.9194099 34.7932346,49.9194099 35.5742832,50.7004585 L35.5742832,50.7004585 L50,65.126 L64.4257168,50.7004585 C65.2067654,49.9194099 66.4730954,49.9194099 67.2541439,50.7004585 L69.2995415,52.7458561 C70.0805901,53.5269046 70.0805901,54.7932346 69.2995415,55.5742832 L54.874,70 L69.2995415,84.4257168 C70.0394823,85.1656576 70.0784266,86.3411417 69.4163743,87.1269292 L69.2995415,87.2541439 L67.2541439,89.2995415 C66.4730954,90.0805901 65.2067654,90.0805901 64.4257168,89.2995415 L64.4257168,89.2995415 L50,74.874 L35.5742832,89.2995415 C34.7932346,90.0805901 33.5269046,90.0805901 32.7458561,89.2995415 L30.7004585,87.2541439 C29.9194099,86.4730954 29.9194099,85.2067654 30.7004585,84.4257168 L45.126,70 L30.7004585,55.5742832 C29.9605177,54.8343424 29.9215734,53.6588583 30.5836257,52.8730708 L30.7004585,52.7458561 Z" id="Combined-Shape" fill="#FFFFFF"></path>
        </g>
    </g>
</svg>