<?xml version="1.0" encoding="UTF-8"?>
<svg width="222px" height="220px" viewBox="0 0 222 220" version="1.1" xmlns="http://www.w3.org/2000/svg" xmlns:xlink="http://www.w3.org/1999/xlink">
    <title>icon_jetzt_testen</title>
    <defs>
        <linearGradient x1="100%" y1="0%" x2="0%" y2="100%" id="linearGradient-1">
            <stop stop-color="#FFFFFF" stop-opacity="0.2" offset="0%"></stop>
            <stop stop-color="#FFFFFF" stop-opacity="0.6" offset="100%"></stop>
        </linearGradient>
    </defs>
    <g id="App-|-Design" stroke="none" stroke-width="1" fill="none" fill-rule="evenodd">
        <g id="Testüberblick_Leer" transform="translate(-9.000000, -295.000000)">
            <g id="icon_jetzt_testen" transform="translate(9.000000, 295.000000)">
                <rect id="Rectangle-Copy-3" fill="url(#linearGradient-1)" opacity="0.4" x="41.9671459" y="0" width="180" height="180" rx="30"></rect>
                <g id="Allgemein-02" transform="translate(0.000000, 20.000000)" fill-rule="nonzero">
                    <g id="001-swab-copy">
                        <path d="M98.5361229,14.823707 C51.9023842,14.823707 14.0983519,52.6277391 14.0983519,99.2614779 C14.0983519,117.722526 20.0272136,134.796393 30.0786728,148.692324 L39.4032837,159.527842 C47.3634605,167.339478 56.8614259,173.588511 67.4057217,177.772799 L81.3891916,181.95502 C86.9261963,183.09785 92.6606807,183.699249 98.5361229,183.699249 C145.169861,183.699249 182.973894,145.895216 182.973894,99.2614779 C182.973894,52.6277391 145.169861,14.823707 98.5361229,14.823707 Z" id="Path" fill="#E8E8E8"></path>
                        <g id="Group-8" transform="translate(72.374618, 76.996830) rotate(-33.000000) translate(-72.374618, -76.996830) translate(26.244073, 15.146162)">
                            <path d="M49.0478716,54.6615298 C47.0462148,53.25981 44.5218876,53.1763843 42.4888761,54.2189256 L0,114.899363 C2.27516996,118.044904 4.81041533,120.988879 7.57466148,123.701334 L51.7071358,60.673779 C51.9912871,58.4067279 51.0495285,56.0632496 49.0478716,54.6615298 L49.0478716,54.6615298 Z" id="Path" fill="#BBBBBB"></path>
                            <path d="M48.7505629,55.0864971 C50.9291494,56.6119553 51.7527681,59.3476467 50.9546247,61.7485148 L59.8663369,49.0213366 L50.6480776,42.5667631 L41.7363651,55.2939413 C43.7192653,53.7225708 46.571696,53.5610384 48.7505629,55.0864971 Z" id="Path" fill="#979797"></path>
                            <g id="Group" transform="translate(48.830596, 0.000000)">
                                <path d="M42.0359473,10.0970895 C36.3831564,6.18336048 29.8375985,5.84601833 20.4950401,19.188811 C14.7361473,27.413521 10.2026045,37.5682202 8.8644339,45.1101272 C8.60547829,46.569797 8.84427738,47.9312037 9.48368776,48.9793441 C11.3358502,50.0297238 13.5911436,50.1738991 15.5538872,49.2920505 C23.1307882,45.8875542 31.841495,38.2946956 37.7574408,29.846024 C44.0311653,20.8856001 44.5171621,14.7392537 42.0359473,10.0970895 Z" id="Path" fill="#FFFFFF"></path>
                                <g id="Path" fill="#DADADA">
                                    <path d="M9.78939535,45.2310665 C11.0908923,37.8952041 15.5006963,28.0176574 21.102256,20.0177488 C30.2382098,6.97030556 36.624475,7.37091689 42.142889,11.2348145 C42.3455742,11.3767502 42.5440604,11.5220453 42.738347,11.66958 C41.5734666,8.44425289 39.0385012,5.90816766 35.89548,3.70746493 C28.423001,-1.5248381 20.3452657,-2.88148552 10.6969998,10.8977523 C4.78105391,19.3464239 0.62516638,30.1287755 0.0176705212,38.4131153 C-0.155899724,40.77731 0.959709027,43.05248 2.90145615,44.4122068 L8.92994267,48.6333231 C9.50832354,49.0381339 10.1382155,49.3441216 10.7944231,49.5518457 C9.87590053,48.4860683 9.48872688,46.925896 9.78939535,45.2310665 L9.78939535,45.2310665 Z"></path>
                                </g>
                            </g>
                        </g>
                    </g>
                    <g id="Group-7" transform="translate(120.756818, 113.070958) rotate(-49.000000) translate(-120.756818, -113.070958) translate(32.872469, 81.668475)">
                        <path d="M144.366216,0 L69.8088004,0 C69.1080725,0.818263069 67.566677,2.93009872 67.5525455,5.69302912 C67.5415158,7.8613918 68.4738667,9.92704074 70.3247819,11.835517 L70.3247819,16.2335948 C69.9001401,16.6778834 68.8381903,17.9542221 68.7930377,19.659339 C68.7623614,20.8243471 69.2069947,21.940411 70.1162523,22.9834034 C69.1494335,23.9671114 66.7115335,26.8175898 66.5850373,30.6628058 C66.4916297,33.4932929 67.675595,36.2279598 70.1045336,38.7971817 C69.2269858,39.6650783 67.1320395,41.990269 65.9435935,45.4373831 C63.5022467,52.5187711 66.8201069,58.7357092 70.1696773,62.8049651 L144.36656,62.8049651 C161.637633,62.8049651 175.768698,48.6738997 175.768698,31.4028272 C175.768698,14.1310655 161.637288,0 144.366216,0 L144.366216,0 Z" id="Path" fill="#FFFFFF"></path>
                        <path d="M70.8417973,23.0027054 C67.3922704,19.5531785 70.8417973,16.4497073 70.8417973,16.4497073 L70.8417973,11.62423 C64.8051253,5.58721331 70.5084948,0.000344676946 70.5084948,0.000344676946 L27.9894914,0.000344676946 C15.8168804,0.000344676946 5.20496656,7.02003536 0,17.210754 C2.1962815,34.1692044 9.83012361,49.3620781 20.5423384,61.6181006 C23.0546887,62.2712635 25.2803306,62.8046202 27.9894914,62.8046202 L70.8417973,62.8046202 C59.0827987,48.928616 70.8417973,38.8137262 70.8417973,38.8137262 C62.4154803,30.3874089 70.8417973,23.0027054 70.8417973,23.0027054 Z" id="Path" fill="#FFFFFF"></path>
                        <path d="M56.865492,16.4497073 L55.2599867,16.4497073 C53.9274658,16.4497073 52.8472479,15.3694897 52.8472479,14.0369686 C52.8472479,12.7044476 53.9274658,11.62423 55.2599867,11.62423 L56.865492,11.62423 C58.1980129,11.62423 59.2782304,12.7044476 59.2782304,14.0369686 C59.2782304,15.3694897 58.1983578,16.4497073 56.865492,16.4497073 Z" id="Path" fill="#AAAAAA"></path>
                        <path d="M72.4469581,16.4497073 L70.8414528,16.4497073 C69.5089315,16.4497073 68.428714,15.3694897 68.428714,14.0369686 C68.428714,12.7044476 69.5089315,11.62423 70.8414528,11.62423 L72.4469581,11.62423 C73.779479,11.62423 74.8596965,12.7044476 74.8596965,14.0369686 C74.8596965,15.3694897 73.7798239,16.4497073 72.4469581,16.4497073 Z" id="Path" fill="#AAAAAA"></path>
                        <path d="M88.0284242,16.4497073 L86.4229189,16.4497073 C85.0903976,16.4497073 84.0101801,15.3694897 84.0101801,14.0369686 C84.0101801,12.7044476 85.0903976,11.62423 86.4229189,11.62423 L88.0284242,11.62423 C89.3609451,11.62423 90.4411626,12.7044476 90.4411626,14.0369686 C90.4411626,15.3694897 89.3612896,16.4497073 88.0284242,16.4497073 Z" id="Path" fill="#800343"></path>
                        <path d="M132.840908,57.1215871 L131.235403,57.1215871 C129.902882,57.1215871 128.822664,56.0413692 128.822664,54.7088483 C128.822664,53.3763274 129.902882,52.2961095 131.235403,52.2961095 L132.840908,52.2961095 C134.173429,52.2961095 135.253647,53.3763274 135.253647,54.7088483 C135.253647,56.0413692 134.173429,57.1215871 132.840908,57.1215871 Z" id="Path" fill="#AAAAAA"></path>
                        <path d="M111.063184,23.0027054 L70.0976401,23.0027054 C69.1194467,24.0022685 66.710844,26.8399938 66.5850373,30.6628058 C66.4916297,33.4932929 67.675595,36.2279598 70.1045336,38.7971817 C70.0993634,38.8023519 70.093159,38.8089008 70.0876443,38.8140709 L110.478612,38.8140709 C109.287409,36.6064151 108.609774,34.0820011 108.609774,31.4024825 C108.609774,28.3127984 109.512828,25.4319885 111.063184,23.0027054 L111.063184,23.0027054 Z" id="Path" fill="#E8E8E8"></path>
                        <path d="M70.8417973,23.0027054 L40.7004878,23.0027054 C36.334465,23.0027054 32.7949774,26.5421929 32.7949774,30.9082158 C32.7949774,35.2742387 36.334465,38.8137262 40.7004878,38.8137262 L70.8417973,38.8137262 C62.4154803,30.3874089 70.8417973,23.0027054 70.8417973,23.0027054 L70.8417973,23.0027054 Z" id="Path" fill="#DADADA"></path>
                        <path d="M140.494804,15.7417408 L123.581506,15.7417408 C114.94597,15.7417408 107.92042,22.7669463 107.92042,31.4021378 C107.92042,40.0373294 114.94597,47.0632243 123.581506,47.0632243 L140.494804,47.0632243 C149.13034,47.0632243 156.15589,40.0376741 156.15589,31.4021378 C156.15589,22.7666016 149.13034,15.7417408 140.494804,15.7417408 Z" id="Path" fill="#DADADA"></path>
                        <path d="M140.494804,15.7417408 L131.2647,15.7417408 L131.2647,29.8631553 L140.495149,39.307993 C140.495149,39.307993 135.514567,43.1242559 140.495149,47.0632243 C149.130685,47.0632243 156.156235,40.0376741 156.156235,31.4024825 C156.15589,22.7669463 149.13034,15.7417408 140.494804,15.7417408 L140.494804,15.7417408 Z" id="Path" fill="#E8E8E8"></path>
                        <path d="M140.494804,23.4969721 L123.581506,23.4969721 C119.233407,23.4969721 115.675996,27.0543829 115.675996,31.4024825 C115.675996,35.7505822 119.233751,39.307993 123.581506,39.307993 L140.494804,39.307993 C144.842904,39.307993 148.400315,35.7505822 148.400315,31.4024825 C148.400659,27.0543829 144.842904,23.4969721 140.494804,23.4969721 Z" id="Path" fill="#AF2F70"></path>
                        <path d="M140.494804,23.4966274 L127.958559,23.4966274 C132.306659,23.4966274 135.864414,27.0540382 135.864414,31.4021378 C135.864414,35.7502375 132.306659,39.3076483 127.958559,39.3076483 L140.494804,39.3076483 C144.842904,39.3076483 148.400659,35.7502375 148.400659,31.4021378 C148.400659,27.0540382 144.842904,23.4966274 140.494804,23.4966274 Z" id="Path" fill="#800343"></path>
                    </g>
                </g>
            </g>
        </g>
    </g>
</svg>