<?xml version="1.0" encoding="UTF-8"?>
<svg width="92px" height="92px" viewBox="0 0 92 92" version="1.1" xmlns="http://www.w3.org/2000/svg" xmlns:xlink="http://www.w3.org/1999/xlink">
    <title>icon_testkassette</title>
    <defs>
        <linearGradient x1="100%" y1="0%" x2="0%" y2="100%" id="linearGradient-1">
            <stop stop-color="#FFFFFF" stop-opacity="0.6" offset="0%"></stop>
            <stop stop-color="#FFFFFF" stop-opacity="0.2" offset="100%"></stop>
        </linearGradient>
    </defs>
    <g id="App-|-Design" stroke="none" stroke-width="1" fill="none" fill-rule="evenodd">
        <g id="Schnelltestest_Vollständigkeit" transform="translate(-55.000000, -313.000000)">
            <g id="Group-4" transform="translate(20.000000, 314.000000)">
                <g id="icon_testkassette" transform="translate(36.000000, 0.000000)">
                    <g id="Group-2" transform="translate(45.000000, 45.275045) rotate(-15.000000) translate(-45.000000, -45.275045) translate(10.000000, 34.000000)" fill-rule="nonzero">
                        <path d="M64.9911928,1.33341476e-14 L40.2063038,1.33341476e-14 L40.2063038,2.05473349 C40.2063038,2.77128504 39.6234095,3.35417936 38.9068579,3.35417936 L26.0262548,3.35417936 C26.0789752,3.42001796 26.1342944,3.48548532 26.1939452,3.55033375 C25.7680982,4.10340274 24.3396977,6.26085426 26.1835496,8.25878327 C26.0303388,8.43649802 25.8013888,8.77150755 25.7853004,9.20094346 C25.7708208,9.58743585 25.9289819,9.95907742 26.2556998,10.3065864 L26.2556998,11.8837425 C26.1154834,12.0244538 25.8022551,12.3925064 25.7804739,12.8934738 C25.764633,13.2564523 25.9026219,13.6076741 26.1909751,13.9398371 C25.5396432,14.7096041 22.5050039,18.7140015 26.1824359,22.5500897 L64.9910691,22.5500897 C67.7458945,22.5500897 70,20.2961079 70,17.5411588 L70,5.00893089 C70,2.25398177 67.7461419,1.33341476e-14 64.9911928,1.33341476e-14 Z" id="Combined-Shape" fill="#FFFFFF"></path>
                        <path d="M40.595205,0 L15.810316,0 L15.810316,2.05473349 C15.810316,2.77128504 15.2274217,3.35417936 14.5108701,3.35417936 L1.630267,3.35417936 C1.68298742,3.42001796 1.73830664,3.48548532 1.79795746,3.55033375 C1.37211037,4.10340274 -0.0562900394,6.26085426 1.78756178,8.25878327 C1.63435106,8.43649802 1.40540099,8.77150755 1.38931261,9.20094346 C1.37483303,9.58743585 1.53299413,9.95907742 1.859712,10.3065864 L1.859712,11.8837425 C1.71949561,12.0244538 1.40626731,12.3925064 1.38448608,12.8934738 C1.36864525,13.2564523 1.50663407,13.6076741 1.79498727,13.9398371 C1.14365539,14.7096041 -1.89098389,18.7140015 1.78644807,22.5500897 L40.5950813,22.5500897 C43.3499068,22.5500897 45.6040122,20.2961079 45.6040122,17.5411588 L45.6040122,5.00893089 C45.6040122,2.25398177 43.3501541,0 40.595205,0 Z" id="Combined-Shape" fill="#FFFFFF" transform="translate(22.802006, 11.275045) scale(-1, 1) translate(-22.802006, -11.275045) "></path>
                        <path d="M26.1835496,2.66682952e-14 C25.9416052,0.269789711 25.4538798,0.915799979 25.4358113,1.75462336 C25.4223219,2.38219384 25.6746618,2.98204286 26.1850347,3.53981453 L38.9068579,3.53981453 C39.7236524,3.53981453 40.391939,2.87152795 40.391939,2.05473349 L40.391939,2.66682952e-14 L26.1835496,2.66682952e-14 Z" id="Path" fill="#FFFFFF"></path>
                        <path d="M26.441335,2.66682952e-14 L18.6653268,2.66682952e-14 L18.6653268,2.05473349 C18.6653268,2.87152795 19.3336132,3.53981453 20.1504078,3.53981453 L26.441335,3.53981453 C24.595503,1.69398253 26.441335,2.66682952e-14 26.441335,2.66682952e-14 L26.441335,2.66682952e-14 Z" id="Path" fill="#FFFFFF"></path>
                        <path d="M38.260105,8.25903081 L26.1833022,8.25903081 C26.0300913,8.43686926 25.8013888,8.77163125 25.7854241,9.20094346 C25.7709447,9.58743585 25.9291058,9.95907742 26.2558236,10.3065864 L26.2558236,11.8837425 C26.1156072,12.0244538 25.8023788,12.3925064 25.7805976,12.8934738 C25.7648806,13.2550911 25.9020031,13.6049514 26.1881287,13.9361244 L38.260105,13.9361244 C39.8277318,13.9361244 41.0985899,12.6652663 41.0985899,11.0976395 C41.0985899,9.52988891 39.8277318,8.25903081 38.260105,8.25903081 L38.260105,8.25903081 Z" id="Path" fill="#E8E8E8"></path>
                        <path d="M26.441335,8.25903081 L21.5038117,8.25903081 C19.9361849,8.25903081 18.6653268,9.52988891 18.6653268,11.0975157 C18.6653268,12.6651426 19.9361849,13.9360007 21.5038117,13.9360007 L26.441335,13.9360007 C25.3693539,12.8640197 26.441335,11.963813 26.441335,11.963813 L26.441335,10.2312186 C25.3809871,9.17099443 26.441335,8.25903081 26.441335,8.25903081 Z" id="Path" fill="#E8E8E8"></path>
                        <path d="M36.0697343,11.9639368 L31.9445503,11.9639368 C31.4661067,11.9639368 31.078253,11.5760832 31.078253,11.0976395 C31.078253,10.6191959 31.4661067,10.2313422 31.9445503,10.2313422 L36.0697343,10.2313422 C36.5481778,10.2313422 36.9360316,10.6191959 36.9360316,11.0976395 C36.9360316,11.5760832 36.5483016,11.9639368 36.0697343,11.9639368 Z" id="Path" fill="#AF2F70"></path>
                        <path d="M31.9445503,11.9639368 L27.8192427,11.9639368 C27.340799,11.9639368 26.9529454,11.5760832 26.9529454,11.0976395 C26.9529454,10.6191959 27.340799,10.2313422 27.8192427,10.2313422 L31.9445503,10.2313422 C32.422994,10.2313422 32.8108476,10.6191959 32.8108476,11.0976395 C32.8108476,11.5760832 32.422994,11.9639368 31.9445503,11.9639368 Z" id="Path" fill="#AF2F70"></path>
                        <path d="M27.8192427,11.9639368 L23.6940587,11.9639368 C23.2156151,11.9639368 22.8277614,11.5760832 22.8277614,11.0976395 C22.8277614,10.6191959 23.2156151,10.2313422 23.6940587,10.2313422 L27.8192427,10.2313422 C28.2976863,10.2313422 28.68554,10.6191959 28.68554,11.0976395 C28.68554,11.5760832 28.2976863,11.9639368 27.8192427,11.9639368 Z" id="Path" fill="#AF2F70"></path>
                        <path d="M57.3351049,5.65197111 L51.2623609,5.65197111 C48.1617592,5.65197111 45.6393491,8.17438119 45.6393491,11.2748592 C45.6393491,14.3753372 48.1618831,16.8978712 51.2623609,16.8978712 L57.3351049,16.8978712 C60.4357068,16.8978712 62.9582407,14.3753372 62.9582407,11.2748592 C62.9582407,8.17438119 60.4357068,5.65197111 57.3351049,5.65197111 Z" id="Path" fill="#E8E8E8"></path>
                        <path d="M57.3351049,16.8979949 C60.4357068,16.8979949 62.9581168,14.3754609 62.9581168,11.2749829 C62.9581168,8.17438119 60.4355829,5.65209481 57.3351049,5.65209481 L54.5753293,5.65209481 L54.5753293,8.50171784 L58.5355456,11.0976395 L57.3351049,14.1135916 C57.3351049,14.1134679 55.6226827,15.1855727 57.3351049,16.8979949 L57.3351049,16.8979949 Z" id="Path" fill="#E8E8E8"></path>
                        <path d="M57.3351049,8.43649802 L51.2622372,8.43649802 C49.7010458,8.43649802 48.4237523,9.71379144 48.4237523,11.2749829 C48.4237523,12.8361744 49.7010458,14.1134679 51.2622372,14.1134679 L57.3351049,14.1134679 C58.8962964,14.1134679 60.1735899,12.8361744 60.1735899,11.2749829 C60.1737136,9.71379144 58.8962964,8.43649802 57.3351049,8.43649802 L57.3351049,8.43649802 Z" id="Path" fill="#AF2F70"></path>
                        <path d="M57.3351049,8.43649802 L53.7493768,8.43649802 C55.3105681,8.43649802 56.5878617,9.71379144 56.5878617,11.2749829 C56.5878617,12.8361744 55.3105681,14.1134679 53.7493768,14.1134679 L57.3351049,14.1134679 C58.8962964,14.1134679 60.1735899,12.8361744 60.1735899,11.2749829 C60.1737136,9.71379144 58.8962964,8.43649802 57.3351049,8.43649802 Z" id="Path" fill="#800343"></path>
                    </g>
                    <rect id="Rectangle-Copy" stroke="url(#linearGradient-1)" opacity="0.4" x="0" y="0" width="90" height="90" rx="8"></rect>
                </g>
            </g>
        </g>
    </g>
</svg>