<svg width="112" height="30" viewBox="0 0 112 30" fill="none" xmlns="http://www.w3.org/2000/svg">
<path fill-rule="evenodd" clip-rule="evenodd" d="M0 6C0 2.68629 2.68629 0 6 0H24C27.3137 0 30 2.68629 30 6V24C30 27.3137 27.3137 30 24 30H6C2.68629 30 0 27.3137 0 24V6ZM9.56763 20.4216C9.68474 20.4207 9.8717 20.4168 10.1285 20.4099C10.422 20.4019 10.7009 20.3821 10.9653 20.3504C11.8484 20.234 12.5873 19.9128 13.1822 19.3867C13.7771 18.8605 14.2253 18.1929 14.5267 17.3839C14.8281 16.5748 14.9788 15.6838 14.9788 14.7109C14.9788 13.7379 14.8281 12.8469 14.5267 12.0379C14.2253 11.2288 13.7771 10.5612 13.1822 10.0351C12.5873 9.50896 11.8484 9.18772 10.9653 9.07139C10.7009 9.03437 10.4233 9.01322 10.1325 9.00793C9.84162 9.00264 9.63804 9 9.52171 9H6V20.4218L9.56763 20.4216ZM9.52171 19.0734H7.45152V10.3484H9.52171C9.71207 10.3484 9.93416 10.3537 10.188 10.3643C10.4418 10.3748 10.6612 10.3986 10.8463 10.4357C11.465 10.5467 11.9673 10.8032 12.3534 11.205C12.7394 11.6069 13.0236 12.1119 13.206 12.72C13.3884 13.3281 13.4797 13.9917 13.4797 14.7109C13.4797 15.4142 13.3898 16.0699 13.21 16.678C13.0302 17.2861 12.7473 17.7937 12.3613 18.2009C11.9753 18.608 11.4703 18.8698 10.8463 18.9861C10.6612 19.0178 10.4444 19.0403 10.1959 19.0535C9.94738 19.0667 9.72265 19.0734 9.52171 19.0734ZM19.2251 15.8372L16.1713 20.4218H14.4422L18.3684 14.6395L14.5453 9H16.2665L19.2251 13.4497L22.1757 9H23.9048L20.0817 14.6395L24 20.4218H22.2788L19.2251 15.8372Z" fill="white"/>
<path fill-rule="evenodd" clip-rule="evenodd" d="M41.8226 22.3807V16.6193C41.8226 15.9848 41.8952 15.4329 42.0403 14.9638C42.1854 14.4946 42.3896 14.1048 42.6529 13.7943C42.9161 13.4838 43.2317 13.2526 43.5996 13.1007C43.9675 12.9488 44.3776 12.8729 44.8299 12.8729C45.4104 12.8729 45.8913 12.9842 46.2727 13.207C46.6541 13.4298 46.9579 13.7318 47.184 14.1132C47.4102 14.4946 47.5688 14.925 47.6599 15.4042C47.7511 15.8835 47.7966 16.383 47.7966 16.9028V22.3807H49.6192V16.3358C49.6192 15.9173 49.5804 15.4734 49.5028 15.0043C49.4251 14.5351 49.2918 14.0727 49.1028 13.6171C48.9138 13.1614 48.6539 12.7497 48.3232 12.3818C47.9924 12.0139 47.5772 11.7186 47.0777 11.4958C46.5782 11.273 45.974 11.1617 45.2653 11.1617C44.327 11.1617 43.5119 11.3658 42.8199 11.7742C42.3942 12.0256 42.0272 12.3433 41.719 12.7276L41.6201 12.8568V7.79999H40V22.3807H41.8226ZM55.7183 22.6845C56.8051 22.6845 57.7434 22.4398 58.5332 21.9504C59.323 21.461 59.9305 20.7826 60.3558 19.9151C60.7811 19.0477 60.9937 18.0436 60.9937 16.9028C60.9937 15.7755 60.7828 14.7781 60.3609 13.9107C59.939 13.0433 59.3331 12.3649 58.5434 11.8755C57.7536 11.3861 56.8119 11.1414 55.7183 11.1414C54.6518 11.1414 53.7236 11.3827 52.9338 11.8654C52.144 12.348 51.5331 13.0214 51.1011 13.8854C50.6691 14.7495 50.4531 15.7552 50.4531 16.9028C50.4531 18.0301 50.6657 19.0292 51.091 19.9C51.5163 20.7707 52.1221 21.4525 52.9085 21.9453C53.6949 22.4381 54.6315 22.6845 55.7183 22.6845ZM53.2173 19.8595C53.7844 20.602 54.618 20.9733 55.7183 20.9733C56.8524 20.9733 57.6962 20.5952 58.2497 19.8392C58.8032 19.0832 59.08 18.1044 59.08 16.9028C59.08 15.6675 58.7999 14.6836 58.2396 13.9512C57.6793 13.2188 56.8389 12.8526 55.7183 12.8526C54.9556 12.8526 54.3278 13.0247 53.835 13.369C53.3422 13.7133 52.9743 14.1892 52.7313 14.7967C52.4883 15.4042 52.3668 16.1063 52.3668 16.9028C52.3668 18.1314 52.6503 19.1169 53.2173 19.8595ZM63.8324 22.3807V15.4346C63.8324 14.6313 64.0518 13.9867 64.4906 13.5006C64.9294 13.0146 65.5031 12.7716 66.2119 12.7716C66.9275 12.7716 67.5012 13.0096 67.9333 13.4855C68.3653 13.9614 68.5813 14.6178 68.5813 15.4549L68.5712 22.3807H70.3634L70.3729 15.4346C70.3733 14.8818 70.4665 14.4178 70.6524 14.0426L70.7178 13.9208C70.9473 13.526 71.2443 13.2357 71.6088 13.0501C71.9733 12.8644 72.3581 12.7716 72.7631 12.7716C73.4584 12.7716 74.0237 13.0028 74.4591 13.4652C74.8945 13.9276 75.1122 14.5672 75.1122 15.384L75.1021 22.3807H76.9044L76.9146 14.9891C76.9146 13.8213 76.5872 12.8914 75.9324 12.1995C75.2776 11.5076 74.3798 11.1617 73.239 11.1617C72.51 11.1617 71.8552 11.3237 71.2747 11.6477C70.7097 11.963 70.2614 12.4014 69.9298 12.9629C69.6582 12.4354 69.2844 12.0195 68.8083 11.7154L68.6623 11.6274C68.1155 11.3169 67.4742 11.1617 66.7384 11.1617C66.0027 11.1617 65.3445 11.322 64.764 11.6426C64.3576 11.8671 64.0108 12.1502 63.7235 12.4921L63.6299 12.6096V11.4452H62.02V22.3807H63.8324ZM87.4638 14.0677C87.852 15.006 88.0191 16.1231 87.9651 17.4192H87.0335H79.577L79.588 17.5684C79.6724 18.5458 79.9536 19.3264 80.4317 19.9101C81.0122 20.6189 81.8391 20.9733 82.9124 20.9733C83.6347 20.9733 84.2625 20.8079 84.7958 20.4771C85.3291 20.1463 85.7476 19.6704 86.0513 19.0494L87.7828 19.6468C87.3575 20.6121 86.7179 21.3597 85.864 21.8896C85.0101 22.4195 84.0532 22.6845 82.9934 22.6845C81.9201 22.6845 80.9835 22.4465 80.1836 21.9706C79.3837 21.4947 78.761 20.8298 78.3155 19.9759C77.8699 19.122 77.6472 18.1246 77.6472 16.9838C77.6472 15.789 77.8666 14.7545 78.3053 13.8803C78.7441 13.0062 79.3567 12.3311 80.1431 11.8552C80.9295 11.3793 81.8526 11.1414 82.9124 11.1414C84.0127 11.1414 84.9493 11.3945 85.7223 11.9008C86.4952 12.4071 87.0757 13.1294 87.4638 14.0677ZM86.0954 15.9713H79.6157L79.6281 15.871C79.7356 15.095 79.9721 14.4569 80.3376 13.9569L80.4317 13.8348C81.0122 13.1192 81.8594 12.7615 82.9732 12.7615C84.0127 12.7615 84.7958 13.0939 85.3223 13.7588C85.7318 14.276 85.9882 14.9983 86.0915 15.9259L86.0954 15.9713ZM94.292 22.3655C93.9642 22.3744 93.7255 22.3794 93.576 22.3805L89.0217 22.3807V7.79999H93.5174C93.6659 7.79999 93.9258 7.80336 94.2971 7.81011C94.6683 7.81686 95.0227 7.84386 95.3602 7.89112C96.4875 8.03962 97.4309 8.44971 98.1903 9.12136C98.9497 9.79302 99.5218 10.6453 99.9066 11.6781C100.291 12.7109 100.484 13.8483 100.484 15.0903C100.484 16.3324 100.291 17.4698 99.9066 18.5026C99.5218 19.5354 98.9497 20.3877 98.1903 21.0593C97.4309 21.731 96.4875 22.1411 95.3602 22.2896C95.0227 22.3301 94.6666 22.3554 94.292 22.3655ZM93.5174 20.6594H90.8746V9.52132H93.5174C93.7604 9.52132 94.0439 9.52807 94.3679 9.54157C94.692 9.55507 94.9721 9.58545 95.2084 9.6327C95.9981 9.77446 96.6394 10.1019 97.1322 10.6149C97.625 11.1279 97.9878 11.7726 98.2207 12.5488C98.4536 13.3251 98.57 14.1723 98.57 15.0903C98.57 15.9881 98.4553 16.8252 98.2258 17.6015C97.9962 18.3778 97.6351 19.0258 97.1423 19.5456C96.6496 20.0653 96.0049 20.3995 95.2084 20.548C94.9721 20.5885 94.6953 20.6172 94.3781 20.6341C94.0608 20.6509 93.7739 20.6594 93.5174 20.6594ZM105.904 16.5282L102.006 22.3807H99.7988L104.811 14.9992L99.9304 7.79999H102.128L105.904 13.4804L109.671 7.79999H111.878L106.998 14.9992L112 22.3807H109.803L105.904 16.5282Z" fill="white"/>
</svg>
