<?xml version="1.0" encoding="UTF-8"?>
<svg  viewBox="0 0 94 119" version="1.1" xmlns="http://www.w3.org/2000/svg" xmlns:xlink="http://www.w3.org/1999/xlink">
    <title>01_icon_rachenabstrich</title>
    <defs>
        <linearGradient x1="100%" y1="0%" x2="0%" y2="100%" id="linearGradient-1">
            <stop stop-color="#FFFFFF" stop-opacity="0.2" offset="0%"></stop>
            <stop stop-color="#FFFFFF" stop-opacity="0.6" offset="100%"></stop>
        </linearGradient>
    </defs>
    <g id="App-|-Design" stroke="none" stroke-width="1" fill="none" fill-rule="evenodd">
        <g id="Schnelltest_Onboarding" transform="translate(-54.000000, -252.000000)">
            <g id="01_icon_rachenabstrich" transform="translate(54.000000, 252.000000)">
                <rect id="Rectangle-Copy" fill="url(#linearGradient-1)" opacity="0.4" x="0" y="16" width="94" height="94" rx="8"></rect>
                <g id="Rachenabstrich-02" transform="translate(6.000000, 0.000000)" fill-rule="nonzero">
                    <path d="M41.6,0 C19.5085885,0 1.6,17.9085885 1.6,40 C1.6,62.0914114 19.5085885,80 41.6,80 C46.8801202,80 51.920079,78.9747022 56.5347352,77.1161052 L60.4391932,75.29212 C73.0317434,68.5560118 81.6,55.2793854 81.6,40 C81.6,17.9085885 63.6914114,0 41.6,0 Z" id="Path" fill="#E8E8E8"></path>
                    <path d="M64.52667,7.22116554 C61.7691414,10.3375483 59.8834426,15.0591424 63.72635,21.3323972 C71.2364928,33.5922156 75.3226634,43.8641318 68.9507972,50.235998 C64.0871634,55.0996318 64.556384,64.4045354 69.624914,68.5373996 C77.0152212,61.2801528 81.6,51.176072 81.6,39.9998368 C81.6,26.4383148 74.8493612,14.4547391 64.52667,7.22116554 L64.52667,7.22116554 Z" id="Path" fill="#FFFFFF"></path>
                    <path d="M39.7949536,79.9575514 C50.2851536,66.7349654 30.1303794,60.3155892 18.1324365,52.6723864 C5.02789038,44.3242096 14.0942654,30.4902 19.8883405,19.7660427 C22.7286438,14.5089428 21.3521652,10.0397548 19.2111215,6.8484339 C8.58492258,14.0387425 1.6,26.2035412 1.6,40 C1.6,61.486192 18.541576,79.0133958 39.7949536,79.9575514 Z" id="Path" fill="#FFFFFF"></path>
                    <g id="006-mouth" transform="translate(0.000000, 3.008846)">
                        <path d="M43.1453698,0.176990314 C40.956027,-0.165137639 37.0905328,-0.265844658 32,2.3263264 C26.9094672,-0.265844658 23.043973,-0.165137639 20.8546302,0.176990314 C10.4155889,1.81037538 1.44576651,14.6622464 0,32.4294476 C0.823590274,49.39927 15.0108639,62.9133242 32,62.9133242 C48.989136,62.9133242 63.1764098,49.39927 64,32.4294476 C62.5542334,14.6622464 53.5844112,1.81037538 43.1453698,0.176990314 Z" id="Path" fill="#FF6D7A"></path>
                        <path d="M57.4692188,39.9410876 C56.369167,41.6706272 55.1289532,43.1526758 55.1129506,43.1526758 C41.1046042,46.874283 22.9202276,46.880077 8.89532678,43.1554348 C8.042766,42.141467 7.25366442,41.066799 6.53629936,39.939708 C12.836696,37.4334828 19.5196413,35.8385872 26.4418004,35.2726964 C28.5388516,35.1020464 30.5816864,35.903426 32,37.417894 C33.5194344,35.8201012 35.5590964,35.1110134 37.5581996,35.2726964 C44.2801862,35.8286544 50.9487842,37.3483646 57.4692188,39.9410876 Z" id="Path" fill="#FF6D7A"></path>
                        <path d="M55.1129506,43.1526758 C43.013761,57.5452262 20.9780996,57.5219118 8.89532678,43.1554348 C22.9050526,46.8760764 41.0884636,46.8785596 55.1129506,43.1526758 Z" id="Path" fill="#FFFFFF"></path>
                        <path d="M59.9855148,29.7310514 C58.561821,24.5287752 56.085532,19.8010634 52.5745818,16.1466403 C39.1584756,20.1942346 24.845663,20.1928552 11.435075,16.1480198 C7.92136576,19.802443 5.44507674,24.5287752 4.021383,29.7310514 C3.42817728,31.9024602 3.60889808,34.214583 4.54147266,36.263212 C5.123642,37.5434328 5.79134334,38.7698512 6.53629936,39.939708 C12.836696,37.4334828 19.5196413,35.8385872 26.4418004,35.2726964 C28.5787204,35.0988734 30.6052768,35.9321206 32,37.417894 C33.3947232,35.9321206 35.4212796,35.0988734 37.5581996,35.2726964 C44.3800656,35.8304478 51.0773582,37.399408 57.4692188,39.9410876 C58.2141748,38.7712306 58.8818762,37.5434328 59.465425,36.263212 C60.3979996,34.214583 60.5801,31.9024602 59.9855148,29.7310514 L59.9855148,29.7310514 Z" id="Path" fill="#FE4F60"></path>
                        <path d="M36.4131746,27.2837328 C41.8141058,18.7995114 52.5745818,29.231655 46.0175892,36.4949762 C46.0171754,36.541605 42.830419,35.7036674 37.5581996,35.2726964 C35.4212796,35.0988734 33.3947232,35.9321206 32,37.417894 C30.6052768,35.9321206 28.5787204,35.0988734 26.4418004,35.2726964 C23.6068288,35.5044606 20.781514,35.9114272 17.9824108,36.4949762 C11.4240386,29.2302754 22.1872736,18.8022705 27.5868254,27.2837328 C29.7513364,30.6829396 34.2541818,30.6760418 36.4131746,27.2837328 L36.4131746,27.2837328 Z" id="Path" fill="#E84857"></path>
                        <path d="M45.468529,11.0050641 C48.1793412,12.2839053 50.5507846,14.0373111 52.5745818,16.1466403 C39.1584756,20.1942346 24.845663,20.1928552 11.435075,16.1480198 C13.4574927,14.0386906 15.8275565,12.2866644 18.5383687,11.0064437 C21.0739782,9.80899584 23.9958614,9.77036848 26.5866528,10.843657 C30.0603552,12.2825258 33.9548198,12.2659712 37.3885152,10.8546934 C39.9931022,9.78416396 42.921883,9.80347764 45.468529,11.0050641 Z" id="Path" fill="#FFFFFF"></path>
                        <path d="M41.1436454,37.237449 C40.1531298,37.5951658 39.2049664,38.0479336 38.4862218,38.5609876 C37.87453,38.9977526 37.0525952,38.9802322 36.4360752,38.550503 C36.4144162,38.535466 36.3926194,38.5204288 36.3708226,38.5055298 C34.8962234,37.502874 35.5742714,35.1117032 37.5580618,35.2726964 C38.6970168,35.3663678 39.8354198,35.4881818 40.9725814,35.6385526 C41.8306604,35.7519516 41.9575788,36.9434672 41.1436454,37.237449 L41.1436454,37.237449 Z" id="Path" fill="#FF8C95"></path>
                        <path d="M11.8674254,43.875835 C10.8512502,43.6519342 9.85976892,43.411479 8.89532678,43.1554348 C8.042766,42.141467 7.25366442,41.066799 6.53629936,39.939708 C12.836696,37.4334828 19.5196413,35.8385872 26.4418004,35.2726964 C28.516089,35.1038398 30.5300914,35.887837 31.9282634,37.3447778 C25.9813072,37.832862 20.1514744,39.0888026 14.555751,41.069282 C13.4915675,41.4458988 13.2055872,42.1396736 13.2084842,42.782543 C13.2117951,43.493838 12.5620279,44.0289648 11.8674254,43.875835 Z" id="Path" fill="#FF8C95"></path>
                        <path d="M32,37.417894 C31.5130194,37.936604 31.1032936,38.535328 30.7928954,39.197511 C30.5583722,39.698287 29.9955164,39.952124 29.468529,39.7893372 C28.82428,39.5906824 28.509743,38.8691786 28.796689,38.2594184 C29.020038,37.783888 29.2846352,37.3271196 29.5859286,36.8973904 C29.9457148,36.3840604 30.6632178,36.278663 31.1612346,36.6592804 C31.4605966,36.8880094 31.7411968,37.1415704 32,37.417894 L32,37.417894 Z" id="Path" fill="#FE4F60"></path>
                        <path d="M31.7442318,27.3131172 C32.510157,28.501874 31.2909122,29.9773008 29.9975858,29.405202 C29.0703914,28.9950624 28.2265218,28.288044 27.5868254,27.2837328 C27.4786688,27.1140484 27.3683048,26.9518136 27.2560096,26.7970282 C26.3660632,25.570334 27.728229,23.9961316 29.0703914,24.699977 C30.2132092,25.2993908 31.0548716,26.2431396 31.7442318,27.3131172 L31.7442318,27.3131172 Z" id="Path" fill="#FF6D7A"></path>
                        <path d="M22.094844,35.7665748 C20.7194344,35.9679888 19.3481635,36.2094096 17.9824108,36.4949762 C12.2841869,30.1834052 19.6614589,21.4835604 25.2359372,24.8738002 C25.7749268,25.2015808 25.7713398,25.98544 25.224625,26.300253 C22.308674,27.979439 20.3710984,32.0048226 22.094844,35.7665748 Z" id="Path" fill="#E33949"></path>
                        <path d="M52.5745818,16.1466403 C44.4896016,18.5856815 36.0789102,19.5545382 27.7366442,19.0530724 C26.6557682,18.9880957 26.3003966,17.558194 27.2321434,17.0062367 C29.1217106,15.8867334 30.7759268,14.3311548 32.0309018,12.3912341 C32.2210036,12.0973904 32.5385756,11.9118411 32.8877392,11.8900443 C34.4257976,11.7934759 35.9466114,11.4463816 37.3883774,10.8546934 C39.9929644,9.78416396 42.9217452,9.80347764 45.4683912,11.0050641 C48.1793412,12.2839053 50.5507846,14.0373111 52.5745818,16.1466403 L52.5745818,16.1466403 Z" id="Path" fill="#E8E8E8"></path>
                        <path d="M55.1129506,43.1526758 C49.007484,50.4153072 39.8743232,54.3750244 30.5196068,53.9110824 C29.431971,53.857142 29.0665288,52.4182732 30.0037938,51.863695 C31.884118,50.7513652 33.3031212,49.0196184 33.9210208,46.7192218 C34.0479392,46.2467264 34.4776686,45.9170144 34.9665804,45.903219 C42.3673048,45.6951832 49.2443524,44.7115652 55.1129506,43.1526758 Z" id="Path" fill="#E8E8E8"></path>
                        <g id="Group" fill="#FF949D">
                            <path d="M41.7877566,2.02530898 C40.6768064,2.33156868 39.4752198,2.76750592 38.1909984,3.37547282 C37.764856,3.57716276 37.2724952,3.57771458 36.8463528,3.37602462 C35.40169,2.6924585 35.694568,0.754055324 37.09343,0.433448324 C38.5878944,0.090906506 40.0844284,-0.0558774222 41.5801346,0.0191699997 C42.7406104,0.0775248886 42.9078116,1.7165661 41.7877566,2.02530898 Z" id="Path"></path>
                            <path d="M4.021383,29.7310514 C3.42817728,31.9024602 3.60889808,34.214583 4.54147266,36.263212 C5.07259872,37.4316894 5.67546128,38.5560212 6.34454216,39.6320688 C7.50763924,44.5115308 9.79561994,48.9605736 12.90995,52.6950106 C14.1027074,54.1251882 12.1452664,56.0238604 10.7538541,54.7859918 C4.51953786,49.2400702 0.430556992,41.307806 0,32.4294476 C1.44576651,14.6622464 10.4155889,1.81037538 20.8546302,0.176990314 C22.6641834,-0.106506841 23.3183652,2.26245332 21.7874806,3.01499686 C15.6502845,6.03165492 11.0824625,12.8042709 8.52284876,19.7582974 C6.5142266,22.7174284 5.01327816,26.1097374 4.021383,29.7310514 Z" id="Path"></path>
                        </g>
                    </g>
                    <g id="Group-2" transform="translate(58.884241, 43.265807) rotate(-61.000000) translate(-58.884241, -43.265807) translate(52.232702, 20.752762)">
                        <path d="M9.26074482,20.4154092 C8.77078964,19.7375371 7.93324546,19.3452138 7.04721188,19.4697842 C6.1611783,19.5943546 5.46436766,20.2025128 5.1804516,20.989282 L9.59167602,45.026089 C11.3599153,44.5032796 11.9816491,44.3873176 13.3030786,43.8835082 L9.26074482,20.4154092 Z" id="Path" fill="#BBBBBB"></path>
                        <path d="M7.07366064,19.657701 C8.03789766,19.5220286 8.94172702,20.0488814 9.3275198,20.8911604 L8.535363,15.2577369 L4.45506976,15.8316098 L5.24722656,21.4650332 C5.38600094,20.548959 6.10942362,19.7933734 7.07366064,19.657701 Z" id="Path" fill="#979797"></path>
                        <path d="M10.250451,5.60165248 C10.0189427,3.9556251 9.6138848,2.7602063 9.07968508,1.90584592 C9.07070556,1.90715203 9.0618893,1.90813161 9.05290978,1.90927446 C6.13734176,2.3192303 3.91238032,3.6370971 4.57441574,8.34399744 C4.96935128,11.1519745 6.23987152,14.0771751 7.81912394,15.8960991 C8.49128172,15.76059 9.06433826,15.3107977 9.33176466,14.6743947 C10.3260423,12.3083732 10.6942025,8.75721856 10.250451,5.60165248 L10.250451,5.60165248 Z" id="Path" fill="#FFFFFF"></path>
                        <path d="M8.00475508,15.7101414 C6.43448218,13.9821555 5.16134972,11.0974444 4.77294472,8.3346914 C4.13931724,3.82893226 6.26909578,2.56739154 9.0600934,2.17490494 C9.11543988,2.16706828 9.17029658,2.16037446 9.22531654,2.15351736 C8.09373394,0.113370755 6.30305468,-0.190626764 4.3216831,0.088064839 C1.53068548,0.48055143 -0.580317696,1.87629514 0.143431497,7.02286538 C0.587182976,10.1784314 1.92039658,13.4904044 3.52887324,15.4902248 C3.98797154,16.0609957 4.71939414,16.3400138 5.44461272,16.2379738 L7.69618616,15.921405 C7.84051152,15.9011602 7.97912264,15.8624667 8.11365214,15.8143038 C8.07691776,15.7801816 8.03855072,15.7473656 8.00475508,15.7101414 Z" id="Path" fill="#DADADA"></path>
                    </g>
                </g>
                <g id="Group-Copy-8" transform="translate(32.000000, 89.000000)">
                    <rect id="Rectangle-Copy-2" fill="#FFFFFF" x="0" y="0" width="30" height="30" rx="6"></rect>
                    <polygon id="1" fill="#800343" fill-rule="nonzero" points="16.9377778 23 16.9377778 8.6 15.1277778 8.6 12.4177778 10.22 12.4177778 12.21 15.1277778 10.57 15.1277778 23"></polygon>
                </g>
            </g>
        </g>
    </g>
</svg>