<?xml version="1.0" encoding="UTF-8"?>
<svg  viewBox="0 0 94 123" version="1.1" xmlns="http://www.w3.org/2000/svg" xmlns:xlink="http://www.w3.org/1999/xlink">
    <title>02_icon_nasenabstrich</title>
    <defs>
        <linearGradient x1="100%" y1="0%" x2="0%" y2="100%" id="linearGradient-1">
            <stop stop-color="#FFFFFF" stop-opacity="0.2" offset="0%"></stop>
            <stop stop-color="#FFFFFF" stop-opacity="0.6" offset="100%"></stop>
        </linearGradient>
    </defs>
    <g id="App-|-Design" stroke="none" stroke-width="1" fill="none" fill-rule="evenodd">
        <g id="Schnelltest_Onboarding" transform="translate(-216.000000, -248.000000)">
            <g id="02_icon_nasenabstrich" transform="translate(216.000000, 248.000000)">
                <rect id="Rectangle-Copy" fill="url(#linearGradient-1)" opacity="0.4" x="0" y="20" width="94" height="94" rx="8"></rect>
                <g id="02_Nase_dunkel" transform="translate(7.000000, -0.000000)" fill-rule="nonzero">
                    <path d="M40,4 C17.9085885,4 0,21.9085884 0,44 C0,66.0914114 17.9085885,84 40,84 C45.2801202,84 50.320079,82.9747022 54.9347352,81.1161052 L58.8391932,79.29212 C71.4317434,72.5560118 80,59.2793854 80,44 C80,21.9085884 62.0914114,4 40,4 Z" id="Path" fill="#E8E8E8"></path>
                    <path d="M57.5133264,69.454127 C57.0233712,68.7762548 56.185827,68.3839316 55.2997934,68.508502 C54.4137598,68.6330724 53.7169492,69.2412306 53.4330332,70.0279998 L54.9348984,80.7072596 C56.2738264,80.1679986 57.5768362,79.5586974 58.8393564,78.8832744 L57.5133264,69.454127 Z" id="Path" fill="#BBBBBB"></path>
                    <path d="M55.3262422,68.6964188 C56.2904792,68.5607464 57.1943086,69.0875992 57.5801014,69.9298782 L56.7879446,64.2964548 L52.7076514,64.8703276 L53.4998082,70.503751 C53.6385826,69.5876768 54.3620052,68.8320912 55.3262422,68.6964188 Z" id="Path" fill="#979797"></path>
                    <path d="M32.451327,54.7035534 C31.3150096,52.6958964 29.5493098,50.4319148 27.1016564,49.6376356 C25.3699154,49.075681 23.974988,49.3728214 22.9015274,49.9772246 C20.6331376,51.2544388 17.8312014,50.5261182 16.5324365,48.4704614 C18.1414029,51.5043958 21.6747618,52.1925536 23.9547432,52.3014506 C25.6425662,52.382103 27.2957772,52.8758132 28.6908678,53.8294382 C29.1793536,54.163313 29.641554,54.5366976 30.077632,54.949429 C32.1581048,56.9192088 34.736043,58.2537286 37.511857,58.7511938 C35.4810164,58.1503824 33.6377662,56.7995364 32.451327,54.7035534 L32.451327,54.7035534 Z" id="Path" fill="#FC9460"></path>
                    <path d="M57.0984726,49.9772246 C56.025012,49.3728214 54.6300846,49.075681 52.8983436,49.6376356 C50.4506902,50.4319148 48.6849904,52.6958964 47.548673,54.7035534 C46.362397,56.7995364 44.531065,58.144505 42.514755,58.7459694 C45.2804466,58.2445858 47.848589,56.912515 49.922368,54.9491024 C50.358446,54.5363712 50.8206464,54.1629864 51.3091322,53.8291116 C52.7042228,52.87565 54.3574338,52.3817764 56.0452568,52.301124 C58.3254014,52.192227 61.858597,51.5042326 63.4675636,48.4702982 C62.1686354,50.5261182 59.366699,51.2544388 57.0984726,49.9772246 L57.0984726,49.9772246 Z" id="Path" fill="#FC9460"></path>
                    <path d="M58.5030326,54.6403702 C58.2715244,52.994343 57.8664664,51.798924 57.3322666,50.9445638 C57.3232872,50.9458698 57.314471,50.9468494 57.3054914,50.9479922 C54.3899234,51.357948 52.164962,52.6758148 52.8269974,57.3827152 C53.2219328,60.1906924 54.4924532,63.115893 56.0717056,64.9348168 C56.7438634,64.7993078 57.3169198,64.3495156 57.5843462,63.7131126 C58.5786238,61.347091 58.9467842,57.7959364 58.5030326,54.6403702 L58.5030326,54.6403702 Z" id="Path" fill="#FFFFFF"></path>
                    <path d="M56.2573366,64.7488592 C54.6870638,63.0208732 53.4139314,60.1361622 53.0255264,57.3734092 C52.3918988,52.86765 54.5216774,51.6061094 57.312675,51.2136228 C57.3680214,51.205786 57.4228782,51.1990922 57.4778982,51.1922352 C56.3463156,49.1520886 54.5556362,48.848091 52.5742646,49.1267826 C49.783267,49.5192692 47.6722638,50.915013 48.396013,56.0615832 C48.8397646,59.2171492 50.1729782,62.5291222 51.7814548,64.5289426 C52.2405532,65.0997134 52.9719758,65.3787316 53.6971944,65.2766916 L55.9487678,64.9601228 C56.0930932,64.939878 56.2317042,64.9011844 56.3662338,64.8530216 C56.3294994,64.8188994 56.2911324,64.7860834 56.2573366,64.7488592 Z" id="Path" fill="#DADADA"></path>
                    <path d="M58.9867838,35.2591408 C55.3814254,32.3708378 53.0491996,28.1855658 52.6119786,23.5867462 C52.1440642,18.6648272 50.9553392,13.1522192 49.8343686,7.9427923 C49.2750264,5.34362984 47.7405082,3.16193338 45.6646068,1.74659799 C45.035061,1.95263712 44.3421686,2.23034914 43.6445416,2.60797872 C41.536967,3.74903062 39.024661,6.03390992 39.024661,10.439425 L39.024661,35.5198734 C39.024661,39.8631848 41.1761536,43.8572746 44.7800426,46.2045208 C46.9676166,47.6294888 48.7068676,49.4453106 49.9728166,51.6212928 C50.8101974,50.8119934 51.7825976,50.1427744 52.8983436,49.7808182 C54.6300846,49.2188636 56.025012,49.516004 57.0984726,50.1204072 C59.7715938,51.6253744 63.1865862,50.346691 64.0082938,47.3911234 C64.2071494,46.6758638 64.3180056,45.8639522 64.3180056,44.9424902 C64.3180056,40.6422804 61.6976188,37.4308782 58.9867838,35.2591408 L58.9867838,35.2591408 Z" id="Path" fill="#FFC7AB"></path>
                    <path d="M44.9134292,45.9994612 C41.3772948,43.6962964 39.2693938,39.7400838 39.2693938,35.5200366 L39.2693938,10.4395882 C39.2693938,4.91506192 43.2533612,2.75279386 45.9150538,1.92439245 C44.2420878,0.707422796 42.1901862,0 40,0 C35.2596306,0 31.163011,3.30854442 30.1656314,7.9427923 C29.0444976,13.1522192 27.8559358,18.6648272 27.3880214,23.5867462 C26.9508004,28.1855658 24.6185746,32.371001 21.0132162,35.2591408 C18.3022179,37.4307148 15.6818312,40.6421172 15.6818312,44.9426536 C15.6818312,45.8639522 15.7926874,46.6758638 15.9915429,47.3912866 C16.8132505,50.3468544 20.2284062,51.6255378 22.901364,50.1205704 C23.9748246,49.5161672 25.369752,49.2190268 27.101493,49.7809814 C29.5491466,50.5752606 31.3148464,52.8392422 32.4511636,54.8468992 C35.7662386,60.7036678 44.2099248,60.7449736 47.5483466,54.8468992 C48.2031984,53.6898474 49.0683342,52.4493678 50.151264,51.452478 C48.670623,48.932825 46.7392102,47.188676 44.9134292,45.9994612 Z" id="Path" fill="#FFAA7B"></path>
                    <path d="M62.92667,10.8123199 C60.1691414,13.9287026 58.2834426,18.6502967 62.12635,24.9235516 C69.6364928,37.18337 73.7226634,47.455286 67.3507972,53.8271524 C62.4871634,58.6907862 62.956384,67.9956898 68.024914,72.128554 C75.4152212,64.8713072 80,54.7672264 80,43.590991 C80,30.0294692 73.2493612,18.0458935 62.92667,10.8123199 L62.92667,10.8123199 Z" id="Path" fill="#FFFFFF"></path>
                    <path d="M38.1949536,83.5487058 C48.6851536,70.3261198 28.5303794,63.9067436 16.5324365,56.2635408 C3.42789038,47.915364 12.4942654,34.0813544 18.2883405,23.357197 C21.1286438,18.1000971 19.7521653,13.6309091 17.6111215,10.4395882 C6.98492258,17.6298969 0,29.7946956 0,43.5911544 C0,65.0773464 16.941576,82.6045502 38.1949536,83.5487058 Z" id="Path" fill="#FFFFFF"></path>
                </g>
                <g id="Group-Copy-8" transform="translate(32.000000, 93.000000)">
                    <rect id="Rectangle-Copy-2" fill="#FFFFFF" x="0" y="0" width="30" height="30" rx="6"></rect>
                    <path d="M19.57,22.69 L19.57,20.99 L12.7372222,20.99 L17.38,16.82 C17.7746667,16.468 18.116,16.132 18.404,15.812 L18.61,15.575 C18.9366667,15.185 19.1783333,14.76 19.335,14.3 C19.4916667,13.84 19.57,13.2966667 19.57,12.67 C19.57,11.7833333 19.365,10.9883333 18.955,10.285 C18.545,9.58166667 17.9866667,9.025 17.28,8.615 C16.5733333,8.205 15.7733333,8 14.88,8 C13.96,8 13.1383333,8.19833333 12.415,8.595 C11.6916667,8.99166667 11.12,9.53833333 10.7,10.235 C10.28,10.9316667 10.07,11.7333333 10.07,12.64 L10.07,12.64 L11.89,12.64 C11.8833333,12.1133333 12.0083333,11.6266667 12.265,11.18 C12.5216667,10.7333333 12.8733333,10.375 13.32,10.105 C13.7666667,9.835 14.2766667,9.7 14.85,9.7 C15.4033333,9.7 15.8983333,9.83 16.335,10.09 C16.7716667,10.35 17.1166667,10.7033333 17.37,11.15 C17.6233333,11.5966667 17.75,12.0966667 17.75,12.65 C17.75,13.1033333 17.6583333,13.545 17.475,13.975 C17.2916667,14.405 16.9333333,14.86 16.4,15.34 L16.4,15.34 L10.01,21.09 L10,22.69 L19.57,22.69 Z" id="2" fill="#800343" fill-rule="nonzero"></path>
                </g>
            </g>
        </g>
    </g>
</svg>