<?xml version="1.0" encoding="UTF-8"?>
<svg width="20px" height="15px" viewBox="0 0 20 15" version="1.1" xmlns="http://www.w3.org/2000/svg" xmlns:xlink="http://www.w3.org/1999/xlink">
    <title>visibility</title>
    <g id="App-|-Design" stroke="none" stroke-width="1" fill="none" fill-rule="evenodd">
        <g id="Registrieren_2" transform="translate(-285.000000, -571.000000)" fill="#FFFFFF" fill-rule="nonzero">
            <g id="Button-/-Primary-Copy-9" transform="translate(20.000000, 553.000000)">
                <g id="visibility" transform="translate(265.000000, 18.000000)">
                    <path d="M12.3567007,5.14271954 C12.1942012,4.98022001 11.9300222,4.98022001 11.7675227,5.14271954 C11.6050232,5.30521907 11.6050232,5.57021831 11.7675227,5.73189753 C12.239201,6.20357585 12.5000206,6.83107404 12.5000206,7.49939243 C12.5000206,8.87770876 11.3783441,9.99938522 10.0000278,9.99938522 C9.33170941,9.99938522 8.70421122,9.73938597 8.23253289,9.26688733 C8.07003336,9.1043878 7.80585444,9.1043878 7.64335491,9.26688733 C7.48085538,9.42856655 7.48085538,9.69356579 7.64335491,9.85606532 C8.27167341,10.4860635 9.10917099,10.8327422 10.0000278,10.8327422 C11.8383428,10.8327422 13.3333385,9.3377465 13.3333385,7.49943149 C13.3333385,6.60853562 12.9866989,5.77103804 12.3567007,5.14271954 Z" id="Path"></path>
                    <path d="M10.5808464,4.2235425 C10.3916673,4.19022229 10.1983475,4.16604267 10.0000278,4.16604267 C8.16171279,4.16604267 6.6667171,5.66103836 6.6667171,7.49935337 C6.6667171,7.69767311 6.69089672,7.89103192 6.72503724,8.080172 C6.76085745,8.28185111 6.93671632,8.4243507 7.13421575,8.4243507 C7.15839537,8.4243507 7.18253592,8.42267102 7.20753585,8.41767103 C7.43335551,8.37767114 7.58503476,8.16099208 7.54503488,7.93517242 C7.51921464,7.79349314 7.50003501,7.64935293 7.50003501,7.49935337 C7.50003501,6.12103703 8.62171146,4.99936058 10.0000278,4.99936058 C10.1500274,4.99936058 10.2942066,5.01854021 10.4358469,5.04354014 C10.6575259,5.08854001 10.8783456,4.93186077 10.9183455,4.70604111 C10.9583453,4.48022145 10.8067052,4.26354239 10.5808464,4.2235425 Z" id="Path"></path>
                    <path d="M19.9008195,7.23021352 C19.8066401,7.11853415 17.552506,4.48772143 14.4433353,2.87690576 C14.2416562,2.77108576 13.9875163,2.85108553 13.8816572,3.05608493 C13.7758372,3.26026403 13.855837,3.51190393 14.0608364,3.617763 C16.4558295,4.85775942 18.3691443,6.79275384 19.0233221,7.49943149 C18.0300046,8.5752487 14.1208362,12.4994171 10.0000278,12.4994171 C8.60171152,12.4994171 7.19253589,12.161918 5.81003988,11.4952403 C5.60504047,11.3944203 5.35422089,11.48192 5.25422117,11.6894194 C5.15340115,11.8960985 5.2409009,12.1452384 5.4484003,12.2452381 C6.9442163,12.967736 8.47589157,13.332735 10.0000669,13.332735 C15.1342317,13.332735 19.7092185,7.99607068 19.901718,7.76857134 C20.0333192,7.61353272 20.0324989,7.38603338 19.9008195,7.23021352 Z" id="Path"></path>
                    <path d="M12.7341996,2.1460485 C11.785882,1.82686973 10.8658847,1.66604988 10.0000278,1.66604988 C4.86586292,1.66604988 0.290876117,7.00271417 0.0983766722,7.23021352 C-0.0233026643,7.37353342 -0.0333026355,7.58189219 0.0750564269,7.73771205 C0.132556261,7.82021182 1.51005229,9.77602649 3.8975454,11.3618813 C3.96836551,11.4093811 4.04754497,11.4318811 4.12754474,11.4318811 C4.26172404,11.4318811 4.39422365,11.3668813 4.47422342,11.2443816 C4.60172306,11.0535619 4.54922321,10.7943829 4.35754407,10.6677036 C2.60422882,9.50188665 1.40423228,8.09439071 0.955053888,7.52189236 C1.91423081,6.48021568 5.84921946,2.49940685 10.0000278,2.49940685 C10.7758459,2.49940685 11.6067028,2.64608612 12.468341,2.93522591 C12.6866607,3.01354599 12.9233397,2.89272603 12.9958395,2.67354697 C13.0691986,2.45522729 12.9525193,2.21940766 12.7341996,2.1460485 Z" id="Path"></path>
                    <path d="M17.3775065,0.121874648 C17.215007,-0.0406248828 16.9508281,-0.0406248828 16.7883285,0.121874648 L2.62172877,14.2885135 C2.45922924,14.451013 2.45922924,14.7151919 2.62172877,14.8776915 C2.70340822,14.9585115 2.81004854,14.9993708 2.91672792,14.9993708 C3.0234073,14.9993708 3.13004761,14.9585506 3.21090676,14.8776915 L17.3775065,0.711052636 C17.540006,0.548553105 17.540006,0.28437418 17.3775065,0.121874648 Z" id="Path"></path>
                </g>
            </g>
        </g>
    </g>
</svg>