<?xml version="1.0" encoding="UTF-8"?>
<svg width="20px" height="12px" viewBox="0 0 20 12" version="1.1" xmlns="http://www.w3.org/2000/svg" xmlns:xlink="http://www.w3.org/1999/xlink">
    <title>visibility (1)</title>
    <g id="App-|-Design" stroke="none" stroke-width="1" fill="none" fill-rule="evenodd">
        <g id="Registrieren_1" transform="translate(-285.000000, -572.000000)" fill="#FFFFFF" fill-rule="nonzero">
            <g id="Button-/-Primary-Copy-6" transform="translate(20.000000, 553.000000)">
                <g id="visibility-(1)" transform="translate(265.000000, 19.000000)">
                    <path d="M19.9259514,5.59677411 C19.7684487,5.36759055 15.9833849,0 9.99996362,0 C4.86569732,0 0.290620137,5.33676972 0.0981168896,5.56427356 C-0.0327056299,5.71927617 -0.0327056299,5.94678001 0.0981168896,6.10260295 C0.290620137,6.33010679 4.86569732,11.6668765 9.99996362,11.6668765 C15.1342299,11.6668765 19.709268,6.33010679 19.9017713,6.10260295 C20.0226327,5.95928022 20.0334532,5.75177672 19.9259514,5.59677411 Z M9.99996362,10.8335421 C5.88407387,10.8335421 1.97064848,6.90847592 0.976491083,5.83345779 C1.96900783,4.75761932 5.87825346,0.833373434 9.99996362,0.833373434 C14.8158652,0.833373434 18.2151022,4.75261924 19.0451162,5.81095741 C18.0867407,6.85179528 14.150854,10.8335421 9.99996362,10.8335421 Z" id="Shape"></path>
                    <path d="M9.99996362,2.50004218 C8.1616123,2.50004218 6.66658707,3.9950674 6.66658707,5.83341872 C6.66658707,7.67177005 8.1616123,9.16679527 9.99996362,9.16679527 C11.8383149,9.16679527 13.3333402,7.67177005 13.3333402,5.83341872 C13.3333402,3.9950674 11.8383149,2.50004218 9.99996362,2.50004218 Z M9.99996362,8.33349996 C8.62162006,8.33349996 7.49992145,7.21180135 7.49992145,5.83345779 C7.49992145,4.45511422 8.62162006,3.33341561 9.99996362,3.33341561 C11.3783072,3.33341561 12.5000058,4.45511422 12.5000058,5.83345779 C12.5000058,7.21180135 11.3783072,8.33349996 9.99996362,8.33349996 Z" id="Shape"></path>
                </g>
            </g>
        </g>
    </g>
</svg>