<?xml version="1.0" encoding="UTF-8"?>
<svg width="121px" height="121px" viewBox="0 0 121 121" version="1.1" xmlns="http://www.w3.org/2000/svg" xmlns:xlink="http://www.w3.org/1999/xlink">
    <title>icon_identifikation</title>
    <defs>
        <linearGradient x1="100%" y1="0%" x2="0%" y2="100%" id="linearGradient-1">
            <stop stop-color="#AF2F70" stop-opacity="0.1" offset="0%"></stop>
            <stop stop-color="#800343" offset="51.0231712%"></stop>
            <stop stop-color="#800343" offset="100%"></stop>
        </linearGradient>
    </defs>
    <g id="App-|-Design" stroke="none" stroke-width="1" fill="none" fill-rule="evenodd">
        <g id="Identifikation" transform="translate(-48.000000, -166.000000)">
            <g id="Group" transform="translate(20.000000, 134.000000)">
                <g id="icon_identifikation" transform="translate(28.000000, 32.000000)">
                    <rect id="Rectangle-Copy-3" fill="url(#linearGradient-1)" opacity="0.2" x="20.3031674" y="0" width="100" height="100" rx="15"></rect>
                    <g id="Man" transform="translate(0.000000, 20.300257)" fill-rule="nonzero">
                        <g id="Group-10-Copy-2">
                            <path d="M50,0 C22.3857356,0 0,22.3857356 0,50 C0,77.6142643 22.3857356,100 50,100 C56.6001502,100 62.9000987,98.7183777 68.668419,96.3951315 L73.5489915,94.11515 C89.2896792,85.6950147 100,69.0992317 100,50 C100,22.3857356 77.6142643,0 50,0 Z" id="Path" fill="#800343"></path>
                            <path d="M78.6583375,9.02645692 C75.2114268,12.9219353 72.8543033,18.823928 77.6579375,26.6654965 C87.045616,41.9902695 92.1533292,54.8301648 84.1884965,62.7949975 C78.1089543,68.8745397 78.69548,80.5056692 85.0311425,85.6717495 C94.2690265,76.600191 100,63.97009 100,49.999796 C100,33.0478935 91.5617015,18.0684239 78.6583375,9.02645692 L78.6583375,9.02645692 Z" id="Path" fill="#93044D"></path>
                            <path d="M47.743692,99.9469392 C60.856442,83.4187067 35.6629742,75.3944865 20.6655456,65.840483 C4.28486297,55.405262 15.6178317,38.11275 22.8604256,24.7075534 C26.4108047,18.1361785 24.6902066,12.5496935 22.0139019,8.56054237 C8.73115322,17.5484282 1.13686838e-13,32.7544265 1.13686838e-13,50 C1.13686838e-13,76.85774 21.17697,98.7667448 47.743692,99.9469392 Z" id="Path" fill="#93044D"></path>
                            <g id="Group-11" transform="translate(23.360178, 14.461063)">
                                <g id="Woman" transform="translate(16.579453, 0.000000)">
                                    <g id="003-woman" transform="translate(0.000000, 0.000000)">
                                        <path d="M35.760077,47.5964679 L23.5529332,47.6069926 C23.5529332,48.1118072 23.1439255,48.520684 22.6389496,48.520684 L10.1478063,47.6069926 C9.64283039,47.6069926 9.23382271,47.1981157 9.23382271,46.6933013 L0.571707899,47.5964679 C0.571707899,44.1484251 2.62245863,41.177786 5.57119827,39.8380861 C4.36805309,38.8811085 2.53425922,37.5948595 1.20007163,34.827631 C-0.6581713,30.9789345 -0.340105003,26.4385736 2.02722681,22.8845425 C3.31365874,20.9543695 3.99914645,18.688415 3.99914645,16.3699231 L3.99914645,11.4211422 C3.99914645,5.11324536 9.11402725,0 15.4239416,0 L20.9078433,0 C27.2177577,0 32.3326385,5.11324536 32.3326385,11.4211422 C32.3326385,16.6619617 32.2045665,17.6882655 32.8364719,19.7722814 C33.7281772,22.7190502 34.9059593,23.0836131 35.8137735,26.0824624 C37.2408447,30.7964246 35.6622808,35.9374233 31.7728234,39.0328955 L30.7605867,39.8380861 C33.7093263,41.177786 35.760077,44.1484251 35.760077,47.5964679 Z" id="Path" fill="#FFAA7B"></path>
                                        <path d="M28.6992643,16.7861706 C29.1856523,16.8137548 29.5664481,17.2115606 29.5664481,17.6964506 L29.5664481,23.1547117 C29.5664481,27.8588515 26.6746902,31.8904828 22.5632406,33.5842922 C15.128617,36.6558322 6.89048578,31.1992808 6.89048578,23.1547117 L6.89048578,17.7757839 C6.89048578,17.2413106 7.35041842,16.8189981 7.88525046,16.8672136 C13.3809646,17.3631601 18.7928464,15.9818961 23.3373154,12.9348627 C23.8541671,12.58835 24.5658257,12.845043 24.729024,13.4436895 C25.2943197,15.5175233 26.8361706,16.680507 28.6992643,16.7861706 Z" id="Path" fill="#FFAA7B"></path>
                                        <path d="M22.6759623,35.4393755 C19.8757338,36.5842582 16.7984033,36.6730691 13.7809716,35.4393755 C13.9350938,34.8148133 13.9094068,34.4102799 13.9094068,33.616533 L13.9264556,33.575458 C16.6636033,34.6851494 19.7879886,34.6873696 22.5304782,33.575458 L22.547527,33.616533 C22.547527,34.4106129 22.52184,34.8150353 22.6759623,35.4393755 Z" id="Path" fill="#FC9460"></path>
                                    </g>
                                    <g id="005-mann">
                                        <path d="M23.2515501,36.7036343 C24.0917339,37.9969955 25.552289,38.8510741 27.2110168,38.8516436 C31.9022418,38.853352 35.7058516,42.6533694 35.7058516,47.3445944 L35.7058516,48.4551843 C34.0100701,50.1175366 32.0790069,51.5407943 29.9672753,52.6704188 L29.9672753,52.6704188 L27.5214923,53.8129773 C24.6308357,54.977217 21.4737662,55.6194715 18.1662577,55.6194715 C11.3369919,55.6194715 5.14586243,52.8873167 0.626282182,48.45642 L0.626839384,47.3445944 C0.626839384,42.6533694 4.43027364,38.853352 9.12149854,38.8516436 C10.7802264,38.8510741 12.2406677,37.9969955 13.0809654,36.7036343 C14.4842573,37.9024861 16.1848378,45.6758342 17.915263,45.7277692 C19.8018001,45.7843896 21.7207679,38.0114138 23.2515501,36.7036343 Z" id="Combined-Shape" fill="#E8E8E8"></path>
                                        <path d="M28.5969726,30.1830707 C30.4507979,31.3428363 28.98899,34.1870694 26.9596565,33.3725115 C22.7873249,31.6978387 19.8746425,27.6318827 19.8746425,22.9021621 L19.8746425,15.5105501 C19.8746425,14.3620599 20.2288477,13.2962554 20.8338438,12.4163234 C21.5757384,11.3374214 23.2914124,11.8140607 23.2914124,13.2327036 L23.2914124,20.6243156 C23.2914124,24.7825245 25.4772339,28.231184 28.5969726,30.1830707 Z" id="Path" fill="#FFC7AB" transform="translate(24.661414, 22.671709) scale(-1, 1) translate(-24.661414, -22.671709) "></path>
                                        <path d="M13.0809654,36.7036343 C13.4196811,36.9929208 14.0315347,37.9603126 14.9704906,40.6073936 C15.1467827,41.1043919 14.2860454,41.4221343 13.7110177,41.6029405 C13.2898438,41.7353972 12.8381469,41.8084023 12.3538767,41.8126163 C7.65057915,41.8540731 3.81582453,45.5729993 3.81582453,50.2765246 L3.81533275,51.1052725 C2.67978683,50.3104935 1.6131834,49.4239562 0.626282182,48.45642 L0.626839384,47.3445944 C0.626839384,42.6532555 4.43027364,38.853352 9.12149854,38.8516436 C10.7802264,38.8510741 12.2406677,37.9969955 13.0809654,36.7036343 Z" id="Combined-Shape" fill="#DADADA"></path>
                                        <path d="M23.2515501,36.7036343 C24.0918477,37.9969955 25.552289,38.8510741 27.2110168,38.8516436 C31.9022418,38.853352 35.7056761,42.6532555 35.7056761,47.3445944 L35.7056761,47.3445944 L35.7058516,48.4551843 C34.7189278,49.4226527 33.6523118,50.3091375 32.5167693,51.1038877 L32.5166909,50.2765246 C32.5166909,45.5729993 28.6819362,41.8540731 23.9786387,41.8126163 C23.4943686,41.8084023 23.0426716,41.7353972 22.6214978,41.6029405 C22.0013984,41.4079623 21.119649,41.0341069 21.3036201,40.5003487 C22.0495545,38.3361572 22.9128344,36.9929208 23.2515501,36.7036343 Z" id="Combined-Shape" fill="#FFFFFF"></path>
                                        <path d="M31.7730463,39.0342042 L30.7607776,39.8395359 C29.6879554,39.3528648 28.4963116,39.0810325 27.240687,39.0810325 C24.6324382,39.0810325 22.5072449,36.9754743 22.5072449,34.359374 L22.5072449,33.5792838 L22.4901071,33.5370242 C26.5917382,31.8397856 29.47659,27.7999921 29.47659,23.0863287 L29.47659,17.6170172 C29.47659,17.1311455 29.0967036,16.7325343 28.6114772,16.7048942 C26.764258,16.5997019 25.2183201,15.4470417 24.6507184,13.3557604 C24.4879099,12.7559019 23.7779507,12.4986891 23.2623334,12.8459034 C18.7316877,15.8970498 13.3330731,17.2833944 7.84717022,16.7862155 C7.31361535,16.7379024 6.85478116,17.1610699 6.85478116,17.6966253 L6.85478116,23.0864429 C6.85478116,27.8001064 9.73963299,31.8398997 13.8412641,33.5371383 L13.8241263,33.5793981 L13.8241263,34.3594883 C13.8241263,36.9751317 11.6995043,39.0811467 9.09068416,39.0811467 C7.8350595,39.0811467 6.64341576,39.352979 5.57059357,39.8395359 L4.55832476,39.0343184 C-0.3557491,35.1199333 -1.44993629,28.1044899 2.02651019,22.885424 C3.31298275,20.9551864 3.99849211,18.6891558 3.99849211,16.3705861 L3.99849211,11.4215251 C3.99849211,5.11364522 9.11376291,0 15.4236481,0 L20.9077229,0 C27.2176081,0 32.332879,5.11364522 32.332879,11.4215251 L32.332879,16.370472 C32.332879,18.6863004 33.0183884,20.9550721 34.304861,22.8853099 C37.7939894,28.1234497 36.6684972,35.1380936 31.7730463,39.0342042 Z" id="Path" fill="#1A1A1A"></path>
                                        <path d="M26.1546651,1.22926571 C27.3252151,1.82093979 26.8165096,3.60133049 25.5097852,3.4780841 C25.1495189,3.4440457 24.7843239,3.42668384 24.4151169,3.42668384 L18.9131194,3.42668384 C12.5826126,3.42668384 7.45062439,8.54066679 7.45062439,14.8489633 L7.45062439,16.2388262 C7.45062439,17.0594028 6.87749972,17.0329031 6.87749972,17.6976798 C6.87749972,23.7311562 6.90202947,23.3491952 6.81319508,23.609509 C5.91396238,26.2455426 4.83408074,26.6270468 3.95800225,29.5117434 C3.48081858,31.0829922 3.3398299,32.7010722 3.50511907,34.271293 C3.64003264,35.5528728 1.84924707,36.1659065 1.20356472,34.8310989 C-0.647513578,31.0095469 -0.357627083,26.4650789 2.03344936,22.8868213 C3.32412628,20.9564561 4.01187598,18.6902759 4.01187598,16.3715532 L4.01187598,11.4222795 C4.01187598,5.11398295 9.14386418,0 15.4743708,0 L20.9763685,0 C22.8398262,0 24.5993192,0.44307022 26.1546651,1.22926571 Z" id="Path" fill="#202020"></path>
                                    </g>
                                </g>
                                <g id="005-mann" transform="translate(0.000000, 15.573452)">
                                    <path d="M35.000556,47.3631915 L24.375556,49.875 C24.375556,50.3772727 23.9687377,50.7840909 23.4664651,50.7840909 L12.375556,48.75 C11.8732832,48.75 11.466465,48.3431819 11.466465,47.8409091 L0.000555950974,47.3631915 C0.000555950974,42.6825096 3.79487413,38.8904642 8.47669232,38.8893279 C10.1312378,38.8881915 11.588056,38.0370551 12.4266923,36.746146 C13.2691923,35.4513732 13.1823741,34.3254642 13.1823741,33.4154642 L13.1994196,33.3734187 C9.11987413,31.6847824 6.25055596,27.6654642 6.25055596,22.9756915 L6.25055596,22.6200096 C4.63066959,22.6200096 3.40964686,21.339896 3.40964686,19.8313732 L3.40964686,15.108646 C3.37328322,13.4643279 3.44828322,7.6654642 7.63691959,3.6279642 C12.5073741,-1.06635399 20.225556,-0.682263077 25.8164651,1.82910056 C25.9982832,1.91091874 25.9926013,2.17114601 25.8085105,2.24728237 L24.350556,2.84728237 C24.1323741,2.9370551 24.1789651,3.25864601 24.413056,3.28364601 L25.1210105,3.35978237 C28.5107832,3.72228237 31.6596468,5.56319147 33.6119196,8.62682784 C33.6641923,8.70978237 33.6494196,8.83591874 33.5823741,8.90750965 C32.3778287,10.1813733 31.7051013,11.8722824 31.7051013,13.6302369 L31.7051013,19.8313732 C31.7051013,21.371146 30.4562377,22.6200096 28.9164651,22.6200096 L28.750556,22.6200096 L28.750556,22.9756915 C28.750556,27.6654642 25.8812377,31.6847824 21.8016923,33.3734187 L21.8187377,33.4154642 C21.8187377,34.2992142 21.7247605,35.4404642 22.5744196,36.746146 C23.413056,38.0370551 24.8698741,38.8881915 26.5244196,38.8893279 C31.2062377,38.8904642 35.000556,42.6825096 35.000556,47.3631915 Z" id="Path" fill="#FFAA7B"></path>
                                    <path d="M22.5744196,36.746146 C23.4127151,38.0366005 24.8699877,38.8887596 26.5249877,38.8893279 C31.2056696,38.8910324 35.0007311,42.6825096 35.0007311,47.3631915 L35.0007311,48.4712854 C33.3087607,50.1299017 31.3820375,51.5499607 29.2750517,52.6770465 L29.2750517,52.6770465 L26.8347655,53.8170372 C23.9506053,54.9786604 20.8006311,55.6194715 17.500556,55.6194715 C10.6866384,55.6194715 4.50942288,52.893457 1.25577717e-15,48.4725184 L0.000555950974,47.3631915 C0.000555950974,42.6825096 3.79544232,38.8910324 8.47612413,38.8893279 C10.1311241,38.8887596 11.5882832,38.0366005 12.4266923,36.746146 C15.3532832,39.2463732 19.6461241,39.2478505 22.5744196,36.746146 Z" id="Combined-Shape" fill="#E8E8E8"></path>
                                    <path d="M33.6114651,8.62739601 C33.6641923,8.71023692 33.6494196,8.83569147 33.5820332,8.9070551 C32.3778287,10.1818278 31.7051013,11.8721687 31.7051013,13.6302369 L31.7051013,19.8313732 C31.7051013,21.2391005 30.6445332,22.6200096 28.750556,22.6200096 L28.750556,15.6006915 C28.750556,12.5881915 26.3085105,10.146146 23.2960105,10.146146 L11.7051014,10.146146 C8.69260141,10.146146 6.25055596,12.5881915 6.25055596,15.6006915 L6.25055596,22.6200096 C4.63066959,22.6200096 3.40964686,21.339896 3.40964686,19.8313732 L3.40964686,15.108646 C3.37328322,13.4643279 3.44828322,7.6654642 7.63691959,3.6279642 C12.5070332,-1.06646762 20.2260105,-0.68214944 25.8160105,1.82944147 C25.9978287,1.91114601 25.993056,2.17148692 25.8086241,2.24739601 L24.350556,2.84762329 C24.1326013,2.93739601 24.1785105,3.25864601 24.4128287,3.28375965 L25.1210105,3.35978237 C28.5113513,3.72194147 31.6594196,5.56285056 33.6114651,8.62739601 Z" id="Path" fill="#1A1A1A"></path>
                                    <path d="M28.750556,22.9756915 C28.750556,29.191146 23.7110105,34.2256915 17.500556,34.2256915 C11.6491923,34.2256915 6.25055596,29.6767142 6.25055596,22.6200096 L6.25055596,15.6006915 C6.25055596,12.5881915 8.69260141,10.146146 11.7051014,10.146146 L23.2960105,10.146146 C26.3085105,10.146146 28.750556,12.5881915 28.750556,15.6006915 L28.750556,22.9756915 Z" id="Path" fill="#FFAA7B"></path>
                                    <path d="M27.9078287,30.2402369 C29.7574877,31.397396 28.2989651,34.2352369 26.2741923,33.4225096 C22.1112377,31.7516005 19.2051013,27.6947824 19.2051013,22.9756915 L19.2051013,15.6006915 C19.2051013,14.4547824 19.5585104,13.3913732 20.1621468,12.5134187 C20.9023741,11.4369415 22.6141923,11.9125096 22.6141923,13.3279642 L22.6141923,20.7029642 C22.6141923,24.8518279 24.7951013,28.2927369 27.9078287,30.2402369 Z" id="Path" fill="#FFC7AB" transform="translate(23.981115, 22.745756) scale(-1, 1) translate(-23.981115, -22.745756) "></path>
                                    <path d="M21.9471468,35.2813732 C19.1474877,36.4533051 16.0707832,36.5442142 13.0539651,35.2813732 C13.208056,34.6420551 13.1823741,34.2279642 13.1823741,33.4154642 L13.1994196,33.3734187 C15.9360105,34.5093279 19.0597605,34.5116005 21.8016923,33.3734187 L21.8187377,33.4154642 C21.8187377,34.2283051 21.793056,34.6422824 21.9471468,35.2813732 Z" id="Path" fill="#FC9460"></path>
                                    <path d="M12.4266923,36.746146 C12.7646468,37.0347824 13.1264651,37.2942142 13.5076013,37.5213732 C15.1840787,38.5203505 14.9169196,41.0491005 13.0553287,41.6344415 C12.6351013,41.7666005 12.1844196,41.8394415 11.7012378,41.843646 C7.00851049,41.8850096 3.18237413,45.5955779 3.18237413,50.2885324 L3.18188346,51.1154177 C2.04888958,50.322425 0.984683247,49.4378801 1.25577717e-15,48.4725184 L0.000555950974,47.3631915 C0.000555950974,42.682396 3.79544232,38.8910324 8.47612413,38.8893279 C10.1311241,38.8887596 11.5882832,38.0366005 12.4266923,36.746146 Z" id="Combined-Shape" fill="#DADADA"></path>
                                    <path d="M22.5744196,36.746146 C23.4128287,38.0366005 24.8699877,38.8887596 26.5249877,38.8893279 C31.2056696,38.8910324 35.000556,42.682396 35.000556,47.3631915 L35.000556,47.3631915 L35.0007311,48.4712854 C34.0160253,49.4365795 32.9518065,50.321072 31.818816,51.1140361 L31.8187377,50.2885324 C31.8187377,45.5955779 27.9926013,41.8850096 23.2998741,41.843646 C22.8166923,41.8394415 22.3660105,41.7666005 21.9457832,41.6344415 C20.0841923,41.0491005 19.8171468,38.5203505 21.4935105,37.5213732 C21.8746468,37.2942142 22.2364651,37.0347824 22.5744196,36.746146 Z" id="Combined-Shape" fill="#FFFFFF"></path>
                                    <path d="M25.8085105,2.24728237 C24.4723741,2.79716874 24.2819196,2.91841874 23.8189651,2.84660056 C16.3560105,1.68978237 9.80828322,4.77762329 7.58464686,12.0268278 L7.58464686,12.0279642 C6.75282868,12.9847824 6.25055596,14.2347824 6.25055596,15.6006915 L6.25055596,19.8646687 C6.25055596,21.7042142 3.40964686,21.8322824 3.40964686,19.8313732 L3.40964686,15.108646 C3.37328322,13.4643279 3.44828322,7.6654642 7.63691959,3.6279642 C12.5073741,-1.06635399 20.225556,-0.682263077 25.8164651,1.82910056 C25.9982832,1.91091874 25.9926013,2.17114601 25.8085105,2.24728237 Z" id="Path" fill="#202020"></path>
                                </g>
                            </g>
                        </g>
                    </g>
                </g>
            </g>
        </g>
    </g>
</svg>