<svg viewBox="0 0 13 17" fill="none" xmlns="http://www.w3.org/2000/svg">
<path d="M9.96061 7.94867C9.73814 8.22881 9.48821 8.48742 9.20115 8.72084C10.8397 9.66073 11.9459 11.4278 11.9459 13.4483C11.9459 14.5401 9.55374 15.3954 6.49996 15.3954C3.44619 15.3954 1.05404 14.5401 1.05404 13.4483C1.05404 11.4278 2.16024 9.66073 3.79877 8.72084C3.51175 8.48742 3.26182 8.22884 3.03932 7.94867C1.21462 9.10097 0 11.1353 0 13.4483C0 14.149 0.383655 15.1255 2.21149 15.7985C3.35164 16.2183 4.87466 16.4494 6.5 16.4494C8.12534 16.4494 9.64836 16.2183 10.7885 15.7985C12.6163 15.1255 13 14.149 13 13.4483C12.9999 11.1353 11.7853 9.10097 9.96061 7.94867Z" fill="#1A1A1A"/>
<path fill-rule="evenodd" clip-rule="evenodd" d="M10.1259 4.32163C10.1259 6.6631 8.54847 8.64323 6.49996 8.64323C4.45229 8.64323 2.87402 6.66415 2.87402 4.32159C2.87402 1.98013 4.45146 0 6.49996 0C8.54767 0 10.1259 1.97908 10.1259 4.32163ZM9.07186 4.3216C9.07186 2.51985 7.91809 1.05404 6.49996 1.05404C5.08184 1.05404 3.92806 2.51985 3.92806 4.3216C3.92806 6.12334 5.08184 7.58915 6.49996 7.58915C7.91809 7.58915 9.07186 6.12334 9.07186 4.3216Z" fill="#1A1A1A"/>
</svg>
