<?xml version="1.0" encoding="UTF-8"?>
<svg width="24px" height="20px" viewBox="0 0 24 20" version="1.1" xmlns="http://www.w3.org/2000/svg" xmlns:xlink="http://www.w3.org/1999/xlink">
    <title>Combined Shape 2</title>
    <g id="App-|-NEU" stroke="none" stroke-width="1" fill="none" fill-rule="evenodd">
        <g id="Registrieren_2_NEU" transform="translate(-335.000000, -598.000000)" fill="#FFFFFF" fill-rule="nonzero">
            <g id="Group-2" transform="translate(20.000000, 419.000000)">
                <g id="Button-/-Primary-Copy-13" transform="translate(0.000000, 164.000000)">
                    <g id="Combined-Shape-2" transform="translate(315.000000, 15.000000)">
                        <path d="M2.03712433,8.6776408 C2.44858049,8.1409191 3.09502384,8.33750371 3.54945431,8.68769862 C3.55494039,8.69135601 5.7173711,10.3563819 5.7173711,10.3563819 C6.1178551,10.6645169 6.19191721,11.2378125 5.88378226,11.6382965 C5.57656166,12.0387805 5.00326608,12.1119282 4.60186773,11.805622 L4.60186773,11.805622 L3.81918668,11.2030673 C4.25441586,14.1582369 6.29340973,16.7028646 9.21657716,17.7177898 C12.7395562,18.9430148 16.6374176,17.6300125 18.6937841,14.5267187 C18.9744886,14.1061191 19.5395551,13.9890827 19.9619834,14.2697872 C20.382583,14.548663 20.4977907,15.1164725 20.2189149,15.5370722 C18.3307883,18.3834345 15.1772054,20 11.9001857,20 C10.8057123,20 9.69660935,19.8198736 8.61585117,19.4449914 C5.1047586,18.2261668 2.6314499,15.2051642 2.03620998,11.673956 L2.03620998,11.673956 L1.63846903,12.1905621 C1.45925701,12.4246349 1.18769595,12.5471574 0.913391839,12.5471574 C0.718635923,12.5471574 0.522051313,12.4849818 0.356554502,12.3578876 C-0.0439294945,12.0497526 -0.117991603,11.476457 0.190143344,11.075973 L0.190143344,11.075973 Z M3.55494039,4.46250102 C6.07305209,0.664303488 10.8422862,-0.942204233 15.1580041,0.555496192 C18.6690967,1.77432078 21.1424054,4.79532334 21.7376453,8.32653155 L21.7376453,8.32653155 L22.1353863,7.80992548 C22.4426069,7.40944148 23.0168168,7.33446503 23.4173008,7.64259997 C23.8177848,7.95073492 23.8918469,8.5240305 23.5837119,8.9245145 L23.5837119,8.9245145 L21.736731,11.3228467 C21.3188744,11.8677976 20.6870606,11.6684699 20.224401,11.3127889 C20.2189149,11.3082172 18.0564842,9.64410561 18.0564842,9.64410561 C17.6560002,9.33597066 17.5819381,8.76267508 17.890073,8.36219108 C18.1972936,7.96079274 18.7705892,7.88764498 19.1719876,8.19486558 L19.1719876,8.19486558 L19.9546686,8.79742026 C19.5194394,5.84225068 17.4804456,3.29762292 14.5572781,2.28269772 C11.0379564,1.05838706 7.13643768,2.37138938 5.08007123,5.47376883 C4.79936669,5.89436846 4.23155719,6.00957619 3.8118719,5.73070035 C3.39127227,5.45091016 3.27606455,4.884015 3.55494039,4.46250102 Z" id="Combined-Shape"></path>
                    </g>
                </g>
            </g>
        </g>
    </g>
</svg>