<?xml version="1.0" encoding="UTF-8"?>
<svg width="121px" height="120px" viewBox="0 0 121 120" version="1.1" xmlns="http://www.w3.org/2000/svg" xmlns:xlink="http://www.w3.org/1999/xlink">
    <title>icon_erfolgreich</title>
    <defs>
        <linearGradient x1="100%" y1="0%" x2="0%" y2="100%" id="linearGradient-1">
            <stop stop-color="#AF2F70" stop-opacity="0.1" offset="0%"></stop>
            <stop stop-color="#800343" offset="51.0231712%"></stop>
            <stop stop-color="#800343" offset="100%"></stop>
        </linearGradient>
    </defs>
    <g id="App-|-Design" stroke="none" stroke-width="1" fill="none" fill-rule="evenodd">
        <g id="Angaben-vervollständigen-Fertig" transform="translate(-45.000000, -244.000000)">
            <g id="Group-Copy" transform="translate(20.000000, 204.000000)">
                <g id="icon_erfolgreich" transform="translate(25.000000, 40.000000)">
                    <rect id="Rectangle-Copy-3" fill="url(#linearGradient-1)" opacity="0.2" x="20.3031674" y="0" width="100" height="100" rx="15"></rect>
                    <g id="Check" transform="translate(0.000000, 19.857771)" fill-rule="nonzero">
                        <g id="Group-10-Copy-2">
                            <path d="M50,0 C22.3857356,0 0,22.3857356 0,50 C0,77.6142643 22.3857356,100 50,100 C56.6001503,100 62.9000987,98.7183778 68.668419,96.3951315 L73.5489915,94.11515 C89.2896793,85.6950147 100,69.0992318 100,50 C100,22.3857356 77.6142643,0 50,0 Z" id="Path" fill="#800343"></path>
                            <path d="M78.6583375,9.02645692 C75.2114268,12.9219353 72.8543033,18.823928 77.6579375,26.6654965 C87.045616,41.9902695 92.1533293,54.8301648 84.1884965,62.7949975 C78.1089543,68.8745397 78.69548,80.5056692 85.0311425,85.6717495 C94.2690265,76.600191 100,63.97009 100,49.999796 C100,33.0478935 91.5617015,18.0684239 78.6583375,9.02645692 L78.6583375,9.02645692 Z" id="Path" fill="#93044D"></path>
                            <path d="M47.743692,99.9469393 C60.856442,83.4187068 35.6629742,75.3944865 20.6655456,65.840483 C4.28486297,55.405262 15.6178317,38.11275 22.8604256,24.7075534 C26.4108047,18.1361785 24.6902066,12.5496935 22.0139019,8.56054238 C8.73115322,17.5484282 0,32.7544265 0,50 C0,76.85774 21.17697,98.7667448 47.743692,99.9469393 Z" id="Path" fill="#93044D"></path>
                            <g id="Group" transform="translate(16.000000, 25.000000)">
                                <path d="M65.0889331,0.843464836 L67.2401444,2.99086354 C68.3667609,4.11548333 68.3667609,5.93896308 67.2401444,7.06358287 L24.7149546,49.1565351 C23.5893564,50.2811549 21.7626392,50.2811549 20.6360227,49.1565351 L16.4442764,44.9722177 L3.76365601,32.3130544 L3.76578014,32.2789007 L0.810844194,29.3254358 C-0.343436739,28.2103278 -0.220270326,26.5857796 0.894372178,25.4310861 L3.02271984,23.2262638 C4.13736234,22.0715705 5.97679999,22.0394783 7.13108093,23.1545863 L15.840635,31.9241661 L15.8368794,31.9262411 L22.6754377,38.751998 L60.5365475,1.31607957 L61.0100014,0.843464836 C62.1366177,-0.281154945 63.9623168,-0.281154945 65.0889331,0.843464836 Z" id="Path-4" fill="#E8E8E8"></path>
                                <path d="M61.0109193,8.99949324 L63.1386069,11.1234043 L24.7149549,49.1565352 C23.5893567,50.2811549 21.7626395,50.2811549 20.636023,49.1565352 L16.4442768,44.9722177 L3.76365636,32.3130544 L3.76578049,32.2789007 L2.24392606,30.7576455 C2.53532209,30.8910232 2.80945402,31.0752691 3.05306711,31.3106147 L11.7626213,40.0801946 L11.7588656,40.0822695 L18.5974239,46.9080266 L56.4585336,9.47210797 L56.9319875,8.99949324 C58.0586038,7.87487345 59.884303,7.87487345 61.0109193,8.99949324 Z" id="Combined-Shape" fill="#FFFFFF"></path>
                            </g>
                        </g>
                    </g>
                </g>
            </g>
        </g>
    </g>
</svg>