<?xml version="1.0" encoding="UTF-8"?>
<svg width="92px" height="92px" viewBox="0 0 92 92" version="1.1" xmlns="http://www.w3.org/2000/svg" xmlns:xlink="http://www.w3.org/1999/xlink">
    <title>icon_pufferlösung</title>
    <defs>
        <linearGradient x1="100%" y1="0%" x2="0%" y2="100%" id="linearGradient-1">
            <stop stop-color="#FFFFFF" stop-opacity="0.6" offset="0%"></stop>
            <stop stop-color="#FFFFFF" stop-opacity="0.2" offset="100%"></stop>
        </linearGradient>
        <path d="M14.2350672,23.2528298 L14.2374048,0 L0,6.42734076 L0.0473026966,34.0630555 C-0.389091903,44.4831176 14.3097745,42.406763 13.8721566,33.1650673 L14.2350672,23.2528298 Z" id="path-2"></path>
    </defs>
    <g id="App-|-Design" stroke="none" stroke-width="1" fill="none" fill-rule="evenodd">
        <g id="Schnelltestest_Vollständigkeit" transform="translate(-55.000000, -485.000000)">
            <g id="Group-4" transform="translate(20.000000, 314.000000)">
                <g id="icon_pufferlösung" transform="translate(36.000000, 172.000000)">
                    <rect id="Rectangle-Copy" stroke="url(#linearGradient-1)" opacity="0.4" x="0" y="0" width="90" height="90" rx="8"></rect>
                    <g id="Group-14" transform="translate(45.179729, 44.500000) rotate(37.000000) translate(-45.179729, -44.500000) translate(35.000000, 7.000000)">
                        <polygon id="Path" fill="#D5F0FF" fill-rule="nonzero" points="2.08471849 20.1733865 16.3197857 20.1733865 16.3197857 40.6848205 2.08471849 40.6848205"></polygon>
                        <path d="M2.08471849,40.7219349 L7.1085058,40.7219349 L7.1085058,29.1142606 C7.1085058,27.1410291 8.7229158,25.5264757 10.6962907,25.5264757 L16.3197857,25.5264757 L16.3197857,20.0485728 L2.08471849,20.0485728 L2.08471849,40.7219349 Z" id="Path" fill="#9BD8F9" fill-rule="nonzero"></path>
                        <g id="Path" transform="translate(2.084718, 33.970881)">
                            <mask id="mask-3" fill="white">
                                <use xlink:href="#path-2"></use>
                            </mask>
                            <use id="Mask" fill="#9BD8F9" fill-rule="nonzero" xlink:href="#path-2"></use>
                            <path d="M5.00615744,42.1157409 C6.95904052,40.9855392 8.93356567,41.4641731 10.6250707,39.9919159 C10.0809632,39.3625453 5.02393055,32.5248686 5.02393055,31.632687 L5.01897814,4.15811628 L0.00014306733,6.42734076 L0.00014306733,35.4725355 C0.000122856208,35.7108732 -0.134223607,38.295281 0.672369561,39.0324127 C3.48811174,41.6056715 4.81674659,41.5908551 5.00615744,42.1157409 Z" fill="#49B1F7" fill-rule="nonzero" mask="url(#mask-3)"></path>
                        </g>
                        <circle id="Oval" fill="#73C3F9" fill-rule="nonzero" cx="8.34818806" cy="51.124462" r="6.26346974"></circle>
                        <path d="M6.04251938,50.9442678 C6.35347367,50.7234147 6.74608202,50.6354253 7.12918754,50.7096883 L8.63486093,51.0016369 C9.01796645,51.0758999 9.34933426,51.3043202 9.55522921,51.6253051 L15.4910578,20.2191704 L11.8461879,20.2191704 L6.04251938,50.9442678 Z" id="Path" fill="#BBBBBB" fill-rule="nonzero"></path>
                        <path d="M16.1909401,17.0278266 L17.4576344,10.496027 C17.1466801,10.7168802 16.7540718,10.8048695 16.3709662,10.7306065 L14.865293,10.4386579 C14.4821875,10.364219 14.1508197,10.1359747 13.9451006,9.81481363 L12.5462462,17.0278266 L16.1909401,17.0278266 Z" id="Path" fill="#979797" fill-rule="nonzero"></path>
                        <path d="M6.04251938,50.9442678 C6.35347367,50.7234147 6.74608202,50.6354253 7.12918754,50.7096883 L8.63486093,51.0016369 C9.01796645,51.0758999 9.34933426,51.3043202 9.55522921,51.6253051 L12.5737636,35.6589104 L8.58921203,37.4600025 L6.04251938,50.9442678 Z" id="Path" fill="#A1AAC7" fill-rule="nonzero"></path>
                        <path d="M8.71053161,50.6114921 C9.19552881,50.7054647 9.60080765,51.0438718 9.76851539,51.5086314 C10.355756,53.1369617 10.4794691,55.542062 10.0703186,57.652046 C9.40300768,61.0934845 7.7503922,61.5205847 5.88413858,61.1585966 C4.01788496,60.7966085 2.64472351,59.7827955 3.31203464,56.3413571 C3.72118491,54.231197 4.73499792,52.04695 5.88836214,50.7559706 C6.2174421,50.3874713 6.7198612,50.2252191 7.20485839,50.3191917 L8.71053161,50.6114921 Z" id="Path" fill="#D5F0FF" fill-rule="nonzero"></path>
                        <path d="M10.0711986,52.6086739 C9.98919262,52.5630953 9.90032341,52.5286036 9.80582278,52.5103017 L8.85342639,52.3255242 C8.54669547,52.2660435 8.22887816,52.368815 8.02051947,52.6018107 C7.2909119,53.4183516 6.64964569,54.8001359 6.39078107,56.1349341 C5.96860834,58.31179 6.83723891,58.9532321 8.01787966,59.1821804 C8.66125765,59.3069492 9.26416057,59.2824882 9.74827777,58.8830166 C9.87199081,58.5231403 9.98039354,58.1159258 10.0703186,57.6522219 C10.3949993,55.9777851 10.3828569,54.1190986 10.0711986,52.6086739 Z" id="Path" fill="#9BD8F9" fill-rule="nonzero"></path>
                        <path d="M16.2952956,10.9452085 C16.7802927,11.0391811 17.2827118,10.8769287 17.6119678,10.5084295 C18.7653319,9.21762604 19.7791449,7.03320305 20.1882953,4.92304305 C20.8556063,1.48160456 19.4824449,0.467615579 17.6161913,0.105803472 C15.7499377,-0.256184613 14.0973222,0.171091551 13.4298352,3.61235407 C13.0206848,5.72251407 13.1445738,8.1274383 13.7316386,9.75576876 C13.8991702,10.2205284 14.3046251,10.5589353 14.7896222,10.6529079 L16.2952956,10.9452085 Z" id="Path" fill="#FFFFFF" fill-rule="nonzero"></path>
                        <path d="M15.8748826,10.4392698 C15.4775228,9.3374675 15.3937569,7.71019293 15.6705713,6.28230215 C16.1221326,3.95375265 17.2403009,3.66461972 18.5031237,3.90958201 C19.2417061,4.05282862 19.8636146,4.35005658 20.1643622,5.03549341 C20.1719292,4.99800997 20.1809042,4.9605265 20.1881193,4.92321904 C20.8554303,1.48178054 19.4822689,0.467791557 17.6160153,0.105979451 C15.7497617,-0.256008633 14.0971462,0.17126753 13.4296592,3.61270603 C13.0205088,5.72286603 13.1442218,8.12779026 13.7314626,9.75612072 C13.8989943,10.2208803 14.3044491,10.5592873 14.7894462,10.6532599 L16.2951196,10.9452085 C16.3033906,10.9467923 16.3116616,10.9469682 16.3199326,10.9483761 C16.1166772,10.8397972 15.9549528,10.6617069 15.8748826,10.4392698 Z" id="Path" fill="#DADADA" fill-rule="nonzero"></path>
                        <path d="M16.6240102,16.7588504 L8.10859172,16.7588504 C7.3217351,16.9699303 6.74180282,17.6859971 6.74180282,18.5393444 C6.74180282,19.3926918 7.32187852,20.1087585 8.10859172,20.3198383 L16.6240102,20.3198383 C17.60733,20.3198383 18.4045042,19.5226644 18.4045042,18.5393444 C18.4045042,17.5560245 17.60733,16.7588504 16.6240102,16.7588504 Z" id="Path" fill="#D5F0FF" fill-rule="nonzero"></path>
                        <path d="M6.80671743,18.5393444 C6.80671743,17.5560245 7.60389152,16.7588504 8.5872114,16.7588504 L1.78049397,16.7588504 C0.797174086,16.7588504 4.60787459e-13,17.5560245 4.60787459e-13,18.5393444 C4.60787459e-13,19.5228076 0.797174086,20.3198383 1.78049397,20.3198383 L8.5872114,20.3198383 C7.60389152,20.3198383 6.80671743,19.5226643 6.80671743,18.5393444 Z" id="Path" fill="#BEE8FF" fill-rule="nonzero"></path>
                        <polygon id="Path-2" fill="#B9D3E1" fill-rule="nonzero" points="12.5946026 16.7609785 11.8309917 20.324496 15.4735035 20.324496 16.2458915 16.7609785"></polygon>
                    </g>
                </g>
            </g>
        </g>
    </g>
</svg>