<?xml version="1.0" encoding="UTF-8"?>
<svg  viewBox="0 0 94 125" version="1.1" xmlns="http://www.w3.org/2000/svg" xmlns:xlink="http://www.w3.org/1999/xlink">
    <title>03_icon_abstrich_puffer</title>
    <defs>
        <linearGradient x1="100%" y1="0%" x2="0%" y2="100%" id="linearGradient-1">
            <stop stop-color="#FFFFFF" stop-opacity="0.2" offset="0%"></stop>
            <stop stop-color="#FFFFFF" stop-opacity="0.6" offset="100%"></stop>
        </linearGradient>
    </defs>
    <g id="App-|-Design" stroke="none" stroke-width="1" fill="none" fill-rule="evenodd">
        <g id="Schnelltest_Onboarding" transform="translate(-54.000000, -455.000000)">
            <g id="03_icon_abstrich_puffer" transform="translate(54.000000, 455.000000)">
                <rect id="Rectangle-Copy" fill="url(#linearGradient-1)" opacity="0.4" x="0" y="22" width="94" height="94" rx="8"></rect>
                <g id="icon_abstrich_puffer" transform="translate(7.000000, 0.000000)" fill-rule="nonzero">
                    <path d="M21.2344127,79.0428839 C27.0122592,82.4814771 33.7613368,84.4588064 40.9731534,84.4588064 C48.0163137,84.4588064 54.6189811,82.5740881 60.3057943,79.2830095 L75.5141744,63.168873 C78.1440395,57.9477961 79.6269181,52.0498867 79.6269181,45.8048837 C79.6269181,24.4568909 62.3209883,7.1509611 40.9729955,7.1509611 C19.6250027,7.1509611 2.31923063,24.4568909 2.31923063,45.8048837 C2.31923063,51.5901454 3.59243312,57.0773799 5.87047162,62.005005 L21.2344127,79.0428839 Z" id="Path" fill="#E8E8E8"></path>
                    <g id="Group-14" transform="translate(29.570190, 0.000000)">
                        <polygon id="Path" fill="#D5F0FF" points="2.35130459 22.7530847 18.4066997 22.7530847 18.4066997 45.8874451 2.35130459 45.8874451"></polygon>
                        <path d="M2.35130459,45.9293057 L8.01751528,45.9293057 L8.01751528,32.8372848 C8.01751528,30.6117237 9.83837008,28.7907072 12.0640929,28.7907072 L18.4066997,28.7907072 L18.4066997,22.6123103 L2.35130459,22.6123103 L2.35130459,45.9293057 Z" id="Path" fill="#9BD8F9"></path>
                        <path d="M18.4066997,64.5412678 L18.4066997,45.5641973 L2.35130459,45.5641973 L2.35130459,78.3235843 C2.35130459,79.2805595 2.51955493,80.1979367 2.82664036,81.0490482 C9.4934647,77.1907623 14.9295231,75.1417269 18.4066997,68.2386084 L18.4066997,64.5412678 Z" id="Path" fill="#9BD8F9"></path>
                        <circle id="Oval" fill="#73C3F9" cx="9.41572354" cy="57.6620695" r="7.06441913"></circle>
                        <path d="M2.82664036,81.0490482 C5.02925092,79.7743204 7.09658231,78.2922294 9.00439077,76.6317053 C8.39070479,75.9218531 8.01767684,74.9989806 8.01767684,73.9927102 L8.01767684,45.5641973 L2.35146584,45.5641973 L2.35146584,78.3235843 L2.35146584,78.3237459 C2.35130459,79.2728014 2.52860587,80.22315 2.82664036,81.0490482 Z" id="Path" fill="#49B1F7"></path>
                        <path d="M6.81521445,57.4588327 C7.16593243,57.2097377 7.60874609,57.1104965 8.04084173,57.194256 L9.73905508,57.523538 C10.1711507,57.6072975 10.5448926,57.8649272 10.7771167,58.2269586 L17.471997,22.8047232 L13.3610347,22.8047232 L6.81521445,57.4588327 Z" id="Path" fill="#BBBBBB"></path>
                        <path d="M18.2613778,19.2052822 L19.6900522,11.8382202 C19.3393343,12.0873153 18.8965206,12.1865563 18.464425,12.1027969 L16.7662118,11.773515 C16.3341162,11.689557 15.9603743,11.4321257 15.7283486,11.0698958 L14.1506139,19.2052822 L18.2613778,19.2052822 Z" id="Path" fill="#979797"></path>
                        <path d="M6.81521445,57.4588327 C7.16593243,57.2097377 7.60874609,57.1104965 8.04084173,57.194256 L9.73905508,57.523538 C10.1711507,57.6072975 10.5448926,57.8649272 10.7771167,58.2269586 L13.1696637,45.5637303 L9.05938104,45.5637303 L6.81521445,57.4588327 Z" id="Path" fill="#A1AAC7"></path>
                        <path d="M9.82440225,57.0835029 C10.3714191,57.1894924 10.8285235,57.5711737 11.0176771,58.095365 C11.6800119,59.9319203 11.8195449,62.6445759 11.3580738,65.0243769 C10.6054296,68.9058937 8.74148375,69.38761 6.6365805,68.9793322 C4.53167726,68.5710544 2.98292099,67.4275987 3.73556541,63.5460819 C4.1970363,61.1660823 5.34049198,58.7025219 6.64134415,57.2464568 C7.01250564,56.8308352 7.57917225,56.6478347 8.12618909,56.7538242 L9.82440225,57.0835029 Z" id="Path" fill="#D5F0FF"></path>
                        <path d="M11.3590663,59.336077 C11.2665737,59.2846699 11.1663402,59.2457676 11.0597552,59.2251253 L9.98556987,59.0167191 C9.63961534,58.9496322 9.28115673,59.0655457 9.04615389,59.3283361 C8.2232468,60.2492933 7.49997783,61.807775 7.20801056,63.3132623 C6.73185194,65.7684865 7.71155978,66.4919539 9.04317651,66.7501792 C9.7688273,66.8909029 10.4488272,66.8633139 10.9948515,66.4127595 C11.1343846,66.0068635 11.2566494,65.5475759 11.3580738,65.0245753 C11.7242735,63.1360176 11.7105783,61.0396491 11.3590663,59.336077 Z" id="Path" fill="#9BD8F9"></path>
                        <path d="M18.3790778,12.3448413 C18.9260946,12.4508308 19.4927612,12.2678302 19.8641213,11.8522086 C21.1649733,10.396342 22.3084289,7.9325831 22.7698999,5.55258363 C23.5225443,1.67106669 21.973788,0.527412533 19.8688848,0.11933323 C17.7639816,-0.288944556 15.9000357,0.192970108 15.1471929,4.07428857 C14.6857219,6.45428804 14.8254534,9.16674511 15.4875898,11.0033005 C15.6765448,11.5274918 16.1338477,11.909173 16.6808645,12.0151625 L18.3790778,12.3448413 Z" id="Path" fill="#FFFFFF"></path>
                        <path d="M17.9049039,11.7742051 C17.4567312,10.5315084 17.3622537,8.69614394 17.6744662,7.08565976 C18.1837714,4.45934395 19.444927,4.13323777 20.8692349,4.40952492 C21.7022645,4.57108938 22.4037004,4.90632576 22.7429064,5.67941372 C22.7514411,5.63713703 22.7615637,5.59486032 22.7697015,5.55278211 C23.5223458,1.67126517 21.9735896,0.527611014 19.8686863,0.119531712 C17.7637831,-0.288746072 15.8998373,0.19316859 15.1469945,4.07468554 C14.6855235,6.45468501 14.8250564,9.16714208 15.4873913,11.0036974 C15.6763463,11.5278888 16.1336492,11.90957 16.680666,12.0155594 L18.3788793,12.3448413 C18.388208,12.3466277 18.3975366,12.3468261 18.4068653,12.348414 C18.1776184,12.2259505 17.9952133,12.0250866 17.9049039,11.7742051 Z" id="Path" fill="#DADADA"></path>
                        <path d="M18.7498273,18.9019103 L9.14548849,18.9019103 C8.25801156,19.1399824 7.60391968,19.9476171 7.60391968,20.9100873 C7.60391968,21.8725577 8.25817332,22.6801924 9.14548849,22.9182642 L18.7498273,22.9182642 C19.8588904,22.9182642 20.7580042,22.0191506 20.7580042,20.9100873 C20.7580042,19.8010241 19.8588904,18.9019103 18.7498273,18.9019103 Z" id="Path" fill="#D5F0FF"></path>
                        <path d="M7.67713533,20.9100873 C7.67713533,19.8010241 8.5762491,18.9019103 9.6853123,18.9019103 L2.00817697,18.9019103 C0.899113766,18.9019103 0,19.8010241 0,20.9100873 C0,22.0193121 0.899113766,22.9182643 2.00817697,22.9182643 L9.6853123,22.9182643 C8.5762491,22.9182643 7.67713533,22.0191505 7.67713533,20.9100873 Z" id="Path" fill="#BEE8FF"></path>
                        <polygon id="Path-2" fill="#B9D3E1" points="14.2051539 18.9043106 13.3438953 22.9235175 17.452198 22.9235175 18.3233562 18.9043106"></polygon>
                    </g>
                    <path d="M56.303118,100.087053 C66.4402818,87.3094585 46.9637945,81.1061194 35.3696293,73.7201402 C22.7061023,65.6529121 31.4673584,52.2844712 37.0664403,41.9212236 C39.8111564,36.8410455 38.4810017,32.5222631 36.4120124,29.4383428 C26.1434265,36.3866694 19.393574,48.142075 19.393574,61.4742291 C19.393574,82.2373268 35.7649996,99.1746717 56.303118,100.087053 Z" id="Path" fill="#FFFFFF" transform="translate(39.263395, 64.762698) rotate(-75.000000) translate(-39.263395, -64.762698) "></path>
                </g>
                <g id="Group-Copy-8" transform="translate(32.000000, 95.000000)">
                    <rect id="Rectangle-Copy-2" fill="#FFFFFF" x="0" y="0" width="30" height="30" rx="6"></rect>
                    <path d="M15.0027778,23.28 C15.8961111,23.28 16.6961111,23.0783333 17.4027778,22.675 C18.1094444,22.2716667 18.6694444,21.7166667 19.0827778,21.01 C19.4961111,20.3033333 19.7027778,19.49 19.7027778,18.57 C19.7027778,17.6566667 19.5044444,16.8466667 19.1077778,16.14 C18.7111111,15.4333333 18.1561111,14.89 17.4427778,14.51 C16.9434444,14.244 16.3853111,14.0874333 15.7683778,14.0403 L15.626,14.034 L19.5127778,10.31 L19.5127778,8.6 L11.0227778,8.6 L11.0227778,10.3 L17.299,10.3 L12.6227778,14.53 L13.4827778,15.94 C13.7094444,15.82 13.9544444,15.7266667 14.2177778,15.66 C14.4811111,15.5933333 14.7327778,15.56 14.9727778,15.56 C15.8394444,15.56 16.5394444,15.8383333 17.0727778,16.395 C17.6061111,16.9516667 17.8727778,17.6766667 17.8727778,18.57 C17.8727778,19.1566667 17.7544444,19.6733333 17.5177778,20.12 C17.2811111,20.5666667 16.9477778,20.9183333 16.5177778,21.175 C16.0877778,21.4316667 15.5794444,21.5666667 14.9927778,21.58 C14.3527778,21.5866667 13.7761111,21.4166667 13.2627778,21.07 C12.7494444,20.7233333 12.3827778,20.2166667 12.1627778,19.55 L12.1627778,19.55 L10.4527778,20.04 C10.6594444,20.7066667 10.9844444,21.2816667 11.4277778,21.765 C11.8711111,22.2483333 12.3994444,22.6216667 13.0127778,22.885 C13.6261111,23.1483333 14.2894444,23.28 15.0027778,23.28 Z" id="3" fill="#800343" fill-rule="nonzero"></path>
                </g>
            </g>
        </g>
    </g>
</svg>