<?xml version="1.0" encoding="UTF-8"?>
<svg width="92px" height="92px" viewBox="0 0 92 92" version="1.1" xmlns="http://www.w3.org/2000/svg" xmlns:xlink="http://www.w3.org/1999/xlink">
    <title>icon_abstrichtupfer</title>
    <defs>
        <linearGradient x1="100%" y1="0%" x2="0%" y2="100%" id="linearGradient-1">
            <stop stop-color="#FFFFFF" stop-opacity="0.6" offset="0%"></stop>
            <stop stop-color="#FFFFFF" stop-opacity="0.2" offset="100%"></stop>
        </linearGradient>
    </defs>
    <g id="App-|-Design" stroke="none" stroke-width="1" fill="none" fill-rule="evenodd">
        <g id="Schnelltestest_Vollständigkeit" transform="translate(-228.000000, -313.000000)">
            <g id="Group-4" transform="translate(20.000000, 314.000000)">
                <g id="icon_abstrichtupfer" transform="translate(209.000000, 0.000000)">
                    <rect id="Rectangle-Copy" stroke="url(#linearGradient-1)" opacity="0.4" x="0" y="0" width="90" height="90" rx="8"></rect>
                    <g id="Group-2" transform="translate(45.106667, 45.000000) rotate(-61.000000) translate(-45.106667, -45.000000) translate(35.000000, 10.000000)" fill-rule="nonzero">
                        <path d="M14.2205329,31.3493141 C13.4681718,30.3083932 12.1820631,29.7059528 10.8214955,29.8972396 C9.46092786,30.0885263 8.39092552,31.0223965 7.9549522,32.2305366 L14.7287013,69.1407648 C15.0257819,70.8097411 20.6182652,69.8505247 20.189945,67.9471988 L14.2205329,31.3493141 Z" id="Path" fill="#BBBBBB"></path>
                        <path d="M10.8621094,30.1857992 C12.342764,29.9774646 13.7306584,30.7864846 14.3230706,32.0798639 L13.1066575,23.4293412 L6.84107675,24.3105638 L8.0574899,32.9610865 C8.27058784,31.5543893 9.38145486,30.3941338 10.8621094,30.1857992 Z" id="Path" fill="#979797"></path>
                        <path d="M15.7402972,8.60173613 C15.3847997,6.07414392 14.7628045,4.23849326 13.9425028,2.92656207 C13.9287141,2.9285677 13.9151761,2.93007192 13.9013874,2.93182685 C9.42432516,3.56134322 6.00773848,5.5850215 7.024341,12.812802 C7.63079263,17.1246507 9.5817669,21.6165045 12.0068214,24.4095917 C13.0389675,24.2015078 13.9189366,23.5108198 14.3295889,22.5335777 C15.8563729,18.9003833 16.4217092,13.4473325 15.7402972,8.60173613 L15.7402972,8.60173613 Z" id="Path" fill="#FFFFFF"></path>
                        <path d="M12.2918712,24.1240404 C9.88060542,21.4705951 7.9256199,17.0409158 7.32919638,12.7985119 C6.35621628,5.87959805 9.62664283,3.94241247 13.9124184,3.33972136 C13.9974068,3.32768761 14.0816432,3.31740877 14.1661302,3.3068792 C12.4285046,0.174088864 9.67878914,-0.292720965 6.63625204,0.135229829 C2.35047651,0.737920929 -0.891119132,2.88118475 0.220249273,10.7841097 C0.901661258,15.629706 2.94890565,20.7154763 5.41883606,23.7863429 C6.12381418,24.6628022 7.24696565,25.0912543 8.3605904,24.9345647 L11.8180417,24.4484507 C12.0396636,24.4173635 12.2525108,24.3579467 12.4590904,24.2839892 C12.4026822,24.2315922 12.3437669,24.1812008 12.2918712,24.1240404 Z" id="Path" fill="#DADADA"></path>
                    </g>
                </g>
            </g>
        </g>
    </g>
</svg>