<svg width="40" height="40" viewBox="0 0 40 40" fill="none" xmlns="http://www.w3.org/2000/svg">
<g>
<circle cx="20" cy="20" r="20" fill="black" fill-opacity="0.6"/>
</g>
<path d="M22.4496 17.3563C22.2013 17.3563 22 17.5576 22 17.8059V26.3042C22 26.5524 22.2013 26.7539 22.4496 26.7539C22.698 26.7539 22.8993 26.5524 22.8993 26.3042V17.8059C22.8993 17.5576 22.698 17.3563 22.4496 17.3563Z" fill="white"/>
<path d="M17.144 17.3563C16.8956 17.3563 16.6943 17.5576 16.6943 17.8059V26.3042C16.6943 26.5524 16.8956 26.7539 17.144 26.7539C17.3923 26.7539 17.5936 26.5524 17.5936 26.3042V17.8059C17.5936 17.5576 17.3923 17.3563 17.144 17.3563Z" fill="white"/>
<path fill-rule="evenodd" clip-rule="evenodd" d="M13.2771 27.1944V16.1161C12.4433 15.8947 11.903 15.0893 12.0145 14.2337C12.1263 13.3783 12.855 12.7384 13.7178 12.7383H16.0199V12.1762C16.0173 11.7036 16.2042 11.2497 16.5388 10.9158C16.8734 10.5821 17.3279 10.3962 17.8006 10.4001H21.7933C22.2659 10.3962 22.7205 10.5821 23.0551 10.9158C23.3897 11.2497 23.5766 11.7036 23.574 12.1762V12.7383H25.8761C26.7389 12.7384 27.4676 13.3783 27.5793 14.2337C27.6909 15.0893 27.1506 15.8947 26.3168 16.1161V27.1944C26.3168 27.8492 26.0767 28.4641 25.6573 28.9053C25.2399 29.3478 24.6589 29.5989 24.0507 29.6H15.5432C14.9351 29.5989 14.3541 29.3478 13.9366 28.9053C13.5172 28.4641 13.2771 27.8492 13.2771 27.1944ZM15.5432 28.7007H24.0507C24.8194 28.7007 25.4175 28.0403 25.4175 27.1944V16.1556H14.1764V27.1944C14.1764 28.0403 14.7744 28.7007 15.5432 28.7007ZM16.9192 12.1762C16.9162 11.9421 17.0083 11.7167 17.1744 11.5514C17.3404 11.3862 17.5663 11.2954 17.8006 11.2994H21.7933C22.0276 11.2954 22.2535 11.3862 22.4195 11.5514C22.5856 11.7166 22.6777 11.9421 22.6747 12.1762V12.7383H16.9192V12.1762ZM25.8761 13.6376H13.7178C13.2707 13.6376 12.9084 13.9999 12.9084 14.4469C12.9084 14.8939 13.2707 15.2563 13.7178 15.2563H25.8761C26.3231 15.2563 26.6855 14.8939 26.6855 14.4469C26.6855 13.9999 26.3231 13.6376 25.8761 13.6376Z" fill="white"/>
<path d="M19.7968 17.3563C19.5485 17.3563 19.3472 17.5576 19.3472 17.8059V26.3042C19.3472 26.5524 19.5485 26.7539 19.7968 26.7539C20.0452 26.7539 20.2465 26.5524 20.2465 26.3042V17.8059C20.2465 17.5576 20.0452 17.3563 19.7968 17.3563Z" fill="white"/>
</svg>
