<?xml version="1.0" encoding="UTF-8"?>
<svg width="121px" height="121px" viewBox="0 0 121 121" version="1.1" xmlns="http://www.w3.org/2000/svg" xmlns:xlink="http://www.w3.org/1999/xlink">
    <title>icon_achtung</title>
    <defs>
        <linearGradient x1="100%" y1="0%" x2="0%" y2="100%" id="linearGradient-1">
            <stop stop-color="#AF2F70" stop-opacity="0.1" offset="0%"></stop>
            <stop stop-color="#800343" offset="51.0231712%"></stop>
            <stop stop-color="#800343" offset="100%"></stop>
        </linearGradient>
    </defs>
    <g id="App-|-Design" stroke="none" stroke-width="1" fill="none" fill-rule="evenodd">
        <g id="Angaben-vervollständigen" transform="translate(-39.000000, -183.000000)">
            <g id="Group-Copy-5" transform="translate(20.000000, 154.000000)">
                <g id="icon_achtung" transform="translate(19.000000, 29.803167)">
                    <rect id="Rectangle-Copy-3" fill="url(#linearGradient-1)" opacity="0.2" x="20.3031674" y="0" width="100" height="100" rx="15"></rect>
                    <g id="Achtung" transform="translate(0.000000, 20.152605)" fill-rule="nonzero">
                        <g id="Group-10-Copy-4">
                            <path d="M50,0 C22.3857356,0 0,22.3857356 0,50 C0,77.6142642 22.3857356,100 50,100 C56.6001503,100 62.9000987,98.7183778 68.668419,96.3951315 L73.5489915,94.11515 C89.2896793,85.6950147 100,69.0992318 100,50 C100,22.3857356 77.6142643,0 50,0 Z" id="Path" fill="#800343"></path>
                            <path d="M78.6583375,9.02645692 C75.2114268,12.9219353 72.8543033,18.823928 77.6579375,26.6654965 C87.045616,41.9902695 92.1533293,54.8301648 84.1884965,62.7949975 C78.1089543,68.8745398 78.69548,80.5056693 85.0311425,85.6717495 C94.2690265,76.600191 100,63.97009 100,49.999796 C100,33.0478935 91.5617015,18.0684239 78.6583375,9.02645692 L78.6583375,9.02645692 Z" id="Path" fill="#93044D"></path>
                            <path d="M47.743692,99.9469393 C60.856442,83.4187068 35.6629743,75.3944865 20.6655456,65.840483 C4.28486298,55.405262 15.6178317,38.11275 22.8604256,24.7075534 C26.4108048,18.1361785 24.6902066,12.5496935 22.0139019,8.56054237 C8.73115323,17.5484282 0,32.7544265 0,50 C0,76.85774 21.17697,98.7667448 47.743692,99.9469393 Z" id="Path" fill="#93044D"></path>
                            <g id="002-warning-copy" transform="translate(22.000000, 25.000000)">
                                <path d="M55.3475197,37.455298 L35.3825087,4.04392935 C33.8576743,1.52483444 31.206129,0 28.2560186,0 C25.3059083,0 22.6542526,1.52483444 21.1294182,4.04392935 L1.16440715,37.455298 C-0.360096162,40.0739515 -0.39331912,43.1897351 1.09829236,45.8082782 C2.58979346,48.4267109 5.27445129,49.9846579 8.29089723,49.9846579 L48.2209193,49.9846579 C51.2373652,49.9846579 53.9221334,48.4267109 55.4135241,45.8082782 C56.9053563,43.1897351 56.8721335,40.0739515 55.3475197,37.455298 Z" id="Combined-Shape" fill="#E8E8E8"></path>
                                <path d="M55.4137449,45.8082782 C53.9222438,48.4267109 51.2375859,49.9846579 48.2211401,49.9846579 L42.1633554,50 C32.8918322,46.5415746 28.2560706,40.6181016 28.2560706,32.2295806 C28.2560706,19.6467991 22.5165563,12.1412803 23.2891832,7.06401766 C23.8042678,3.67917587 25.4598797,1.3245401 28.2560186,0.000110375276 C31.2060186,0.000110375276 33.8577847,1.52494481 35.382619,4.04403974 L55.3476301,37.4554084 C56.8721335,40.0739515 56.9053563,43.1897351 55.4137449,45.8082782 Z" id="Combined-Shape" fill="#FFFFFF"></path>
                                <path d="M31.5705883,13.5238411 L31.5705883,26.7823399 C31.5705883,28.6054085 30.0789768,30.0969096 28.2560186,30.0969096 C26.4330605,30.0969096 24.9413388,28.6052981 24.9413388,26.7823399 L24.9413388,13.5238411 C24.9413388,11.7007726 26.4329501,10.2091611 28.2560186,10.2091611 C30.0790872,10.2091611 31.5705883,11.7007726 31.5705883,13.5238411 Z" id="Path" fill="#800343"></path>
                                <g transform="translate(24.941174, 10.209161)" fill="#93044D" id="Combined-Shape-Copy-2">
                                    <path d="M3.31484482,0 C5.13791325,0 6.62941435,1.49161148 6.62941435,3.31467992 L6.62941435,16.5731788 C6.62941435,18.3962472 5.13780288,19.8877484 3.31484482,19.8877484 L3.25963565,19.8869632 C2.94136264,13.7554569 1.31059072,8.90861392 0,4.99342238 L0.000164912991,3.31467992 C0.000164912991,1.49161148 1.49177639,0 3.31484482,0 Z"></path>
                                </g>
                                <g id="Group" transform="translate(24.284054, 33.411589)">
                                    <path d="M3.97196442,2.27053141e-14 C1.77409589,2.27053141e-14 0,1.77400771 0,3.97196442 C0,6.16965674 1.77400771,7.943929 3.97196442,7.943929 C6.16992114,7.943929 7.94392885,6.16974477 7.94392885,3.97196442 C7.94392885,1.77409589 6.16974477,2.27053141e-14 3.97196442,2.27053141e-14 Z" id="Path" fill="#800343"></path>
                                    <path d="M3.99750195,7.9908237e-05 C6.18347214,0.0137597169 7.94392885,1.78261522 7.94392885,3.97196442 C7.94392885,5.26360403 7.33119821,6.40893631 6.37978305,7.13380756 C4.94688299,5.11136273 4.15365664,2.74874749 3.99978137,0.0461600239 L3.99750195,7.9908237e-05 Z" id="Combined-Shape" fill="#93044D"></path>
                                </g>
                            </g>
                        </g>
                    </g>
                </g>
            </g>
        </g>
    </g>
</svg>