<?xml version="1.0" encoding="UTF-8"?>
<svg width="80px" height="71px" viewBox="0 0 80 71" version="1.1" xmlns="http://www.w3.org/2000/svg" xmlns:xlink="http://www.w3.org/1999/xlink">
    <title>icon_achtung</title>
    <g id="App-|-Design" stroke="none" stroke-width="1" fill="none" fill-rule="evenodd">
        <g id="Testüberblick_Abgelehnt" transform="translate(-148.000000, -363.000000)" fill-rule="nonzero">
            <g id="Karte-/-Aktiv-Copy-2" transform="translate(-8.222222, 0.000000)">
                <g id="002-warning-copy" transform="translate(156.222222, 363.152605)">
                    <path d="M77.4865276,52.4374173 L49.5355121,5.66150109 C47.400744,2.13476821 43.6885805,0 39.5584261,0 C35.4282717,0 31.7159536,2.13476821 29.5811855,5.66150109 L1.63017001,52.4374173 C-0.504134627,56.1035321 -0.550646767,60.4656292 1.5376093,64.1315895 C3.62571085,67.7973953 7.38423181,69.9785211 11.6072561,69.9785211 L67.509287,69.9785211 C71.7323112,69.9785211 75.4909867,67.7973953 77.5789337,64.1315895 C79.6674989,60.4656292 79.6209869,56.1035321 77.4865276,52.4374173 Z" id="Combined-Shape" fill="#E8E8E8"></path>
                    <path d="M77.5792428,64.1315895 C75.4911413,67.7973953 71.7326203,69.9785211 67.5095961,69.9785211 L59.0286976,70 C46.048565,65.1582045 39.5584989,56.8653422 39.5584989,45.1214128 C39.5584989,27.5055188 31.5231788,16.9977925 32.6048565,9.88962472 C33.325975,5.15084622 35.6438316,1.85435615 39.5584261,0.000154525386 C43.688426,0.000154525386 47.4008986,2.13492274 49.5356667,5.66165564 L77.4866821,52.4375718 C79.6209869,56.1035321 79.6674989,60.4656292 77.5792428,64.1315895 Z" id="Combined-Shape" fill="#FFFFFF"></path>
                    <path d="M44.1988236,18.9333775 L44.1988236,37.4952759 C44.1988236,40.0475718 42.1105675,42.1356734 39.5584261,42.1356734 C37.0062847,42.1356734 34.9178743,40.0474173 34.9178743,37.4952759 L34.9178743,18.9333775 C34.9178743,16.3810817 37.0061302,14.2928256 39.5584261,14.2928256 C42.110722,14.2928256 44.1988236,16.3810817 44.1988236,18.9333775 Z" id="Path" fill="#800343"></path>
                    <g transform="translate(34.917643, 14.292826)" fill="#93044D" id="Combined-Shape-Copy-2">
                        <path d="M4.64078275,0 C7.19307855,0 9.2811801,2.08825607 9.2811801,4.64055189 L9.2811801,23.2024503 C9.2811801,25.7547461 7.19292404,27.8428477 4.64078275,27.8428477 L4.56348991,27.8417485 C4.1179077,19.2576397 1.83482701,12.4720595 0,6.99079133 L0.000230878187,4.64055189 C0.000230878187,2.08825607 2.08848695,0 4.64078275,0 Z"></path>
                    </g>
                    <g id="Group" transform="translate(33.997676, 46.776225)">
                        <path d="M5.56075019,3.17874397e-14 C2.48373425,3.17874397e-14 0,2.48361079 0,5.56075019 C0,8.63751943 2.48361079,11.1215006 5.56075019,11.1215006 C8.6378896,11.1215006 11.1215004,8.63764268 11.1215004,5.56075019 C11.1215004,2.48373425 8.63764268,3.17874397e-14 5.56075019,3.17874397e-14 Z" id="Path" fill="#800343"></path>
                        <path d="M5.59650274,0.000111871532 C8.65686099,0.0192636036 11.1215004,2.49566131 11.1215004,5.56075019 C11.1215004,7.36904564 10.2636775,8.97251084 8.93169627,9.98733058 C6.92563618,7.15590783 5.8151193,3.84824649 5.59969392,0.0646240335 L5.59650274,0.000111871532 Z" id="Combined-Shape" fill="#93044D"></path>
                    </g>
                </g>
            </g>
        </g>
    </g>
</svg>